<svg id="Livello_1" data-name="Livello 1" xmlns="http://www.w3.org/2000/svg" viewBox="0 0 454.33 40"><defs><style>.cls-1{fill:#3bb7eb;}.cls-2{fill:#50b9a9;}</style></defs><title>Ilmondochevorrei-testatinabig</title><g id="Foglie"><path class="cls-1" d="M28.21,22.91l-.16,0a.63.63,0,0,1-.45-.76,12.8,12.8,0,0,0-.29-5.94,7.73,7.73,0,0,0-1.42-2.76,9,9,0,0,0-3.6-2.65L8,4.8a.63.63,0,1,1,.48-1.16l14.31,6a10.22,10.22,0,0,1,4.1,3,9,9,0,0,1,1.65,3.21,13.8,13.8,0,0,1,.3,6.59A.63.63,0,0,1,28.21,22.91Z"/><path class="cls-1" d="M25.34,17.18l0-.09A9.38,9.38,0,0,0,23.56,14l0,0-.08-.09-.33-.38h0a9.11,9.11,0,0,0-3.26-2.24l-5.14-2a.62.62,0,0,0-.8.37.64.64,0,0,0,0,.5.6.6,0,0,0,.33.33l5.15,2a7.82,7.82,0,0,1,3.17,2.32h0A8.37,8.37,0,0,1,24,17.17s0,0,0,.05a7.81,7.81,0,0,1,0,5.92,5.93,5.93,0,0,1-1.35,2.18.64.64,0,0,0,.47,1.09h0a.64.64,0,0,0,.45-.2,7.13,7.13,0,0,0,1.61-2.59A9.08,9.08,0,0,0,25.34,17.18Z"/><path class="cls-1" d="M17.18,35.77a.68.68,0,0,1,0-1.37c.07,0,7.42-.43,10.54-5.35a.68.68,0,0,1,1.15.73c-3.51,5.53-11.3,6-11.63,6Z"/><path class="cls-1" d="M22.85,19a7.65,7.65,0,0,0-4.8-5.53L7.56,9.31a.64.64,0,1,0-.48,1.2l10.49,4.13a6.47,6.47,0,0,1,3.91,4.28,7.59,7.59,0,0,1-.28,4.29c-.45,1.13-1.86,1.84-2.87,2.28a4.43,4.43,0,0,1-3.41,0L13.66,25a.64.64,0,0,0-.83.85.64.64,0,0,0,.35.34l1.27.51a5.71,5.71,0,0,0,4.4-.06c1.9-.82,3.1-1.82,3.56-3a5.7,5.7,0,0,0,.4-1.9C22.82,21.61,22.91,19.29,22.85,19Z"/><path class="cls-1" d="M27.65,24.38a.64.64,0,0,0-.85.34A11.14,11.14,0,0,1,21,30.56,11.34,11.34,0,0,1,9.36,29a.62.62,0,0,0-.87.09.65.65,0,0,0-.17.48.59.59,0,0,0,.21.42A12.53,12.53,0,0,0,28,25.22a.64.64,0,0,0-.34-.85Z"/><path class="cls-1" d="M8.25,19.34A4.26,4.26,0,0,1,12.11,19l.5.2h0a.61.61,0,0,0,.84-.28.68.68,0,0,0,.05-.52.65.65,0,0,0-.38-.38l-.55-.22a5.52,5.52,0,0,0-4.25.05,5.75,5.75,0,0,0-.77.4A5.42,5.42,0,0,0,5,22.46a7.94,7.94,0,0,0,1.51,5.17.64.64,0,1,0,1.06-.73,6.69,6.69,0,0,1-1.29-4.34A4.14,4.14,0,0,1,8.25,19.34Z"/><path class="cls-1" d="M14.73,20.06l1.79.71a.64.64,0,1,0,.48-1.2l-1.79-.71a.64.64,0,1,0-.48,1.2Z"/><path class="cls-1" d="M6.09,16.79a.64.64,0,0,0,.66,0L7,16.64A5.28,5.28,0,0,1,8.61,16a.64.64,0,0,0,.46-.78h0a.65.65,0,0,0-.78-.46A9,9,0,0,0,7,15.25a8.76,8.76,0,0,0-.85.43.65.65,0,0,0,0,1.12Z"/><path class="cls-1" d="M19.8,17.87a4.12,4.12,0,0,0-1.87-1.43l-4.08-1.62a8.88,8.88,0,0,0-3.19-.49.64.64,0,0,0-.64.74v0a.63.63,0,0,0,.61.53,7.59,7.59,0,0,1,2.74.39l4.15,1.66A2.86,2.86,0,0,1,19.21,21a2.5,2.5,0,0,1-1.36,1.63.64.64,0,1,0,.62,1.13A4,4,0,0,0,19.8,17.87Z"/><path class="cls-1" d="M21,28a.63.63,0,0,0-.88-.27,7.92,7.92,0,0,1-.9.45c-3,1.31-6.75.13-9-2.85a2.91,2.91,0,0,1-.58-2.07,1.42,1.42,0,0,1,.46-.85l.12-.06a.88.88,0,0,1,.69,0l4.2,1.45a3,3,0,0,0,.49.15.63.63,0,0,0,.52-.13.65.65,0,0,0-.28-1.14l-.27-.08-4.2-1.45a2.14,2.14,0,0,0-1.67,0l-.29.15A2.66,2.66,0,0,0,8.3,23.15a4.21,4.21,0,0,0,.83,2.93A9.51,9.51,0,0,0,16.59,30a7.83,7.83,0,0,0,3.11-.63,8.71,8.71,0,0,0,1-.52A.63.63,0,0,0,21,28Z"/><path class="cls-1" d="M7.51,7.64l2.26.93.07,0L12,9.47a.64.64,0,1,0,.48-1.2L8,6.45a.64.64,0,0,0-.48,1.2Z"/><path class="cls-1" d="M9.49,12.9a.53.53,0,0,0-.25-.27l0,0L7.1,11.78l-.09,0H7a.5.5,0,0,0-.28,0,.52.52,0,0,0-.29.33.49.49,0,0,0,0,.18.54.54,0,0,0,.16.33.57.57,0,0,0,.19.13l.38.15h0l-.2.06L6.74,13a.49.49,0,0,0-.33.52.24.24,0,0,0,0,.06v0a.5.5,0,0,0,.13.27.47.47,0,0,0,.34.15h0L7,14l.55-.16.6-.13.54-.08h0l.29,0a.51.51,0,0,0,.44-.72Z"/><path class="cls-1" d="M47.64,19.83,45.54,4.48a1.06,1.06,0,0,0-1.36-.86c-1.45.46-5.94,2.28-6,2.29L29.6,9.4a13.39,13.39,0,0,0-6.8,5.8,12.1,12.1,0,0,0-1.78,6A13.92,13.92,0,0,0,21.2,24l.06.37a14,14,0,0,0,.33,1.4,13.69,13.69,0,0,0,1.73,3.63l.15.19a14.38,14.38,0,0,0,1.73,2,15.93,15.93,0,0,0,1.63,1.29l-.74,1.27a1.13,1.13,0,0,0,1,1.7,1.21,1.21,0,0,0,.29,0,1.13,1.13,0,0,0,.69-.53L28.79,34a13.36,13.36,0,0,0,18.85-14.2Zm-3.45,7.72A11.29,11.29,0,0,1,29.37,32l-1.16-.69A13,13,0,0,1,26.6,30a12.55,12.55,0,0,1-1.44-1.69L25,28.14a11.74,11.74,0,0,1-1.4-3c-.07-.25-.23-.84-.27-1.12l-.07-.45a12,12,0,0,1-.15-2.38,10,10,0,0,1,1.49-5,11.3,11.3,0,0,1,5.76-4.89L39,7.86S41.8,6.73,43.62,6l1.92,14v.12A11.27,11.27,0,0,1,44.19,27.55Z"/></g><path class="cls-2" d="M56.69,36.32V5.45h5.69V36.32Z"/><path class="cls-2" d="M69.91,36.32V4.08l5.23-.28V36.32Z"/><path class="cls-2" d="M93.34,36.32V11.67l3.74-.25.9,2.51a8.87,8.87,0,0,1,2.92-2.07,8.55,8.55,0,0,1,3.46-.72q4.75,0,6.64,3.58A7.16,7.16,0,0,1,114,12a9.22,9.22,0,0,1,4-.86,9.57,9.57,0,0,1,3.32.55,6.76,6.76,0,0,1,2.59,1.69,7.86,7.86,0,0,1,1.69,2.81,11.69,11.69,0,0,1,.6,3.95V36.32H121v-16A4.19,4.19,0,0,0,119.82,17a5.27,5.27,0,0,0-6.21-.06,3.71,3.71,0,0,0-1.2,3V36.32h-5.23V20A3.76,3.76,0,0,0,106,16.84a4.77,4.77,0,0,0-3-.92,5.54,5.54,0,0,0-2.55.62,4.61,4.61,0,0,0-1.86,1.64V36.32Z"/><path class="cls-2" d="M130.5,24.08a22.91,22.91,0,0,1,.66-5.9,10.1,10.1,0,0,1,2-4,7.92,7.92,0,0,1,3.46-2.31,17.11,17.11,0,0,1,9.94,0A7.82,7.82,0,0,1,150,14.15a10.06,10.06,0,0,1,2,4,23.52,23.52,0,0,1,.64,5.9,22.93,22.93,0,0,1-.64,5.85,9.94,9.94,0,0,1-2,4,7.75,7.75,0,0,1-3.42,2.28,17.5,17.5,0,0,1-9.94,0,7.85,7.85,0,0,1-3.46-2.28,10,10,0,0,1-2-4A22.33,22.33,0,0,1,130.5,24.08Zm5.43,0a22,22,0,0,0,.31,4.06,6.9,6.9,0,0,0,1,2.62A3.69,3.69,0,0,0,139,32.17a7.33,7.33,0,0,0,2.61.41,7.17,7.17,0,0,0,2.59-.41,3.6,3.6,0,0,0,1.73-1.41,7,7,0,0,0,1-2.63,22.8,22.8,0,0,0,.3-4,22.94,22.94,0,0,0-.3-4.07,7,7,0,0,0-1-2.62,3.63,3.63,0,0,0-1.73-1.4,7.19,7.19,0,0,0-2.59-.41A7.35,7.35,0,0,0,139,16a3.72,3.72,0,0,0-1.77,1.4,6.83,6.83,0,0,0-1,2.62A22.17,22.17,0,0,0,135.93,24.08Z"/><path class="cls-2" d="M157.27,36.32V11.66l3.74-.28.82,2.4a9.45,9.45,0,0,1,3.22-2,10.84,10.84,0,0,1,3.82-.68,8.36,8.36,0,0,1,6.25,2.32q2.28,2.32,2.28,6.84V36.32h-5.23v-16A4.24,4.24,0,0,0,171,16.93a5.29,5.29,0,0,0-3.53-1,6.92,6.92,0,0,0-2.79.6,5.06,5.06,0,0,0-2.14,1.67V36.32Z"/><path class="cls-2" d="M181.73,23.86q0-6.22,2.3-9.49t7.16-3.27a10,10,0,0,1,3.56.63,8.59,8.59,0,0,1,3,1.87l.08-.1-.08-3.28V4.06l5.23-.28V36.32h-4.08L198.27,34l-.12,0a7.46,7.46,0,0,1-2.83,2.12,10.21,10.21,0,0,1-4.08.73q-4.9,0-7.21-3.15T181.73,23.86Zm5.43.22a24.29,24.29,0,0,0,.27,4,7,7,0,0,0,.9,2.59A3.58,3.58,0,0,0,190,32.07a7.07,7.07,0,0,0,2.64.43,6,6,0,0,0,3.33-.8,5.3,5.3,0,0,0,1.7-1.67V18.16a5,5,0,0,0-2-1.66,6.74,6.74,0,0,0-3-.63,6.87,6.87,0,0,0-2.59.43,3.79,3.79,0,0,0-1.73,1.4,6.6,6.6,0,0,0-1,2.52A21.34,21.34,0,0,0,187.16,24.08Z"/><path class="cls-2" d="M207.7,24.08a23,23,0,0,1,.66-5.9,10.13,10.13,0,0,1,2-4,7.92,7.92,0,0,1,3.46-2.31,17.11,17.11,0,0,1,9.94,0,7.81,7.81,0,0,1,3.42,2.31,10.07,10.07,0,0,1,2,4,23.56,23.56,0,0,1,.64,5.9,23,23,0,0,1-.64,5.85,10,10,0,0,1-2,4,7.74,7.74,0,0,1-3.42,2.28,17.49,17.49,0,0,1-9.94,0,7.86,7.86,0,0,1-3.46-2.28,10,10,0,0,1-2-4A22.4,22.4,0,0,1,207.7,24.08Zm5.43,0a22,22,0,0,0,.31,4.06,6.89,6.89,0,0,0,1,2.62,3.69,3.69,0,0,0,1.77,1.41,7.32,7.32,0,0,0,2.61.41,7.17,7.17,0,0,0,2.59-.41,3.6,3.6,0,0,0,1.73-1.41,7,7,0,0,0,1-2.63,22.79,22.79,0,0,0,.3-4,22.93,22.93,0,0,0-.3-4.07,7,7,0,0,0-1-2.62A3.62,3.62,0,0,0,221.4,16a7.18,7.18,0,0,0-2.59-.41,7.34,7.34,0,0,0-2.61.41,3.72,3.72,0,0,0-1.77,1.4,6.81,6.81,0,0,0-1,2.62A22.1,22.1,0,0,0,213.12,24.08Z"/><path class="cls-2" d="M244.79,24q0-6.25,2.63-9.52t8.4-3.28a17.18,17.18,0,0,1,3.21.3,14.08,14.08,0,0,1,2.8.81l-.34,4.62a10.5,10.5,0,0,0-2.19-.71,11.61,11.61,0,0,0-2.37-.24,9.94,9.94,0,0,0-3.14.43,4.37,4.37,0,0,0-2.08,1.42,6.17,6.17,0,0,0-1.14,2.49,16.42,16.42,0,0,0-.35,3.67q0,4.56,1.71,6.48a6.18,6.18,0,0,0,4.88,1.92,10,10,0,0,0,4.86-1.15l.36,4.12a9.23,9.23,0,0,1-2.71,1.1,14.66,14.66,0,0,1-3.62.42q-5.39,0-8.15-3.13T244.79,24Z"/><path class="cls-2" d="M266.68,36.32V4.09l5.23-.28v6.33l-.08,3.3.12.08A8.11,8.11,0,0,1,275,11.64a11.08,11.08,0,0,1,3.45-.55,7.83,7.83,0,0,1,6.13,2.38q2.15,2.38,2.15,6.78V36.32h-5.23v-16A4.39,4.39,0,0,0,280.39,17a4.93,4.93,0,0,0-3.55-1.1,6.51,6.51,0,0,0-3,.66,5.06,5.06,0,0,0-2,1.65V36.32Z"/><path class="cls-2" d="M291.12,23.48q0-5.93,2.61-9.13t8-3.21a11.93,11.93,0,0,1,4.14.67,8,8,0,0,1,3.14,2.1,9.58,9.58,0,0,1,2,3.59,16.61,16.61,0,0,1,.7,5.11q0,.58,0,1.26a11.8,11.8,0,0,1-.1,1.26H296.54q.2,3.81,1.92,5.34T303.72,32a16.83,16.83,0,0,0,6.65-1.32l.62,4.37a15.46,15.46,0,0,1-3.56,1.27,19.14,19.14,0,0,1-4.34.46q-6.25,0-9.11-3.32T291.12,23.48Zm5.31-1.89h10.49q-.08-3.27-1.44-4.62a5,5,0,0,0-3.71-1.35A4.93,4.93,0,0,0,297.84,17,7.7,7.7,0,0,0,296.42,21.59Z"/><path class="cls-2" d="M325.94,11.54h5.69l5.51,17,1,3.18h.14l.95-3.18,5.51-17h5.69l-9.19,24.78h-6.14Z"/><path class="cls-2" d="M352.49,24.08a23,23,0,0,1,.66-5.9,10.13,10.13,0,0,1,2-4,7.92,7.92,0,0,1,3.46-2.31,17.11,17.11,0,0,1,9.94,0A7.81,7.81,0,0,1,372,14.15a10.07,10.07,0,0,1,2,4,23.56,23.56,0,0,1,.64,5.9,23,23,0,0,1-.64,5.85,10,10,0,0,1-2,4,7.74,7.74,0,0,1-3.42,2.28,17.49,17.49,0,0,1-9.94,0,7.85,7.85,0,0,1-3.46-2.28,10,10,0,0,1-2-4A22.4,22.4,0,0,1,352.49,24.08Zm5.43,0a22,22,0,0,0,.31,4.06,6.89,6.89,0,0,0,1,2.62A3.69,3.69,0,0,0,361,32.17a7.32,7.32,0,0,0,2.61.41,7.17,7.17,0,0,0,2.59-.41,3.6,3.6,0,0,0,1.73-1.41,7,7,0,0,0,1-2.63,22.79,22.79,0,0,0,.3-4,22.93,22.93,0,0,0-.3-4.07,7,7,0,0,0-1-2.62A3.62,3.62,0,0,0,366.2,16a7.18,7.18,0,0,0-2.59-.41A7.34,7.34,0,0,0,361,16a3.72,3.72,0,0,0-1.77,1.4,6.81,6.81,0,0,0-1,2.62A22.1,22.1,0,0,0,357.92,24.08Z"/><path class="cls-2" d="M379.26,36.32V11.7l4.2-.24.45,4.64H384a8.82,8.82,0,0,1,3-3.68,7.2,7.2,0,0,1,4.13-1.25,9.09,9.09,0,0,1,2.59.32l-.32,5.31a7.24,7.24,0,0,0-1.24-.3,9,9,0,0,0-1.36-.1,6.1,6.1,0,0,0-2.51.51,5.87,5.87,0,0,0-2,1.46A6.91,6.91,0,0,0,385,20.72a9.31,9.31,0,0,0-.49,3.12V36.32Z"/><path class="cls-2" d="M397.85,36.32V11.7l4.2-.24.45,4.64h.12a8.82,8.82,0,0,1,3-3.68,7.2,7.2,0,0,1,4.13-1.25,9.09,9.09,0,0,1,2.59.32L412,16.81a7.24,7.24,0,0,0-1.24-.3,9,9,0,0,0-1.36-.1,6.1,6.1,0,0,0-2.51.51,5.87,5.87,0,0,0-2,1.46,6.91,6.91,0,0,0-1.34,2.34,9.31,9.31,0,0,0-.49,3.12V36.32Z"/><path class="cls-2" d="M414.51,23.48q0-5.93,2.61-9.13t8-3.21a11.93,11.93,0,0,1,4.14.67,8,8,0,0,1,3.14,2.1,9.58,9.58,0,0,1,2,3.59,16.61,16.61,0,0,1,.7,5.11q0,.58,0,1.26a11.8,11.8,0,0,1-.1,1.26H419.93q.2,3.81,1.92,5.34T427.11,32a16.83,16.83,0,0,0,6.65-1.32l.62,4.37a15.46,15.46,0,0,1-3.56,1.27,19.14,19.14,0,0,1-4.34.46q-6.25,0-9.11-3.32T414.51,23.48Zm5.31-1.89H430.3q-.08-3.27-1.44-4.62a5,5,0,0,0-3.71-1.35A4.93,4.93,0,0,0,421.23,17,7.7,7.7,0,0,0,419.81,21.59Z"/><path class="cls-2" d="M440.13,5.78q0-2.54,3.14-2.52t3.12,2.52q0,2.46-3.17,2.46a4,4,0,0,1-2.31-.54A2.19,2.19,0,0,1,440.13,5.78Zm.44,30.54V11.7l5.23-.28v24.9Z"/></svg>