<?xml version="1.0" encoding="utf-8"?>
<!-- Generator: Adobe Illustrator 24.0.0, SVG Export Plug-In . SVG Version: 6.00 Build 0)  -->
<svg version="1.1" id="Livello_1" xmlns="http://www.w3.org/2000/svg" xmlns:xlink="http://www.w3.org/1999/xlink" x="0px" y="0px"
	 viewBox="0 0 280 224" style="enable-background:new 0 0 280 224;" xml:space="preserve">
<style type="text/css">
	.st0{clip-path:url(#SVGID_2_);fill:none;stroke:#FFFFFF;stroke-width:5.725;}
	.st1{clip-path:url(#SVGID_2_);fill:#FFFFFF;}
	.st2{clip-path:url(#SVGID_2_);fill:none;stroke:#FFFFFF;stroke-width:1.609;}
</style>
<g>
	<defs>
		<rect id="SVGID_1_" x="-272.5" y="-587.4" width="841.9" height="1190.6"/>
	</defs>
	<clipPath id="SVGID_2_">
		<use xlink:href="#SVGID_1_"  style="overflow:visible;"/>
	</clipPath>
	<path class="st0" d="M171.8,135.5c27.3-2.4,47.6-26.5,45.2-53.8c-2.4-27.3-26.5-47.6-53.8-45.2c-27.3,2.4-47.6,26.5-45.2,53.8
		C120.4,117.6,144.5,137.9,171.8,135.5z"/>
	<path class="st1" d="M68.4,184.4c0,0-5.4,5.9,0.6,11.3l2,1.8c0,0,5.9,5.4,11.3-0.6l59.9-66.5l-13.9-12.5L68.4,184.4z"/>
	<path class="st2" d="M167.9,44.3c-23,0-41.6,18.6-41.6,41.6"/>
</g>
</svg>
