<?xml version="1.0" encoding="utf-8"?>
<!-- Generator: Adobe Illustrator 24.0.1, SVG Export Plug-In . SVG Version: 6.00 Build 0)  -->
<svg version="1.1" id="Livello_1" xmlns="http://www.w3.org/2000/svg" xmlns:xlink="http://www.w3.org/1999/xlink" x="0px" y="0px"
	 viewBox="0 0 200 66" style="enable-background:new 0 0 200 66;" xml:space="preserve">
<style type="text/css">
	.st0{fill:#E5007E;}
	.st1{fill:#1D1D1B;}
	.st2{fill:none;stroke:#FFFFFF;stroke-width:4.05;stroke-miterlimit:4.05;}
	.st3{fill:none;stroke:#FFFFFF;stroke-width:6.075;stroke-miterlimit:4.05;}
</style>
<g>
	<path class="st0" d="M51.7,22.6V11c0-2.9-0.9-3.5-2.6-3.5c-1.8,0-2.6,0.6-2.6,3.5v38.6c0,2.9,0.9,3.5,2.6,3.5
		c1.7,0,2.6-0.6,2.6-3.5V37.3h8.5v13.1c0,7.5-5.9,9.6-11.1,9.6C43.8,60,38,57.8,38,50.4V10.3c0-7.5,5.9-9.6,11.1-9.6
		c5.3,0,11.1,2.2,11.1,9.6v12.3H51.7z"/>
	<path class="st0" d="M116.9,1.8h12.7l6.5,57.1h-8.6l-1.6-15.5h-6l-1.8,15.5h-7.7L116.9,1.8z M125.1,35.9l-1.8-23.7h-0.6l-2.1,23.7
		H125.1z"/>
	<g>
		<polygon class="st1" points="35.8,39.5 1.4,39.5 1.4,20.2 35.8,20.2 35.8,21.2 2.4,21.2 2.4,38.4 35.8,38.4 		"/>
	</g>
	<path class="st2" d="M10.9,26.5c1-2.8,2.2-5.8,3.6-9.2l0-0.1c0.3-0.5,0.5-0.8,0.5-1c0-0.2-0.2-0.4-0.6-0.6
		c-0.4-0.1-0.9-0.2-1.5-0.2c-0.7,0-1.2,0.6-1.6,1.8c-0.1,0.1-0.1,0.3-0.1,0.3c-1.3,3.9-2.4,7.4-3.3,10.7C7,31.6,6.6,33.5,6.6,34
		c0,0.5,0.1,0.9,0.3,1.1c0.2,0.2,0.4,0.4,0.8,0.4c0.2,0,1.1-0.2,2.7-0.6c1.6-0.4,3.2-0.7,4.7-0.9c0.2,0,0.5-0.1,0.9-0.1
		c0.7-0.1,1.1-0.3,1.1-0.6c0-0.3-0.1-0.5-0.4-0.7c-0.2-0.1-0.7-0.2-1.2-0.2c-0.9,0-1.9,0.1-3,0.2c-1.1,0.1-2.2,0.3-3.4,0.6
		C9.3,31.5,10,29.3,10.9,26.5z"/>
	<path class="st2" d="M22.6,32.9c0,0.1,0,0.2,0,0.4c0,0.6,0.1,1.1,0.4,1.4c0.3,0.3,0.6,0.5,1.1,0.5c0.3,0,0.7-0.1,1-0.3
		c0.3-0.2,0.7-0.6,1-1c0.5-0.6,0.9-1.2,1.2-1.8c0.3-0.6,0.5-1,0.5-1.1c0-0.1-0.1-0.3-0.2-0.5c-0.1-0.2-0.2-0.3-0.3-0.3
		c-0.1,0-0.2,0.1-0.4,0.4c-0.2,0.3-0.3,0.5-0.4,0.7c-0.7,1-1.2,1.6-1.5,1.9c-0.3,0.3-0.5,0.5-0.7,0.5c-0.1,0-0.2,0-0.2-0.1
		c0-0.1-0.1-0.2-0.1-0.3c0-0.3,0.1-0.8,0.3-1.5c0.2-0.7,0.5-1.5,0.9-2.4c0.1-0.3,0.3-0.7,0.6-1.2c0.3-0.6,0.4-0.9,0.4-1.1
		c0-0.2-0.1-0.4-0.4-0.6c-0.2-0.2-0.5-0.2-0.9-0.2c-0.1,0-0.2,0-0.4,0c-0.1,0-0.3,0.1-0.5,0.1c-0.2-0.3-0.5-0.6-0.7-0.7
		c-0.2-0.1-0.5-0.2-0.8-0.2c-0.5,0-1.1,0.3-1.7,0.8c-0.6,0.6-1.2,1.3-1.7,2.3c-0.6,0.9-1,1.8-1.3,2.7c-0.3,0.9-0.4,1.7-0.4,2.4
		c0,0.6,0.1,1,0.4,1.4c0.3,0.4,0.7,0.5,1.2,0.5c0.6,0,1.2-0.3,1.8-0.8c0.6-0.5,1.2-1.2,1.7-2.2C22.6,32.8,22.6,32.8,22.6,32.9z
		 M23,29.6c-0.4,1-0.9,1.9-1.6,2.8c-0.4,0.6-0.8,1.1-1.2,1.4c-0.4,0.4-0.7,0.5-0.9,0.5c-0.1,0-0.1,0-0.2-0.1c0-0.1-0.1-0.1-0.1-0.3
		c0-0.4,0.1-0.9,0.4-1.7c0.3-0.7,0.6-1.5,1-2.3c0.5-0.9,0.9-1.5,1.4-2c0.5-0.5,0.9-0.7,1.2-0.7c0.1,0,0.3,0,0.3,0.1
		c0.1,0.1,0.1,0.2,0.1,0.4C23.7,28,23.5,28.6,23,29.6z"/>
	<path class="st2" d="M43.4,34.8c0.2,0.1,0.4,0.2,0.6,0.2c0.3,0,0.7-0.2,1.1-0.5c0.4-0.3,0.8-0.9,1.3-1.6c0.3-0.5,0.6-1,0.8-1.5
		c0.2-0.4,0.3-0.7,0.3-0.9c0-0.1-0.1-0.3-0.3-0.5c-0.2-0.2-0.3-0.3-0.5-0.3c0,0-0.1,0.2-0.3,0.5c-0.2,0.4-0.3,0.7-0.5,1
		c-0.6,0.9-1,1.6-1.2,1.9c-0.3,0.3-0.5,0.4-0.8,0.4c-0.1,0-0.3-0.1-0.3-0.2c-0.1-0.1-0.1-0.3-0.1-0.5c0-0.4,0.2-1.1,0.5-2.1
		c0.3-1,0.8-1.8,1.3-2.6c0.2-0.3,0.4-0.6,0.4-0.7c0.1-0.1,0.1-0.3,0.1-0.3c0-0.1,0-0.2-0.1-0.3c-0.1-0.1-0.2-0.2-0.3-0.3
		c-0.1-0.2-0.2-0.4-0.3-0.5c-0.1-0.1-0.2-0.2-0.4-0.2c-0.4,0-1,0.6-1.8,1.8c-0.8,1.2-1.9,3.1-3.2,5.6c0.1-0.9,0.3-1.7,0.5-2.5
		c0.2-0.8,0.4-1.5,0.7-2.3l0.3-0.5c0-0.3-0.1-0.5-0.3-0.7c-0.1-0.2-0.3-0.2-0.5-0.2c-0.4,0-0.9,0.5-1.7,1.6c-0.7,1-1.8,2.9-3.3,5.5
		c0.3-1.2,0.6-2.3,0.9-3.3c0.3-1,0.5-1.6,0.7-1.8c0.1-0.2,0.3-0.4,0.5-0.7c0.2-0.3,0.4-0.5,0.4-0.6c0-0.3-0.1-0.6-0.4-0.8
		c-0.3-0.2-0.5-0.4-0.8-0.4c-0.3,0-0.4,0.1-0.6,0.3c-0.1,0.2-0.3,0.7-0.5,1.4c-0.2,0.8-0.5,1.7-0.9,2.9c-0.5,1.7-0.8,2.7-0.8,3
		c0,0.5,0.1,0.8,0.3,1c0.2,0.2,0.6,0.3,1.1,0.3c0.4,0,0.9-0.6,1.6-1.9c0.7-1.4,1.4-2.6,2-3.6c-0.1,0.2-0.1,0.5-0.2,0.9
		c-0.4,1.8-0.6,2.8-0.6,3.1c0,0.3,0.1,0.6,0.3,0.7C38.8,35,39,35,39.3,35c0.6,0,1.4-1,2.4-3c0.7-1.4,1.3-2.5,1.9-3.4l-0.1,0.3
		c-0.8,2.3-1.2,3.7-1.2,4.1c0,0.2,0,0.5,0.1,0.6c0.1,0.2,0.2,0.4,0.4,0.5C43,34.4,43.2,34.7,43.4,34.8z"/>
	<path class="st2" d="M49.5,34.8c0.5-0.4,1.1-1.2,1.7-2.2c0.1-0.2,0.2-0.4,0.4-0.7c0.4-0.6,0.5-1,0.5-1c0-0.2-0.1-0.3-0.2-0.4
		c-0.1-0.1-0.3-0.2-0.4-0.2c-0.1,0-0.2,0.2-0.4,0.5c-0.1,0.2-0.2,0.4-0.3,0.5c-0.5,0.8-1,1.5-1.5,2c-0.5,0.5-0.9,0.8-1.2,0.8
		c-0.2,0-0.3-0.1-0.4-0.2c-0.1-0.1-0.1-0.3-0.1-0.5c0-0.6,0.4-2.1,1.3-4.6l0.2-0.6c0.1-0.2,0.1-0.4,0.2-0.6c0.1-0.4,0.2-0.6,0.2-0.7
		c0-0.2-0.1-0.3-0.2-0.4c-0.1-0.1-0.3-0.1-0.4-0.1c-0.3,0-0.6,0.1-0.9,0.2c-0.3,0.1-0.5,0.3-0.6,0.5c-0.3,0.4-0.6,1.3-0.9,2.5
		c-0.3,1.2-0.5,2.3-0.5,3.3c0,0.8,0.2,1.5,0.5,1.9c0.3,0.5,0.8,0.7,1.3,0.7C48.5,35.4,49,35.2,49.5,34.8z M50.3,25.1
		c0.3-0.3,0.5-0.6,0.5-1c0-0.3-0.1-0.5-0.2-0.6c-0.1-0.1-0.4-0.2-0.6-0.2c-0.4,0-0.9,0.1-1.3,0.4c-0.4,0.3-0.6,0.6-0.6,1
		c0,0.3,0.1,0.5,0.3,0.7c0.2,0.2,0.5,0.3,0.8,0.3C49.6,25.6,50,25.4,50.3,25.1z"/>
	<path class="st2" d="M55.1,32.9c0,0.1,0,0.2,0,0.4c0,0.6,0.1,1.1,0.4,1.4c0.3,0.3,0.6,0.5,1.1,0.5c0.3,0,0.7-0.1,1-0.3
		c0.3-0.2,0.7-0.6,1-1c0.5-0.6,0.9-1.2,1.2-1.8c0.3-0.6,0.5-1,0.5-1.1c0-0.1-0.1-0.3-0.2-0.5c-0.1-0.2-0.2-0.3-0.3-0.3
		c-0.1,0-0.2,0.1-0.4,0.4c-0.2,0.3-0.3,0.5-0.4,0.7c-0.7,1-1.2,1.6-1.5,1.9c-0.3,0.3-0.5,0.5-0.7,0.5c-0.1,0-0.2,0-0.2-0.1
		c0-0.1-0.1-0.2-0.1-0.3c0-0.3,0.1-0.8,0.3-1.5c0.2-0.7,0.5-1.5,0.9-2.4c0.1-0.3,0.3-0.7,0.6-1.2c0.3-0.6,0.4-0.9,0.4-1.1
		c0-0.2-0.1-0.4-0.4-0.6c-0.2-0.2-0.5-0.2-0.9-0.2c-0.1,0-0.2,0-0.4,0c-0.1,0-0.3,0.1-0.5,0.1c-0.2-0.3-0.5-0.6-0.7-0.7
		c-0.2-0.1-0.5-0.2-0.8-0.2c-0.5,0-1.1,0.3-1.7,0.8c-0.6,0.6-1.2,1.3-1.7,2.3c-0.6,0.9-1,1.8-1.3,2.7C50.2,32.2,50,33,50,33.8
		c0,0.6,0.1,1,0.4,1.4c0.3,0.4,0.7,0.5,1.2,0.5c0.6,0,1.2-0.3,1.8-0.8c0.6-0.5,1.2-1.2,1.7-2.2C55.2,32.8,55.1,32.8,55.1,32.9z
		 M55.5,29.6c-0.4,1-0.9,1.9-1.6,2.8c-0.4,0.6-0.8,1.1-1.2,1.4c-0.4,0.4-0.7,0.5-0.9,0.5c-0.1,0-0.1,0-0.2-0.1
		c0-0.1-0.1-0.1-0.1-0.3c0-0.4,0.1-0.9,0.4-1.7c0.3-0.7,0.6-1.5,1-2.3c0.5-0.9,0.9-1.5,1.4-2c0.5-0.5,0.9-0.7,1.2-0.7
		c0.1,0,0.3,0,0.3,0.1c0.1,0.1,0.1,0.2,0.1,0.4C56.2,28,56,28.6,55.5,29.6z"/>
	<g>
		<path class="st3" d="M125,60.8c0.3,0.3,0.6,0.5,1.1,0.5c0.4,0,0.9-0.2,1.3-0.6c0.4-0.4,0.8-1,1.3-1.9c0.2-0.5,0.4-0.8,0.5-1.1
			c0.1-0.3,0.2-0.5,0.2-0.6c0-0.1,0-0.1-0.1-0.2c-0.1-0.1-0.1-0.1-0.2-0.1c-0.1,0-0.3,0.2-0.4,0.5c-0.1,0.3-0.2,0.5-0.3,0.6
			c-0.5,0.8-0.9,1.3-1.2,1.6c-0.3,0.3-0.5,0.4-0.7,0.4c-0.1,0-0.2-0.1-0.2-0.2c-0.1-0.1-0.1-0.3-0.1-0.5c0-0.9,0.3-2.3,0.9-4.4
			c0.6-2,1.4-4.2,2.4-6.5c0.2-0.4,0.4-0.8,0.6-1.4c0.4-0.8,0.6-1.3,0.6-1.5c0-0.2-0.1-0.4-0.3-0.5c-0.2-0.1-0.5-0.2-0.9-0.2
			c-0.5,0-1.2,1.5-2.2,4.6c-0.6,1.6-1,3-1.4,4c-0.3-0.3-0.6-0.5-0.9-0.7c-0.3-0.2-0.6-0.2-0.8-0.2c-0.2,0-0.4,0.1-0.6,0.2
			c-0.2,0.1-0.4,0.3-0.7,0.6c-0.9,1-1.7,2.1-2.3,3.3c-0.6,1.2-0.9,2.4-0.9,3.4c0,0.8,0.2,1.4,0.5,1.9c0.4,0.5,0.8,0.8,1.3,0.8
			c0.4,0,0.9-0.3,1.5-0.9c0.6-0.6,1.1-1.3,1.5-2.3C124.6,60,124.8,60.5,125,60.8z M123.6,59.1c-0.7,1.3-1.3,2-1.8,2
			c-0.1,0-0.3-0.1-0.4-0.2c-0.1-0.1-0.2-0.3-0.2-0.5c0-0.6,0.1-1.3,0.4-2.2c0.3-0.8,0.7-1.7,1.2-2.5c0.5-0.7,0.9-1.3,1.2-1.6
			c0.3-0.3,0.6-0.5,0.9-0.5c0.1,0,0.2,0,0.3,0.1c0.1,0.1,0.2,0.2,0.3,0.3C125,56.1,124.3,57.8,123.6,59.1z"/>
		<path class="st3" d="M131,56c0.7-1.2,1.3-1.8,1.8-1.8c0.2,0,0.3,0.1,0.4,0.2s0.2,0.4,0.2,0.7c0,1.1-0.3,2.3-1,3.5
			c-0.6,1.2-1.2,1.8-1.8,1.8c-0.2,0-0.4-0.1-0.5-0.2c-0.1-0.2-0.2-0.4-0.2-0.7C129.9,58.4,130.3,57.2,131,56z M132.5,52.6
			c-0.2-0.1-0.3-0.1-0.6-0.1c-0.3,0-0.6,0.1-1,0.4c-0.3,0.3-0.6,0.6-1,1.2c-0.6,0.9-1,1.8-1.4,2.8c-0.3,1-0.5,1.8-0.5,2.5
			c0,0.8,0.2,1.4,0.6,1.9c0.4,0.5,1,0.7,1.7,0.7c0.9,0,1.8-0.4,2.5-1.3c0.7-0.9,1.3-2.1,1.8-3.7c0.5-0.1,0.9-0.3,1.3-0.6
			c0.4-0.3,0.8-0.8,1.2-1.3c0.2-0.2,0.3-0.4,0.4-0.6c0.1-0.2,0.1-0.3,0.1-0.5c0-0.1,0-0.2-0.1-0.3c-0.1-0.1-0.2-0.1-0.4-0.1
			c-0.1,0-0.4,0.3-0.9,0.9c-0.5,0.6-1,0.9-1.5,1.1c0-0.8-0.2-1.4-0.4-1.8c-0.3-0.5-0.6-0.7-1.1-0.7c-0.1,0-0.3,0-0.5,0l-0.1,0
			C132.8,52.8,132.6,52.7,132.5,52.6z"/>
		<path class="st3" d="M137,58.2c0,0.2,0,0.5,0,0.7c0,0.7,0.2,1.4,0.7,1.9c0.5,0.6,1,0.9,1.6,0.9c0.4,0,0.7-0.1,1-0.2
			c0.3-0.1,0.6-0.4,1-0.7c0.3-0.3,0.6-0.7,0.9-1.1c0.3-0.5,0.8-1.3,1.4-2.5c0-0.1,0.1-0.1,0.1-0.2c0,0,0-0.1,0-0.1
			c0-0.1-0.1-0.2-0.3-0.4c-0.2-0.2-0.3-0.2-0.4-0.2c-0.1,0-0.2,0.2-0.5,0.7c-0.2,0.4-0.5,0.8-0.6,1.1c-0.5,0.8-0.9,1.4-1.3,1.7
			c-0.3,0.4-0.7,0.5-0.9,0.5c-0.3,0-0.5-0.1-0.6-0.4c-0.1-0.3-0.2-0.8-0.2-1.5c0-0.2,0-0.5,0-0.8c0-0.3,0.1-0.6,0.1-1
			c1.9-2.8,3.4-5.5,4.6-8.1c1.2-2.6,1.8-4.4,1.8-5.3c0-0.4-0.2-0.8-0.7-1.2c-0.5-0.4-0.9-0.7-1.3-0.7c-0.3,0-0.7,0.1-1,0.4
			c-0.4,0.3-0.5,0.5-0.5,0.8c0,0.1,0,0.1,0,0.2c0,0,0,0.1,0,0.1c-0.8,2.1-1.5,4.2-2.2,6.4c-0.7,2.2-1.3,4.4-1.9,6.7
			c-0.3,0.3-0.6,0.4-0.9,0.5c-0.4,0.1-0.5,0.2-0.5,0.3c0,0.2,0.1,0.4,0.2,0.6c0.1,0.2,0.3,0.3,0.5,0.3c0,0,0.1,0,0.1,0
			c0.1,0,0.1,0,0.2,0C137.1,57.7,137,58,137,58.2z M140.9,49.4c0.7-1.9,1.4-4,2.3-6.2c0,0,0,0,0.1,0c0.1,0,0.2,0,0.2,0
			c0.1,0,0.2,0,0.2,0.1c0.1,0.1,0.1,0.2,0.1,0.3c0,0.6-0.4,2-1.3,4.2c-0.9,2.2-2,4.5-3.3,7.1C139.6,53.1,140.2,51.3,140.9,49.4z"/>
		<path class="st3" d="M146.9,54.1c-0.2,0.7-0.4,1.2-0.4,1.5c0,0.2,0.1,0.4,0.3,0.6c0.2,0.2,0.4,0.3,0.6,0.3c0.4,0,0.8-0.4,1.2-1.2
			c0.4-0.8,0.6-1.5,0.6-2.2c0-0.5-0.1-0.8-0.3-1.1c-0.2-0.3-0.5-0.5-0.8-0.5c-0.2-0.2-0.4-0.3-0.6-0.3c-0.2-0.1-0.4-0.1-0.6-0.1
			c-0.3,0-0.6,0-0.8,0.1c-0.2,0.1-0.5,0.2-0.7,0.4c-0.8,0.8-1.6,2-2.2,3.5c-0.6,1.5-1,2.9-1,4c0,0.9,0.3,1.6,0.8,2.1
			c0.5,0.5,1.2,0.8,2.1,0.8c0.8,0,1.6-0.3,2.4-0.8c0.8-0.5,1.5-1.2,2.1-2.2c0.3-0.5,0.6-0.9,0.8-1.3c0.2-0.4,0.3-0.7,0.3-0.9
			c0-0.1-0.1-0.2-0.2-0.3c-0.1-0.1-0.3-0.2-0.4-0.2c-0.1,0-0.2,0.3-0.5,0.8c-0.3,0.5-0.6,1-0.9,1.4c-0.7,0.9-1.4,1.5-2,2
			c-0.6,0.4-1.2,0.6-1.7,0.6c-0.3,0-0.6-0.1-0.8-0.4c-0.2-0.2-0.3-0.6-0.3-1.1c0-0.8,0.2-1.9,0.7-3.2c0.5-1.3,1.1-2.4,1.9-3.4
			c0.1-0.2,0.3-0.3,0.5-0.5c0.2-0.1,0.3-0.2,0.5-0.2l0.1,0C147.3,52.8,147.2,53.4,146.9,54.1z"/>
		<path class="st3" d="M151.5,57.3c0.2,0.1,0.3,0.1,0.5,0.1c0.8,0,1.6-0.5,2.3-1.6s1.1-2.3,1.1-3.6c0-0.6-0.3-1-0.9-1.1
			c-0.2-0.1-0.4-0.1-0.6-0.2c-0.2-0.1-0.3-0.2-0.5-0.2c-0.1,0-0.3-0.1-0.4-0.1c-0.3,0-0.5,0.1-0.8,0.3c-0.3,0.2-0.5,0.4-0.7,0.8
			c-0.7,1.1-1.3,2.3-1.8,3.6c-0.5,1.4-0.7,2.5-0.7,3.5c0,0.9,0.2,1.6,0.6,2.1c0.4,0.5,1,0.7,1.8,0.7c0.8,0,1.5-0.2,2.2-0.7
			c0.7-0.4,1.4-1.1,2.2-2.1c0.4-0.5,0.8-1.1,1-1.5c0.3-0.5,0.4-0.8,0.4-1c0-0.2-0.1-0.3-0.2-0.4c-0.1-0.1-0.2-0.2-0.3-0.2
			c-0.1,0-0.3,0.2-0.5,0.6c-0.1,0.2-0.2,0.3-0.2,0.4c-0.6,1.1-1.3,2-2.1,2.8c-0.8,0.7-1.5,1.1-2.1,1.1c-0.3,0-0.6-0.2-0.7-0.5
			c-0.2-0.3-0.2-0.8-0.2-1.4c0-0.3,0-0.6,0.1-0.9c0-0.3,0.1-0.6,0.2-0.8C151.1,57.1,151.3,57.3,151.5,57.3z M151.7,56.2
			c-0.1-0.2-0.2-0.4-0.2-0.7c0-0.5,0.2-1.1,0.7-1.8c0.4-0.7,0.8-1.1,1.1-1.1c0.1,0,0.2,0,0.3,0.1c0.1,0.1,0.1,0.2,0.1,0.3
			c0,0.7-0.2,1.5-0.5,2.3c-0.3,0.8-0.7,1.1-1,1.1C151.9,56.5,151.8,56.4,151.7,56.2z"/>
		<path class="st3" d="M168.3,54.1c-0.2,0.7-0.4,1.2-0.4,1.5c0,0.2,0.1,0.4,0.3,0.6c0.2,0.2,0.4,0.3,0.6,0.3c0.4,0,0.8-0.4,1.2-1.2
			c0.4-0.8,0.6-1.5,0.6-2.2c0-0.5-0.1-0.8-0.3-1.1c-0.2-0.3-0.5-0.5-0.8-0.5c-0.2-0.2-0.4-0.3-0.6-0.3c-0.2-0.1-0.4-0.1-0.6-0.1
			c-0.3,0-0.6,0-0.8,0.1c-0.2,0.1-0.5,0.2-0.7,0.4c-0.8,0.8-1.6,2-2.2,3.5c-0.6,1.5-1,2.9-1,4c0,0.9,0.3,1.6,0.8,2.1
			c0.5,0.5,1.2,0.8,2.1,0.8c0.8,0,1.6-0.3,2.4-0.8c0.8-0.5,1.5-1.2,2.1-2.2c0.3-0.5,0.6-0.9,0.8-1.3c0.2-0.4,0.3-0.7,0.3-0.9
			c0-0.1-0.1-0.2-0.2-0.3c-0.1-0.1-0.3-0.2-0.4-0.2c-0.1,0-0.2,0.3-0.5,0.8c-0.3,0.5-0.6,1-0.9,1.4c-0.7,0.9-1.4,1.5-2,2
			c-0.6,0.4-1.2,0.6-1.7,0.6c-0.3,0-0.6-0.1-0.8-0.4c-0.2-0.2-0.3-0.6-0.3-1.1c0-0.8,0.2-1.9,0.7-3.2c0.5-1.3,1.1-2.4,1.9-3.4
			c0.1-0.2,0.3-0.3,0.5-0.5c0.2-0.1,0.3-0.2,0.5-0.2l0.1,0C168.7,52.8,168.6,53.4,168.3,54.1z"/>
		<path class="st3" d="M175,58.8c0,0.1,0,0.2,0,0.4c0,0.6,0.1,1.1,0.4,1.4c0.3,0.3,0.6,0.5,1.1,0.5c0.3,0,0.7-0.1,1-0.3
			c0.3-0.2,0.7-0.6,1-1c0.5-0.6,0.9-1.2,1.2-1.8c0.3-0.6,0.5-1,0.5-1.1c0-0.1-0.1-0.3-0.2-0.5c-0.1-0.2-0.2-0.3-0.3-0.3
			c-0.1,0-0.2,0.1-0.4,0.4c-0.2,0.3-0.3,0.5-0.4,0.7c-0.7,1-1.2,1.6-1.5,1.9c-0.3,0.3-0.5,0.5-0.7,0.5c-0.1,0-0.2,0-0.2-0.1
			c0-0.1-0.1-0.2-0.1-0.3c0-0.3,0.1-0.8,0.3-1.5c0.2-0.7,0.5-1.5,0.9-2.4c0.1-0.3,0.3-0.7,0.6-1.2c0.3-0.6,0.4-0.9,0.4-1.1
			c0-0.2-0.1-0.4-0.4-0.6c-0.2-0.2-0.5-0.2-0.9-0.2c-0.1,0-0.2,0-0.4,0c-0.1,0-0.3,0.1-0.5,0.1c-0.2-0.3-0.5-0.6-0.7-0.7
			c-0.2-0.1-0.5-0.2-0.8-0.2c-0.5,0-1.1,0.3-1.7,0.8c-0.6,0.6-1.2,1.3-1.7,2.3c-0.6,0.9-1,1.8-1.3,2.7c-0.3,0.9-0.4,1.7-0.4,2.4
			c0,0.6,0.1,1,0.4,1.4c0.3,0.4,0.7,0.5,1.2,0.5c0.6,0,1.2-0.3,1.8-0.8c0.6-0.5,1.2-1.2,1.7-2.2C175,58.6,175,58.7,175,58.8z
			 M175.4,55.4c-0.4,1-1,1.9-1.6,2.8c-0.4,0.6-0.8,1.1-1.2,1.4c-0.4,0.4-0.7,0.5-0.9,0.5c-0.1,0-0.1,0-0.2-0.1
			c0-0.1-0.1-0.1-0.1-0.3c0-0.4,0.1-0.9,0.4-1.7c0.3-0.7,0.6-1.5,1-2.3c0.5-0.9,0.9-1.5,1.4-2c0.5-0.5,0.9-0.7,1.2-0.7
			c0.1,0,0.3,0,0.3,0.1c0.1,0.1,0.1,0.2,0.1,0.4C176,53.9,175.8,54.5,175.4,55.4z"/>
		<path class="st3" d="M180,61.7c0.7,0.5,1.2,0.8,1.6,0.8c0.4,0,0.7-0.2,1-0.6c0.3-0.4,0.5-0.9,0.5-1.5c0-0.4-0.2-1.3-0.5-2.5
			s-0.5-2.2-0.5-3c0-1.6,0.4-2.9,1.3-3.9c0.1-0.1,0.1-0.1,0.1-0.2c0-0.2-0.2-0.4-0.6-0.6c-0.4-0.2-0.7-0.4-1-0.4
			c-0.2,0-0.4,0.1-0.5,0.2c-0.1,0.2-0.2,0.4-0.2,0.6c0,0,0,0.1,0,0.2c0,0.1,0,0.1,0,0.2c-0.7,3.4-2,6.3-3.9,8.9
			c-0.2,0.3-0.3,0.4-0.3,0.5c0,0.3,0,0.5,0.1,0.6c0.1,0.1,0.2,0.2,0.3,0.2c0.1,0,0.3-0.1,0.7-0.4c0.1-0.1,0.2-0.1,0.3-0.2
			C178.8,60.9,179.3,61.2,180,61.7z M180.1,58c0.3-0.5,0.5-1,0.6-1.5c0.1,0.6,0.2,1.4,0.4,2.3c0.2,0.9,0.3,1.5,0.3,1.8
			c-0.4-0.1-0.8-0.3-1.2-0.4c-0.4-0.1-0.8-0.3-1.1-0.5C179.5,59.1,179.8,58.5,180.1,58z"/>
		<path class="st3" d="M188.7,58.8c0,0.1,0,0.2,0,0.4c0,0.6,0.1,1.1,0.4,1.4c0.3,0.3,0.6,0.5,1.1,0.5c0.3,0,0.7-0.1,1-0.3
			c0.3-0.2,0.7-0.6,1-1c0.5-0.6,0.9-1.2,1.2-1.8c0.3-0.6,0.5-1,0.5-1.1c0-0.1-0.1-0.3-0.2-0.5c-0.1-0.2-0.2-0.3-0.3-0.3
			c-0.1,0-0.2,0.1-0.4,0.4c-0.2,0.3-0.3,0.5-0.4,0.7c-0.7,1-1.2,1.6-1.5,1.9c-0.3,0.3-0.5,0.5-0.7,0.5c-0.1,0-0.2,0-0.2-0.1
			c0-0.1-0.1-0.2-0.1-0.3c0-0.3,0.1-0.8,0.3-1.5c0.2-0.7,0.5-1.5,0.9-2.4c0.1-0.3,0.3-0.7,0.6-1.2c0.3-0.6,0.4-0.9,0.4-1.1
			c0-0.2-0.1-0.4-0.4-0.6c-0.2-0.2-0.5-0.2-0.9-0.2c-0.1,0-0.2,0-0.4,0c-0.1,0-0.3,0.1-0.5,0.1c-0.2-0.3-0.5-0.6-0.7-0.7
			c-0.2-0.1-0.5-0.2-0.8-0.2c-0.5,0-1.1,0.3-1.7,0.8c-0.6,0.6-1.2,1.3-1.7,2.3c-0.6,0.9-1,1.8-1.3,2.7c-0.3,0.9-0.4,1.7-0.4,2.4
			c0,0.6,0.1,1,0.4,1.4c0.3,0.4,0.7,0.5,1.2,0.5c0.6,0,1.2-0.3,1.8-0.8c0.6-0.5,1.2-1.2,1.7-2.2C188.7,58.6,188.7,58.7,188.7,58.8z
			 M189.1,55.4c-0.4,1-1,1.9-1.6,2.8c-0.4,0.6-0.8,1.1-1.2,1.4c-0.4,0.4-0.7,0.5-0.9,0.5c-0.1,0-0.1,0-0.2-0.1
			c0-0.1-0.1-0.1-0.1-0.3c0-0.4,0.1-0.9,0.4-1.7c0.3-0.7,0.6-1.5,1-2.3c0.5-0.9,0.9-1.5,1.4-2c0.5-0.5,0.9-0.7,1.2-0.7
			c0.1,0,0.3,0,0.3,0.1c0.1,0.1,0.1,0.2,0.1,0.4C189.8,53.9,189.6,54.5,189.1,55.4z"/>
	</g>
	<g>
		<path class="st1" d="M124.6,59.4c-0.5,1-1,1.7-1.5,2.3c-0.6,0.6-1.1,0.9-1.5,0.9c-0.5,0-0.9-0.3-1.3-0.8c-0.4-0.5-0.5-1.2-0.5-1.9
			c0-1,0.3-2.1,0.9-3.4c0.6-1.2,1.3-2.3,2.3-3.3c0.3-0.3,0.5-0.4,0.7-0.6c0.2-0.1,0.4-0.2,0.6-0.2c0.2,0,0.5,0.1,0.8,0.2
			c0.3,0.2,0.6,0.4,0.9,0.7c0.4-1,0.8-2.4,1.4-4c1-3.1,1.8-4.6,2.2-4.6c0.3,0,0.6,0.1,0.9,0.2c0.2,0.1,0.3,0.3,0.3,0.5
			c0,0.2-0.2,0.7-0.6,1.5c-0.3,0.6-0.5,1-0.6,1.4c-1,2.3-1.8,4.5-2.4,6.5c-0.6,2-0.9,3.5-0.9,4.4c0,0.2,0,0.4,0.1,0.5
			c0.1,0.1,0.1,0.2,0.2,0.2c0.2,0,0.4-0.1,0.7-0.4c0.3-0.3,0.6-0.8,1.2-1.6c0.1-0.2,0.2-0.4,0.3-0.6c0.2-0.3,0.3-0.5,0.4-0.5
			c0.1,0,0.2,0,0.2,0.1c0.1,0.1,0.1,0.1,0.1,0.2c0,0.1-0.1,0.3-0.2,0.6c-0.1,0.3-0.3,0.7-0.5,1.1c-0.5,0.9-0.9,1.5-1.3,1.9
			c-0.4,0.4-0.8,0.6-1.3,0.6c-0.4,0-0.8-0.2-1.1-0.5C124.8,60.5,124.6,60,124.6,59.4z M125.6,54c-0.1-0.1-0.2-0.3-0.3-0.3
			c-0.1-0.1-0.2-0.1-0.3-0.1c-0.3,0-0.5,0.2-0.9,0.5c-0.3,0.3-0.7,0.9-1.2,1.6c-0.5,0.8-0.9,1.6-1.2,2.5c-0.3,0.8-0.4,1.6-0.4,2.2
			c0,0.2,0.1,0.4,0.2,0.5s0.2,0.2,0.4,0.2c0.4,0,1-0.7,1.8-2C124.3,57.8,125,56.1,125.6,54z"/>
		<path class="st1" d="M132.8,53L132.8,53c0.3,0,0.4-0.1,0.6-0.1c0.4,0,0.8,0.2,1.1,0.7c0.3,0.5,0.4,1.1,0.4,1.8
			c0.6-0.2,1.1-0.5,1.5-1.1c0.5-0.6,0.8-0.9,0.9-0.9c0.2,0,0.3,0,0.4,0.1c0.1,0.1,0.1,0.2,0.1,0.3c0,0.2,0,0.3-0.1,0.5
			c-0.1,0.2-0.2,0.4-0.4,0.6c-0.4,0.6-0.8,1-1.2,1.3c-0.4,0.3-0.9,0.5-1.3,0.6c-0.5,1.6-1.1,2.9-1.8,3.7c-0.7,0.9-1.6,1.3-2.5,1.3
			c-0.7,0-1.3-0.2-1.7-0.7c-0.4-0.5-0.6-1.1-0.6-1.9c0-0.7,0.2-1.5,0.5-2.5c0.3-1,0.8-1.9,1.4-2.8c0.3-0.5,0.6-0.9,1-1.2
			c0.3-0.3,0.6-0.4,1-0.4c0.2,0,0.4,0,0.6,0.1C132.6,52.7,132.8,52.8,132.8,53z M129.9,59.5c0,0.3,0.1,0.6,0.2,0.7
			c0.1,0.2,0.3,0.2,0.5,0.2c0.6,0,1.2-0.6,1.8-1.8c0.6-1.2,1-2.4,1-3.5c0-0.3-0.1-0.5-0.2-0.7c-0.1-0.2-0.2-0.2-0.4-0.2
			c-0.5,0-1.1,0.6-1.8,1.8C130.3,57.2,129.9,58.4,129.9,59.5z"/>
		<path class="st1" d="M137.1,57.5c-0.1,0-0.2,0-0.2,0c-0.1,0-0.1,0-0.1,0c-0.2,0-0.3-0.1-0.5-0.3c-0.1-0.2-0.2-0.4-0.2-0.6
			c0-0.2,0.2-0.3,0.5-0.3c0.4-0.1,0.7-0.2,0.9-0.5c0.6-2.3,1.3-4.6,1.9-6.7s1.4-4.3,2.2-6.4c0,0,0-0.1,0-0.1c0,0,0-0.1,0-0.2
			c0-0.3,0.2-0.5,0.5-0.8c0.4-0.3,0.7-0.4,1-0.4c0.4,0,0.9,0.2,1.3,0.7c0.5,0.4,0.7,0.8,0.7,1.2c0,0.9-0.6,2.7-1.8,5.3
			c-1.2,2.6-2.7,5.3-4.6,8.1c-0.1,0.4-0.1,0.7-0.1,1c0,0.3,0,0.6,0,0.8c0,0.7,0.1,1.2,0.2,1.5c0.1,0.3,0.3,0.4,0.6,0.4
			c0.3,0,0.6-0.2,0.9-0.5c0.3-0.4,0.8-0.9,1.3-1.7c0.2-0.3,0.4-0.7,0.6-1.1c0.2-0.4,0.4-0.7,0.5-0.7c0.1,0,0.2,0.1,0.4,0.2
			c0.2,0.2,0.3,0.3,0.3,0.4c0,0,0,0,0,0.1c0,0,0,0.1-0.1,0.2c-0.6,1.2-1.1,2-1.4,2.5c-0.3,0.5-0.6,0.9-0.9,1.1
			c-0.3,0.3-0.7,0.6-1,0.7c-0.3,0.1-0.6,0.2-1,0.2c-0.6,0-1.1-0.3-1.6-0.9c-0.5-0.6-0.7-1.2-0.7-1.9c0-0.3,0-0.5,0-0.7
			C137,58,137.1,57.7,137.1,57.5z M139.2,54.7c1.3-2.5,2.4-4.9,3.3-7.1c0.9-2.2,1.3-3.6,1.3-4.2c0-0.1,0-0.2-0.1-0.3
			c-0.1-0.1-0.1-0.1-0.2-0.1c0,0-0.1,0-0.2,0c0,0-0.1,0-0.1,0c-0.9,2.2-1.6,4.3-2.3,6.2C140.2,51.3,139.6,53.1,139.2,54.7z"/>
		<path class="st1" d="M147.4,52.5l-0.1,0c-0.1,0-0.3,0.1-0.5,0.2c-0.2,0.1-0.3,0.3-0.5,0.5c-0.7,1-1.4,2.1-1.9,3.4
			s-0.7,2.3-0.7,3.2c0,0.5,0.1,0.9,0.3,1.1c0.2,0.2,0.4,0.4,0.8,0.4c0.6,0,1.1-0.2,1.7-0.6c0.6-0.4,1.3-1.1,2-2
			c0.3-0.4,0.6-0.9,0.9-1.4c0.3-0.5,0.5-0.8,0.5-0.8c0.1,0,0.2,0.1,0.4,0.2c0.1,0.1,0.2,0.2,0.2,0.3c0,0.2-0.1,0.5-0.3,0.9
			c-0.2,0.4-0.4,0.8-0.8,1.3c-0.6,1-1.3,1.7-2.1,2.2c-0.8,0.5-1.6,0.8-2.4,0.8c-0.9,0-1.6-0.3-2.1-0.8c-0.5-0.5-0.8-1.2-0.8-2.1
			c0-1.2,0.3-2.5,1-4c0.6-1.5,1.4-2.7,2.2-3.5c0.2-0.2,0.4-0.4,0.7-0.4c0.2-0.1,0.5-0.1,0.8-0.1c0.2,0,0.4,0,0.6,0.1
			c0.2,0.1,0.4,0.2,0.6,0.3c0.3,0.1,0.6,0.2,0.8,0.5c0.2,0.3,0.3,0.7,0.3,1.1c0,0.7-0.2,1.5-0.6,2.2c-0.4,0.8-0.8,1.2-1.2,1.2
			c-0.2,0-0.4-0.1-0.6-0.3c-0.2-0.2-0.3-0.4-0.3-0.6c0-0.3,0.1-0.8,0.4-1.5C147.2,53.4,147.3,52.8,147.4,52.5z"/>
		<path class="st1" d="M151,57c-0.1,0.3-0.1,0.5-0.2,0.8c0,0.3-0.1,0.6-0.1,0.9c0,0.6,0.1,1,0.2,1.4c0.2,0.3,0.4,0.5,0.7,0.5
			c0.6,0,1.3-0.4,2.1-1.1c0.8-0.7,1.5-1.7,2.1-2.8c0.1-0.1,0.1-0.2,0.2-0.4c0.2-0.4,0.4-0.6,0.5-0.6c0.1,0,0.2,0.1,0.3,0.2
			c0.1,0.1,0.2,0.3,0.2,0.4c0,0.2-0.1,0.6-0.4,1c-0.3,0.5-0.6,1-1,1.5c-0.8,1-1.5,1.7-2.2,2.1c-0.7,0.4-1.4,0.6-2.2,0.6
			c-0.8,0-1.4-0.2-1.8-0.7c-0.4-0.5-0.6-1.2-0.6-2.1c0-1,0.2-2.2,0.7-3.5c0.5-1.4,1.1-2.6,1.8-3.6c0.2-0.3,0.5-0.6,0.7-0.8
			c0.3-0.2,0.5-0.3,0.8-0.3c0.1,0,0.3,0,0.4,0.1c0.1,0,0.3,0.1,0.5,0.2c0.1,0,0.3,0.1,0.6,0.2c0.6,0.2,0.9,0.5,0.9,1.1
			c0,1.3-0.4,2.5-1.1,3.6c-0.7,1.1-1.5,1.6-2.3,1.6c-0.2,0-0.3,0-0.5-0.1C151.3,57.3,151.1,57.1,151,57z M152.1,56.5
			c0.3,0,0.7-0.4,1-1.1c0.3-0.8,0.5-1.5,0.5-2.3c0-0.1,0-0.2-0.1-0.3c-0.1-0.1-0.2-0.1-0.3-0.1c-0.3,0-0.7,0.4-1.1,1.1
			c-0.4,0.7-0.7,1.3-0.7,1.8c0,0.3,0.1,0.5,0.2,0.7S151.9,56.5,152.1,56.5z"/>
		<path class="st1" d="M168.8,52.5l-0.1,0c-0.1,0-0.3,0.1-0.5,0.2c-0.2,0.1-0.3,0.3-0.5,0.5c-0.7,1-1.4,2.1-1.9,3.4
			c-0.5,1.3-0.7,2.3-0.7,3.2c0,0.5,0.1,0.9,0.3,1.1c0.2,0.2,0.4,0.4,0.8,0.4c0.6,0,1.1-0.2,1.7-0.6c0.6-0.4,1.3-1.1,2-2
			c0.3-0.4,0.6-0.9,0.9-1.4c0.3-0.5,0.5-0.8,0.5-0.8c0.1,0,0.2,0.1,0.4,0.2c0.1,0.1,0.2,0.2,0.2,0.3c0,0.2-0.1,0.5-0.3,0.9
			c-0.2,0.4-0.4,0.8-0.8,1.3c-0.6,1-1.3,1.7-2.1,2.2c-0.8,0.5-1.6,0.8-2.4,0.8c-0.9,0-1.6-0.3-2.1-0.8c-0.5-0.5-0.8-1.2-0.8-2.1
			c0-1.2,0.3-2.5,1-4c0.6-1.5,1.4-2.7,2.2-3.5c0.2-0.2,0.4-0.4,0.7-0.4c0.2-0.1,0.5-0.1,0.8-0.1c0.2,0,0.4,0,0.6,0.1
			c0.2,0.1,0.4,0.2,0.6,0.3c0.3,0.1,0.6,0.2,0.8,0.5c0.2,0.3,0.3,0.7,0.3,1.1c0,0.7-0.2,1.5-0.6,2.2c-0.4,0.8-0.8,1.2-1.2,1.2
			c-0.2,0-0.4-0.1-0.6-0.3c-0.2-0.2-0.3-0.4-0.3-0.6c0-0.3,0.1-0.8,0.4-1.5C168.6,53.4,168.7,52.8,168.8,52.5z"/>
		<path class="st1" d="M175,58.6c-0.5,1-1.1,1.7-1.7,2.2c-0.6,0.5-1.2,0.8-1.8,0.8c-0.5,0-0.9-0.2-1.2-0.5c-0.3-0.4-0.4-0.8-0.4-1.4
			c0-0.7,0.1-1.5,0.4-2.4c0.3-0.9,0.7-1.8,1.3-2.7c0.5-1,1.1-1.7,1.7-2.3c0.6-0.6,1.2-0.8,1.7-0.8c0.3,0,0.5,0.1,0.8,0.2
			c0.2,0.1,0.5,0.4,0.7,0.7c0.2-0.1,0.4-0.1,0.5-0.1c0.1,0,0.2,0,0.4,0c0.4,0,0.7,0.1,0.9,0.2s0.4,0.4,0.4,0.6
			c0,0.1-0.1,0.5-0.4,1.1c-0.2,0.5-0.4,0.9-0.6,1.2c-0.4,0.9-0.7,1.7-0.9,2.4c-0.2,0.7-0.3,1.2-0.3,1.5c0,0.2,0,0.3,0.1,0.3
			c0,0.1,0.1,0.1,0.2,0.1c0.2,0,0.4-0.2,0.7-0.5c0.3-0.3,0.8-1,1.5-1.9c0.1-0.2,0.3-0.4,0.4-0.7c0.2-0.3,0.3-0.4,0.4-0.4
			c0.1,0,0.2,0.1,0.3,0.3c0.1,0.2,0.2,0.3,0.2,0.5c0,0.2-0.2,0.5-0.5,1.1c-0.3,0.6-0.7,1.2-1.2,1.8c-0.4,0.5-0.7,0.8-1,1
			c-0.3,0.2-0.6,0.3-1,0.3c-0.5,0-0.8-0.2-1.1-0.5c-0.3-0.3-0.4-0.8-0.4-1.4c0-0.2,0-0.3,0-0.4C175,58.7,175,58.6,175,58.6z
			 M176,53.6c0-0.1,0-0.3-0.1-0.4c-0.1-0.1-0.2-0.1-0.3-0.1c-0.4,0-0.8,0.2-1.2,0.7c-0.5,0.5-0.9,1.1-1.4,2c-0.4,0.8-0.8,1.6-1,2.3
			c-0.3,0.7-0.4,1.3-0.4,1.7c0,0.1,0,0.2,0.1,0.3c0,0.1,0.1,0.1,0.2,0.1c0.2,0,0.5-0.2,0.9-0.5c0.4-0.4,0.8-0.8,1.2-1.4
			c0.6-0.9,1.1-1.9,1.6-2.8C175.8,54.5,176,53.9,176,53.6z"/>
		<path class="st1" d="M178.4,60.7c-0.1,0-0.2,0.1-0.3,0.2c-0.4,0.3-0.6,0.4-0.7,0.4c-0.1,0-0.2-0.1-0.3-0.2
			c-0.1-0.1-0.1-0.3-0.1-0.6c0,0,0.1-0.2,0.3-0.5c1.8-2.6,3.1-5.5,3.9-8.9c0,0,0-0.1,0-0.2c0-0.1,0-0.1,0-0.2c0-0.3,0.1-0.5,0.2-0.6
			c0.1-0.2,0.3-0.2,0.5-0.2c0.3,0,0.6,0.1,1,0.4s0.6,0.4,0.6,0.6c0,0,0,0.1-0.1,0.2c-0.8,1.1-1.3,2.4-1.3,3.9c0,0.8,0.2,1.8,0.5,3
			c0.3,1.2,0.5,2.1,0.5,2.5c0,0.6-0.2,1.1-0.5,1.5c-0.3,0.4-0.7,0.6-1,0.6c-0.3,0-0.9-0.3-1.6-0.8C179.3,61.2,178.8,60.9,178.4,60.7
			z M179.1,59.7c0.3,0.2,0.7,0.3,1.1,0.5c0.4,0.1,0.8,0.3,1.2,0.4c0-0.3-0.1-0.9-0.3-1.8c-0.2-0.9-0.3-1.7-0.4-2.3
			c-0.2,0.5-0.4,1-0.6,1.5C179.8,58.5,179.5,59.1,179.1,59.7z"/>
		<path class="st1" d="M188.8,58.6c-0.5,1-1.1,1.7-1.7,2.2c-0.6,0.5-1.2,0.8-1.8,0.8c-0.5,0-0.9-0.2-1.2-0.5
			c-0.3-0.4-0.4-0.8-0.4-1.4c0-0.7,0.1-1.5,0.4-2.4c0.3-0.9,0.7-1.8,1.3-2.7c0.5-1,1.1-1.7,1.7-2.3c0.6-0.6,1.2-0.8,1.7-0.8
			c0.3,0,0.5,0.1,0.8,0.2c0.2,0.1,0.5,0.4,0.7,0.7c0.2-0.1,0.4-0.1,0.5-0.1c0.1,0,0.2,0,0.4,0c0.4,0,0.7,0.1,0.9,0.2
			c0.2,0.2,0.4,0.4,0.4,0.6c0,0.1-0.1,0.5-0.4,1.1c-0.2,0.5-0.4,0.9-0.6,1.2c-0.4,0.9-0.7,1.7-0.9,2.4c-0.2,0.7-0.3,1.2-0.3,1.5
			c0,0.2,0,0.3,0.1,0.3s0.1,0.1,0.2,0.1c0.2,0,0.4-0.2,0.7-0.5c0.3-0.3,0.8-1,1.5-1.9c0.1-0.2,0.3-0.4,0.4-0.7
			c0.2-0.3,0.3-0.4,0.4-0.4c0.1,0,0.2,0.1,0.3,0.3c0.1,0.2,0.2,0.3,0.2,0.5c0,0.2-0.2,0.5-0.5,1.1c-0.3,0.6-0.7,1.2-1.2,1.8
			c-0.4,0.5-0.7,0.8-1,1c-0.3,0.2-0.6,0.3-1,0.3c-0.5,0-0.8-0.2-1.1-0.5c-0.3-0.3-0.4-0.8-0.4-1.4c0-0.2,0-0.3,0-0.4
			C188.7,58.7,188.7,58.6,188.8,58.6z M189.8,53.6c0-0.1,0-0.3-0.1-0.4c-0.1-0.1-0.2-0.1-0.3-0.1c-0.4,0-0.8,0.2-1.2,0.7
			c-0.5,0.5-0.9,1.1-1.4,2c-0.4,0.8-0.8,1.6-1,2.3c-0.3,0.7-0.4,1.3-0.4,1.7c0,0.1,0,0.2,0.1,0.3c0,0.1,0.1,0.1,0.2,0.1
			c0.2,0,0.5-0.2,0.9-0.5c0.4-0.4,0.8-0.8,1.2-1.4c0.6-0.9,1.1-1.9,1.6-2.8C189.6,54.5,189.8,53.9,189.8,53.6z"/>
	</g>
	<g>
		<polygon class="st1" points="198.6,65.3 112.2,65.3 112.2,61.4 113.2,61.4 113.2,64.3 197.6,64.3 197.6,47.3 145.3,47.3 
			145.3,46.3 198.6,46.3 		"/>
	</g>
	<g>
		<path class="st0" d="M67.5,1.8h12.7l6.5,57.1h-8.6l-1.6-15.5h-6l-1.8,15.5H61L67.5,1.8z M75.7,35.9L74,12.2h-0.6l-2.1,23.7H75.7z"
			/>
		<path class="st0" d="M95.9,49.6c0,2.9,0.9,3.5,2.6,3.5c1.7,0,2.6-0.6,2.6-3.5v-6c0-8-13.7-15.9-13.7-25.2v-8.2
			c0-7.5,5.9-9.6,11.1-9.6c5.3,0,11.1,2.2,11.1,9.6v12h-8.5V11c0-2.9-0.9-3.5-2.6-3.5c-1.8,0-2.6,0.6-2.6,3.5v7.1
			c0,4.1,13.7,16.4,13.7,22.2v10.1c0,7.5-5.9,9.6-11.1,9.6c-5.2,0-11.1-2.2-11.1-9.6V37.2h8.5V49.6z"/>
	</g>
	<g>
		<path class="st1" d="M9,33.2c1.2-0.3,2.4-0.4,3.4-0.6c1.1-0.1,2.1-0.2,3-0.2c0.6,0,1,0.1,1.2,0.2c0.2,0.1,0.4,0.4,0.4,0.7
			c0,0.3-0.4,0.5-1.1,0.6C15.5,34,15.2,34,15,34c-1.5,0.2-3,0.5-4.7,0.9c-1.6,0.4-2.5,0.6-2.7,0.6c-0.4,0-0.6-0.1-0.8-0.4
			c-0.2-0.2-0.3-0.6-0.3-1.1c0-0.6,0.4-2.5,1.3-5.7s2-6.8,3.3-10.7c0-0.1,0.1-0.2,0.1-0.3c0.4-1.2,1-1.8,1.6-1.8
			c0.6,0,1.1,0.1,1.5,0.2c0.4,0.1,0.6,0.3,0.6,0.6c0,0.2-0.2,0.5-0.5,1l0,0.1c-1.4,3.3-2.6,6.4-3.6,9.2C10,29.3,9.3,31.5,9,33.2z"/>
		<path class="st1" d="M22.6,32.7c-0.5,0.9-1.1,1.7-1.7,2.2c-0.6,0.5-1.2,0.8-1.8,0.8c-0.5,0-0.9-0.2-1.2-0.5
			c-0.3-0.4-0.4-0.8-0.4-1.4c0-0.7,0.1-1.5,0.4-2.4c0.3-0.9,0.7-1.8,1.3-2.7c0.5-1,1.1-1.7,1.7-2.3c0.6-0.6,1.2-0.8,1.7-0.8
			c0.3,0,0.5,0.1,0.8,0.2c0.2,0.1,0.5,0.4,0.7,0.7c0.2-0.1,0.4-0.1,0.5-0.1c0.1,0,0.2,0,0.4,0c0.4,0,0.7,0.1,0.9,0.2
			c0.2,0.2,0.4,0.4,0.4,0.6c0,0.1-0.1,0.5-0.4,1.1c-0.2,0.5-0.4,0.9-0.6,1.2c-0.4,0.9-0.7,1.7-0.9,2.4C24.1,32.5,24,33,24,33.3
			c0,0.2,0,0.3,0.1,0.3c0,0.1,0.1,0.1,0.2,0.1c0.2,0,0.4-0.2,0.7-0.5c0.3-0.3,0.8-1,1.5-1.9c0.1-0.2,0.3-0.4,0.4-0.7
			c0.2-0.3,0.3-0.4,0.4-0.4c0.1,0,0.2,0.1,0.3,0.3c0.1,0.2,0.2,0.3,0.2,0.5c0,0.2-0.2,0.5-0.5,1.1c-0.3,0.6-0.7,1.2-1.2,1.8
			c-0.4,0.5-0.7,0.8-1,1c-0.3,0.2-0.6,0.3-1,0.3c-0.5,0-0.8-0.2-1.1-0.5c-0.3-0.3-0.4-0.8-0.4-1.4c0-0.2,0-0.3,0-0.4
			C22.6,32.8,22.6,32.8,22.6,32.7z M23.6,27.8c0-0.1,0-0.3-0.1-0.4c-0.1-0.1-0.2-0.1-0.3-0.1c-0.4,0-0.8,0.2-1.2,0.7
			c-0.5,0.5-0.9,1.1-1.4,2c-0.4,0.8-0.8,1.6-1,2.3c-0.3,0.7-0.4,1.3-0.4,1.7c0,0.1,0,0.2,0.1,0.3c0,0.1,0.1,0.1,0.2,0.1
			c0.2,0,0.5-0.2,0.9-0.5c0.4-0.4,0.8-0.8,1.2-1.4c0.6-0.9,1.1-1.9,1.6-2.8C23.4,28.6,23.6,28,23.6,27.8z"/>
		<path class="st1" d="M42.8,34.1c-0.2-0.2-0.3-0.3-0.4-0.5c-0.1-0.2-0.1-0.4-0.1-0.6c0-0.5,0.4-1.8,1.2-4.1l0.1-0.3
			c-0.5,0.9-1.1,2-1.9,3.4c-1.1,2-1.9,3-2.4,3c-0.3,0-0.5-0.1-0.7-0.3c-0.2-0.2-0.3-0.4-0.3-0.7c0-0.3,0.2-1.4,0.6-3.1
			c0.1-0.4,0.2-0.7,0.2-0.9c-0.6,1-1.3,2.2-2,3.6c-0.6,1.3-1.2,1.9-1.6,1.9c-0.5,0-0.9-0.1-1.1-0.3s-0.3-0.6-0.3-1
			c0-0.3,0.3-1.3,0.8-3c0.4-1.2,0.7-2.2,0.9-2.9c0.2-0.8,0.4-1.2,0.5-1.4c0.1-0.2,0.3-0.3,0.6-0.3c0.3,0,0.6,0.1,0.8,0.4
			c0.3,0.2,0.4,0.5,0.4,0.8c0,0.2-0.1,0.4-0.4,0.6c-0.2,0.3-0.4,0.5-0.5,0.7c-0.1,0.3-0.4,0.9-0.7,1.8c-0.3,1-0.6,2.1-0.9,3.3
			c1.4-2.7,2.5-4.5,3.3-5.5c0.7-1,1.3-1.6,1.7-1.6c0.2,0,0.4,0.1,0.5,0.2c0.1,0.2,0.2,0.4,0.3,0.7l-0.3,0.5
			c-0.3,0.7-0.5,1.5-0.7,2.3c-0.2,0.8-0.4,1.6-0.5,2.5c1.3-2.5,2.4-4.4,3.2-5.6c0.8-1.2,1.4-1.8,1.8-1.8c0.1,0,0.3,0.1,0.4,0.2
			c0.1,0.1,0.2,0.3,0.3,0.5c0.1,0.1,0.2,0.2,0.3,0.3c0.1,0.1,0.1,0.2,0.1,0.3c0,0.1,0,0.2-0.1,0.3c-0.1,0.1-0.2,0.4-0.4,0.7
			c-0.5,0.8-0.9,1.6-1.3,2.6c-0.3,1-0.5,1.7-0.5,2.1c0,0.2,0,0.4,0.1,0.5c0.1,0.1,0.2,0.2,0.3,0.2c0.2,0,0.5-0.1,0.8-0.4
			c0.3-0.3,0.7-0.9,1.2-1.9c0.2-0.3,0.4-0.6,0.5-1c0.2-0.4,0.3-0.5,0.3-0.5c0.1,0,0.3,0.1,0.5,0.3c0.2,0.2,0.3,0.3,0.3,0.5
			c0,0.2-0.1,0.5-0.3,0.9c-0.2,0.4-0.5,0.9-0.8,1.5c-0.5,0.7-0.9,1.3-1.3,1.6c-0.4,0.3-0.8,0.5-1.1,0.5c-0.2,0-0.4-0.1-0.6-0.2
			C43.2,34.7,43,34.4,42.8,34.1z"/>
		<path class="st1" d="M47.9,35.4c-0.6,0-1-0.2-1.3-0.7c-0.3-0.5-0.5-1.1-0.5-1.9c0-0.9,0.2-2,0.5-3.3c0.3-1.2,0.6-2.1,0.9-2.5
			c0.1-0.2,0.3-0.4,0.6-0.5c0.3-0.1,0.6-0.2,0.9-0.2c0.2,0,0.3,0,0.4,0.1c0.1,0.1,0.2,0.2,0.2,0.4c0,0.1-0.1,0.3-0.2,0.7
			c-0.1,0.3-0.2,0.5-0.2,0.6L49,28.8c-0.9,2.4-1.3,3.9-1.3,4.6c0,0.2,0,0.4,0.1,0.5C47.9,34,48,34,48.2,34c0.3,0,0.7-0.3,1.2-0.8
			c0.5-0.5,1-1.2,1.5-2c0.1-0.1,0.2-0.3,0.3-0.5c0.2-0.3,0.3-0.5,0.4-0.5c0.1,0,0.3,0.1,0.4,0.2c0.1,0.1,0.2,0.3,0.2,0.4
			c0,0.1-0.2,0.4-0.5,1c-0.2,0.3-0.3,0.5-0.4,0.7c-0.6,1-1.2,1.8-1.7,2.2C49,35.2,48.5,35.4,47.9,35.4z M49.2,25.6
			c-0.3,0-0.6-0.1-0.8-0.3c-0.2-0.2-0.3-0.4-0.3-0.7c0-0.4,0.2-0.7,0.6-1c0.4-0.3,0.8-0.4,1.3-0.4c0.3,0,0.5,0.1,0.6,0.2
			s0.2,0.3,0.2,0.6c0,0.4-0.2,0.7-0.5,1C49.9,25.4,49.6,25.6,49.2,25.6z"/>
		<path class="st1" d="M55.1,32.7c-0.5,0.9-1.1,1.7-1.7,2.2c-0.6,0.5-1.2,0.8-1.8,0.8c-0.5,0-0.9-0.2-1.2-0.5
			c-0.3-0.4-0.4-0.8-0.4-1.4c0-0.7,0.1-1.5,0.4-2.4c0.3-0.9,0.7-1.8,1.3-2.7c0.5-1,1.1-1.7,1.7-2.3c0.6-0.6,1.2-0.8,1.7-0.8
			c0.3,0,0.5,0.1,0.8,0.2c0.2,0.1,0.5,0.4,0.7,0.7c0.2-0.1,0.4-0.1,0.5-0.1c0.1,0,0.2,0,0.4,0c0.4,0,0.7,0.1,0.9,0.2
			c0.2,0.2,0.4,0.4,0.4,0.6c0,0.1-0.1,0.5-0.4,1.1c-0.2,0.5-0.4,0.9-0.6,1.2c-0.4,0.9-0.7,1.7-0.9,2.4c-0.2,0.7-0.3,1.2-0.3,1.5
			c0,0.2,0,0.3,0.1,0.3c0,0.1,0.1,0.1,0.2,0.1c0.2,0,0.4-0.2,0.7-0.5c0.3-0.3,0.8-1,1.5-1.9c0.1-0.2,0.3-0.4,0.4-0.7
			c0.2-0.3,0.3-0.4,0.4-0.4c0.1,0,0.2,0.1,0.3,0.3c0.1,0.2,0.2,0.3,0.2,0.5c0,0.2-0.2,0.5-0.5,1.1c-0.3,0.6-0.7,1.2-1.2,1.8
			c-0.4,0.5-0.7,0.8-1,1c-0.3,0.2-0.6,0.3-1,0.3c-0.5,0-0.8-0.2-1.1-0.5c-0.3-0.3-0.4-0.8-0.4-1.4c0-0.2,0-0.3,0-0.4
			C55.1,32.8,55.1,32.8,55.1,32.7z M56.2,27.8c0-0.1,0-0.3-0.1-0.4c-0.1-0.1-0.2-0.1-0.3-0.1c-0.4,0-0.8,0.2-1.2,0.7
			c-0.5,0.5-0.9,1.1-1.4,2c-0.4,0.8-0.8,1.6-1,2.3c-0.3,0.7-0.4,1.3-0.4,1.7c0,0.1,0,0.2,0.1,0.3c0,0.1,0.1,0.1,0.2,0.1
			c0.2,0,0.5-0.2,0.9-0.5c0.4-0.4,0.8-0.8,1.2-1.4c0.6-0.9,1.1-1.9,1.6-2.8C56,28.6,56.2,28,56.2,27.8z"/>
	</g>
</g>
</svg>
