<?xml version="1.0" encoding="utf-8"?>
<!-- Generator: Adobe Illustrator 24.0.1, SVG Export Plug-In . SVG Version: 6.00 Build 0)  -->
<svg version="1.1" id="Livello_1" xmlns="http://www.w3.org/2000/svg" xmlns:xlink="http://www.w3.org/1999/xlink" x="0px" y="0px"
	 viewBox="0 0 200 61" style="enable-background:new 0 0 200 61;" xml:space="preserve">
<style type="text/css">
	.st0{fill:#288F7C;}
	.st1{fill:#1D1D1B;}
	.st2{fill:#E5007E;}
	.st3{fill:none;stroke:#1D1D1B;stroke-width:1.125;}
</style>
<g>
	<g>
		<path class="st0" d="M146.8,0.6h5.5l-7,59.9h-8l-7-59.9h5.5l5.4,54.4h0.2L146.8,0.6z"/>
		<path class="st0" d="M153,0.6h5.5v59.9H153V0.6z"/>
		<path class="st0" d="M166.6,5.2h-6.1V0.6h17.8v4.6H172v55.2h-5.5V5.2z"/>
		<path class="st0" d="M192.3,43.9h-9.6l-2.2,16.6h-5.5l8.8-59.9h7.5l8.8,59.9h-5.5L192.3,43.9z M187.6,4.7h-0.2l-4.1,34.5h8.5
			L187.6,4.7z"/>
	</g>
	<g>
		<path class="st1" d="M2.4,43.8V44c0,0,0,0,0,0c0,0.1,0,0.2,0,0.3c0,0.2-0.1,0.3-0.2,0.4c-0.1,0.1-0.3,0.1-0.5,0.1
			c-0.5,0-0.9-0.1-1.1-0.2c-0.2-0.2-0.4-0.4-0.4-0.8c0-0.4,0.3-1.8,1-4.2c0.7-2.4,1.6-5.3,2.7-8.7c0-0.1,0.1-0.4,0.2-0.7
			C5,27.4,5.9,26,6.7,26c0.2,0,0.4,0.1,0.7,0.3c0.3,0.2,0.4,0.5,0.4,0.7c0,0.1-0.2,0.5-0.5,1.2C5.4,33,3.8,38.2,2.4,43.8z"/>
		<path class="st1" d="M5.7,41.3c-0.1,0-0.2,0-0.2,0c0,0-0.1,0-0.1,0c-0.2,0-0.3-0.1-0.4-0.3c-0.1-0.2-0.2-0.4-0.2-0.6
			c0-0.1,0.2-0.2,0.5-0.3c0.3,0,0.6-0.2,0.8-0.4c0.6-2.1,1.2-4.2,1.8-6.3c0.6-2,1.3-4,2-5.9c0,0,0-0.1,0-0.1c0,0,0-0.1,0-0.2
			c0-0.2,0.2-0.5,0.5-0.7c0.3-0.2,0.7-0.3,1-0.3c0.4,0,0.8,0.2,1.2,0.6c0.4,0.4,0.6,0.8,0.6,1.1c0,0.9-0.5,2.5-1.6,5s-2.5,5-4.2,7.6
			c-0.1,0.3-0.1,0.6-0.1,0.9c0,0.3,0,0.5,0,0.7c0,0.7,0.1,1.1,0.2,1.4C7.5,43.9,7.7,44,7.9,44c0.3,0,0.6-0.2,0.9-0.5
			c0.3-0.3,0.7-0.9,1.2-1.6c0.2-0.3,0.4-0.6,0.6-1.1c0.2-0.4,0.4-0.6,0.4-0.6c0.1,0,0.2,0.1,0.4,0.2c0.2,0.1,0.3,0.3,0.3,0.4
			c0,0,0,0,0,0.1c0,0,0,0.1-0.1,0.2c-0.6,1.1-1,1.9-1.3,2.3c-0.3,0.4-0.6,0.8-0.8,1.1c-0.3,0.3-0.6,0.5-0.9,0.7
			c-0.3,0.1-0.6,0.2-0.9,0.2c-0.5,0-1-0.3-1.5-0.8c-0.4-0.5-0.7-1.1-0.7-1.8c0-0.2,0-0.5,0-0.7C5.6,41.7,5.6,41.5,5.7,41.3z
			 M7.6,38.7c1.2-2.3,2.3-4.5,3.1-6.6c0.8-2,1.2-3.4,1.2-3.9c0-0.1,0-0.2-0.1-0.2c0-0.1-0.1-0.1-0.2-0.1c0,0-0.1,0-0.2,0
			c0,0-0.1,0-0.1,0c-0.8,2.1-1.5,4-2.2,5.8C8.6,35.5,8,37.2,7.6,38.7z"/>
		<path class="st1" d="M22.4,43.7c-0.2-0.2-0.3-0.3-0.4-0.5c-0.1-0.2-0.1-0.4-0.1-0.6c0-0.4,0.4-1.7,1.1-3.8l0.1-0.2
			c-0.5,0.8-1.1,1.9-1.7,3.2c-1,1.9-1.7,2.8-2.2,2.8c-0.3,0-0.5-0.1-0.7-0.2c-0.2-0.2-0.2-0.4-0.2-0.7c0-0.3,0.2-1.3,0.6-2.9
			c0.1-0.4,0.1-0.6,0.2-0.8c-0.6,0.9-1.2,2-1.9,3.3C16.5,44.4,16,45,15.7,45c-0.5,0-0.8-0.1-1-0.3c-0.2-0.2-0.3-0.5-0.3-1
			c0-0.3,0.2-1.2,0.7-2.8c0.3-1.1,0.6-2,0.8-2.7c0.2-0.7,0.4-1.1,0.5-1.3c0.1-0.2,0.3-0.3,0.5-0.3c0.3,0,0.5,0.1,0.8,0.3
			c0.2,0.2,0.3,0.5,0.3,0.8c0,0.2-0.1,0.4-0.3,0.6c-0.2,0.2-0.4,0.5-0.5,0.6c-0.1,0.2-0.3,0.8-0.6,1.7c-0.3,0.9-0.6,1.9-0.8,3.1
			c1.3-2.5,2.4-4.2,3-5.2c0.7-1,1.2-1.5,1.6-1.5c0.2,0,0.3,0.1,0.5,0.2c0.1,0.2,0.2,0.4,0.2,0.6l-0.2,0.4c-0.2,0.7-0.5,1.4-0.6,2.1
			c-0.2,0.7-0.3,1.5-0.5,2.3c1.2-2.4,2.2-4.1,3-5.2c0.8-1.1,1.3-1.7,1.7-1.7c0.1,0,0.2,0.1,0.3,0.2c0.1,0.1,0.2,0.3,0.3,0.5
			c0.1,0.1,0.2,0.2,0.3,0.3c0.1,0.1,0.1,0.2,0.1,0.3c0,0.1,0,0.2-0.1,0.3c-0.1,0.1-0.2,0.3-0.4,0.7c-0.5,0.7-0.8,1.5-1.2,2.4
			c-0.3,0.9-0.5,1.6-0.5,2c0,0.2,0,0.4,0.1,0.5c0.1,0.1,0.2,0.2,0.3,0.2c0.2,0,0.5-0.1,0.7-0.4c0.2-0.3,0.6-0.9,1.1-1.7
			c0.2-0.3,0.3-0.6,0.5-0.9c0.2-0.3,0.3-0.5,0.3-0.5c0.1,0,0.3,0.1,0.4,0.3c0.2,0.2,0.3,0.3,0.3,0.5c0,0.1-0.1,0.4-0.3,0.8
			c-0.2,0.4-0.5,0.9-0.8,1.4c-0.4,0.7-0.8,1.2-1.2,1.5c-0.4,0.3-0.7,0.5-1,0.5c-0.2,0-0.4-0.1-0.6-0.2
			C22.8,44.2,22.6,43.9,22.4,43.7z"/>
		<path class="st1" d="M27.2,44.9c-0.5,0-0.9-0.2-1.2-0.7c-0.3-0.4-0.5-1-0.5-1.8c0-0.9,0.1-1.9,0.4-3c0.3-1.1,0.6-1.9,0.9-2.3
			c0.1-0.2,0.3-0.3,0.6-0.4c0.3-0.1,0.5-0.2,0.8-0.2c0.2,0,0.3,0,0.4,0.1c0.1,0.1,0.2,0.2,0.2,0.4c0,0.1-0.1,0.3-0.2,0.6
			c-0.1,0.2-0.2,0.4-0.2,0.6l-0.2,0.5c-0.8,2.3-1.2,3.7-1.2,4.3c0,0.2,0,0.4,0.1,0.5c0.1,0.1,0.2,0.2,0.4,0.2c0.3,0,0.6-0.2,1.1-0.7
			c0.5-0.5,0.9-1.1,1.4-1.9c0.1-0.1,0.1-0.3,0.2-0.5c0.2-0.3,0.3-0.5,0.4-0.5c0.1,0,0.2,0.1,0.4,0.2s0.2,0.2,0.2,0.4
			c0,0.1-0.2,0.4-0.5,1c-0.2,0.3-0.3,0.5-0.4,0.7c-0.6,1-1.1,1.6-1.5,2C28.2,44.7,27.7,44.9,27.2,44.9z M28.3,35.7
			c-0.3,0-0.5-0.1-0.7-0.2c-0.2-0.2-0.3-0.4-0.3-0.6c0-0.4,0.2-0.7,0.6-0.9s0.8-0.4,1.2-0.4c0.3,0,0.5,0.1,0.6,0.2
			c0.1,0.1,0.2,0.3,0.2,0.6c0,0.3-0.2,0.7-0.5,1C29.1,35.5,28.7,35.7,28.3,35.7z"/>
		<path class="st1" d="M34,37.1L34,37.1c0.2,0,0.4-0.1,0.5-0.1c0.4,0,0.8,0.2,1,0.6c0.3,0.4,0.4,1,0.4,1.7c0.5-0.2,1-0.5,1.4-1
			c0.4-0.5,0.7-0.8,0.8-0.8c0.1,0,0.3,0,0.3,0.1c0.1,0.1,0.1,0.2,0.1,0.3c0,0.2,0,0.3-0.1,0.5c-0.1,0.2-0.2,0.3-0.4,0.5
			c-0.4,0.5-0.7,0.9-1.1,1.2c-0.4,0.3-0.8,0.5-1.3,0.6c-0.4,1.5-1,2.7-1.7,3.5c-0.7,0.8-1.5,1.2-2.3,1.2c-0.7,0-1.2-0.2-1.6-0.6
			c-0.4-0.4-0.6-1-0.6-1.8c0-0.7,0.2-1.4,0.5-2.4c0.3-0.9,0.7-1.8,1.3-2.6c0.3-0.5,0.6-0.8,0.9-1.1c0.3-0.2,0.6-0.4,0.9-0.4
			c0.2,0,0.4,0,0.5,0.1C33.8,36.8,33.9,36.9,34,37.1z M31.3,43.2c0,0.3,0.1,0.5,0.2,0.7c0.1,0.2,0.3,0.2,0.5,0.2
			c0.5,0,1.1-0.6,1.7-1.7c0.6-1.1,0.9-2.2,0.9-3.3c0-0.3,0-0.5-0.1-0.6c-0.1-0.1-0.2-0.2-0.4-0.2c-0.5,0-1,0.6-1.7,1.7
			C31.7,41.1,31.3,42.1,31.3,43.2z"/>
	</g>
	<g>
		<path class="st2" d="M43.7,35.6c1.1,4.9,3.6,6.7,8.6,6.7c4.8,0,7.1-2.5,7.1-5.3c0-8.3-18.4-2.4-18.4-13.7c0-4.8,3.7-8.2,10.1-8.2
			c6.2,0,10.2,2.5,11.1,9h-3.4c-0.6-4.4-3.6-6-7.7-6c-4.2,0-6.5,2-6.5,4.9c0,7.8,18.4,2.9,18.4,13.9c0,5.5-4.9,8.4-11.7,8.4
			c-6.7,0-10.6-4.3-10.9-9.7H43.7z"/>
		<path class="st2" d="M75.3,44.7c-0.8,0.2-2.2,0.7-3.8,0.7c-3.3,0-5.1-1.4-5.1-5.7v-21h-4v-2.8h4V8h3.3v8h5.4v2.8h-5.4v19.6
			c0,2.8,0.1,4,2.9,4c0.9,0,1.8-0.2,2.7-0.4V44.7z"/>
		<path class="st2" d="M76.9,9.7V4.8h3.7v4.9H76.9z M77,44.6V15.9h3.3v28.7H77z"/>
		<path class="st2" d="M85.2,44.6V4.8h3.3v39.8H85.2z"/>
		<path class="st2" d="M94.9,31c-0.1,6.2,3.3,11.3,9.6,11.3c4.3,0,7.7-2.4,8.7-6.6h3.7c-1.7,5.4-5.1,9.6-12.4,9.6
			c-9.2,0-13.2-6.5-13.2-15c0-8.4,5-15.2,13.2-15.2c7.9,0,12.7,5.6,12.6,15.9H94.9z M113.6,28.3c0-5.6-3.1-10.1-9.1-10.1
			c-5.9,0-9,4.7-9.6,10.1H113.6z"/>
	</g>
	<g>
		<path class="st1" d="M122.7,43c-0.4,0.9-0.9,1.6-1.4,2.1c-0.5,0.5-1,0.8-1.4,0.8c-0.5,0-0.9-0.2-1.2-0.7c-0.3-0.5-0.5-1.1-0.5-1.8
			c0-0.9,0.3-2,0.8-3.1c0.5-1.2,1.2-2.2,2.1-3.1c0.2-0.2,0.5-0.4,0.7-0.5c0.2-0.1,0.4-0.2,0.6-0.2c0.2,0,0.5,0.1,0.7,0.2
			c0.3,0.1,0.6,0.3,0.9,0.6c0.3-1,0.8-2.2,1.3-3.7c1-2.8,1.7-4.3,2.1-4.3c0.3,0,0.6,0.1,0.8,0.2c0.2,0.1,0.3,0.3,0.3,0.5
			c0,0.2-0.2,0.7-0.5,1.4c-0.3,0.5-0.5,1-0.6,1.3c-0.9,2.2-1.7,4.2-2.2,6.1c-0.6,1.9-0.8,3.3-0.8,4.1c0,0.2,0,0.3,0.1,0.4
			c0.1,0.1,0.1,0.2,0.2,0.2c0.2,0,0.4-0.1,0.6-0.4c0.2-0.3,0.6-0.8,1.1-1.5c0.1-0.1,0.2-0.3,0.3-0.6c0.2-0.3,0.3-0.5,0.4-0.5
			c0.1,0,0.1,0,0.2,0.1c0.1,0.1,0.1,0.1,0.1,0.2c0,0.1-0.1,0.3-0.2,0.6c-0.1,0.3-0.3,0.6-0.5,1.1c-0.4,0.8-0.8,1.4-1.2,1.8
			c-0.4,0.4-0.8,0.5-1.2,0.5s-0.8-0.2-1-0.5C122.9,44.1,122.7,43.7,122.7,43z M123.7,38.1c-0.1-0.1-0.2-0.2-0.3-0.3
			c-0.1-0.1-0.2-0.1-0.3-0.1c-0.2,0-0.5,0.2-0.8,0.5c-0.3,0.3-0.7,0.8-1.1,1.5c-0.5,0.7-0.9,1.5-1.1,2.3c-0.3,0.8-0.4,1.5-0.4,2
			c0,0.2,0,0.3,0.1,0.5c0.1,0.1,0.2,0.2,0.3,0.2c0.4,0,1-0.6,1.7-1.8C122.4,41.6,123.1,40,123.7,38.1z"/>
		<path class="st1" d="M128,44.9c-0.5,0-0.9-0.2-1.2-0.7c-0.3-0.4-0.5-1-0.5-1.8c0-0.9,0.1-1.9,0.4-3c0.3-1.1,0.6-1.9,0.9-2.3
			c0.1-0.2,0.3-0.3,0.6-0.4c0.3-0.1,0.5-0.2,0.8-0.2c0.2,0,0.3,0,0.4,0.1c0.1,0.1,0.2,0.2,0.2,0.4c0,0.1-0.1,0.3-0.2,0.6
			c-0.1,0.2-0.2,0.4-0.2,0.6l-0.2,0.5c-0.8,2.3-1.2,3.7-1.2,4.3c0,0.2,0,0.4,0.1,0.5c0.1,0.1,0.2,0.2,0.4,0.2c0.3,0,0.6-0.2,1.1-0.7
			c0.5-0.5,0.9-1.1,1.4-1.9c0.1-0.1,0.1-0.3,0.2-0.5c0.2-0.3,0.3-0.5,0.4-0.5c0.1,0,0.2,0.1,0.4,0.2s0.2,0.2,0.2,0.4
			c0,0.1-0.2,0.4-0.5,1c-0.2,0.3-0.3,0.5-0.4,0.7c-0.6,1-1.1,1.6-1.5,2C129,44.7,128.6,44.9,128,44.9z M129.2,35.7
			c-0.3,0-0.5-0.1-0.7-0.2c-0.2-0.2-0.3-0.4-0.3-0.6c0-0.4,0.2-0.7,0.6-0.9c0.4-0.2,0.8-0.4,1.2-0.4c0.3,0,0.5,0.1,0.6,0.2
			c0.1,0.1,0.2,0.3,0.2,0.6c0,0.3-0.2,0.7-0.5,1C129.9,35.5,129.6,35.7,129.2,35.7z"/>
	</g>
	<line class="st3" x1="131" y1="51.3" x2="0" y2="51.3"/>
</g>
</svg>
