<?xml version="1.0" encoding="utf-8"?>
<!-- Generator: Adobe Illustrator 24.0.1, SVG Export Plug-In . SVG Version: 6.00 Build 0)  -->
<svg version="1.1" id="Livello_1" xmlns="http://www.w3.org/2000/svg" xmlns:xlink="http://www.w3.org/1999/xlink" x="0px" y="0px"
	 viewBox="0 0 187 65" style="enable-background:new 0 0 187 65;" xml:space="preserve">
<style type="text/css">
	.st0{fill:#005095;}
	.st1{fill:#FFFFFF;}
</style>
<g>
	<path class="st0" d="M2.3,9.5v31.7c0,0,0,10.3,11.4,10.3h158.1c5.8,0,12.9-0.5,12.9-10.3V9.5H2.3z"/>
	<g>
		
			<image style="overflow:visible;opacity:0.8;" width="36" height="38" xlink:href="623A7467.png"  transform="matrix(1 0 0 1 28.065 14.7125)">
		</image>
		<g>
			<path class="st1" d="M55.1,32.7c0-3.7-0.9-6.7-2.7-9.1c-2-2.6-4.7-4-8.3-4c-3.7,0-6.6,1.1-8.7,3.3c-2.1,2.2-3.2,5.2-3.2,9
				c0,3.6,1.1,6.4,3.3,8.6c2.2,2.2,5,3.2,8.5,3.2c1,0,1.8-0.3,2.3-0.8c0.5-0.5,0.8-1.2,0.8-1.9s-0.3-1.4-0.8-2
				c-0.6-0.6-1.4-0.9-2.3-0.9c-2.5,0-4.3-0.9-5.3-2.6h16.3V32.7z M38.2,30L38.2,30c0.5-3.1,2.6-4.7,6.1-4.7c1.5,0,2.7,0.5,3.6,1.5
				c0.6,0.7,1.1,1.8,1.4,3.2H38.2z"/>
		</g>
	</g>
	<g>
		
			<image style="overflow:visible;opacity:0.8;" width="28" height="42" xlink:href="623A7465.png"  transform="matrix(1 0 0 1 51.065 10.7125)">
		</image>
		<g>
			<path class="st1" d="M69.8,39.1c-0.6-0.6-1.2-0.9-2-0.9c-0.3,0-0.7,0-1.2,0.1c-0.5,0.1-0.9,0.1-1.2,0.1c-0.7,0-1.1-0.1-1.3-0.3
				c-0.2-0.2-0.2-0.7-0.2-1.3V26.1h4c0.9,0,1.6-0.3,2.1-0.8c0.5-0.6,0.7-1.2,0.7-2c0-0.8-0.2-1.4-0.7-2c-0.5-0.6-1.2-0.8-2.1-0.8h-4
				v-2.3c0-0.9-0.3-1.6-0.9-2.1c-0.6-0.5-1.2-0.8-2-0.8c-0.8,0-1.4,0.3-2,0.8c-0.6,0.5-0.8,1.2-0.8,2.1v2.3c0,0-2.5,0-2.5,2.9
				c0,0.8,0.2,1.4,0.6,2c0.4,0.5,1.1,0.8,1.9,0.8v10.1c0,5.2,2.4,7.8,7.1,7.8c3.5,0,5.3-1,5.3-3C70.7,40.3,70.4,39.6,69.8,39.1"/>
		</g>
	</g>
	<g>
		
			<image style="overflow:visible;opacity:0.8;" width="34" height="58" xlink:href="623A746B.png"  transform="matrix(1 0 0 1 4.065 12.7125)">
		</image>
		<g>
			<path class="st1" d="M29.9,26.4c0-2.6-0.8-4.7-2.5-6.3c-1.7-1.6-3.8-2.4-6.3-2.4H8.5v20.7c0,0.9,0.3,1.6,0.9,2.1
				c0.5,0.5,1.1,0.7,1.9,0.7s1.4-0.2,2-0.7c0.5-0.5,0.8-1.2,0.8-2.1V23.3h7c2.1,0,3.2,1,3.2,3.1v33.2c0,0.9,0.3,1.6,0.8,2.1
				c0.6,0.5,1.2,0.7,2,0.7c0.7,0,1.4-0.2,2-0.7c0.6-0.5,0.9-1.2,0.9-2.1V26.4z"/>
		</g>
	</g>
	<g>
		
			<image style="overflow:visible;opacity:0.8;" width="50" height="36" xlink:href="623A746D.png"  transform="matrix(1 0 0 1 68.065 15.7125)">
		</image>
		<g>
			<path class="st1" d="M109.7,22.5c0-0.8-0.3-1.5-0.9-2c-0.6-0.5-1.3-0.8-2.1-0.8c-1.2,0-2.1,0.6-2.5,1.9l-3.4,9.7
				c-1.1,3.5-1.8,5.9-2.1,7c-1.1-3.9-1.7-6.3-2-7.1l-3-8.9c-0.6-1.8-1.5-2.6-2.8-2.6s-2.2,0.8-2.8,2.5l-3,8.5
				c-1.2,3.7-1.9,6.2-2.2,7.6c-1.2-4.3-1.9-6.7-2.1-7.4l-3-9.3c-0.4-1.3-1.3-1.9-2.6-1.9c-0.8,0-1.4,0.3-2,0.8
				c-0.6,0.5-0.9,1.2-0.9,2c0,0.3,0.1,0.6,0.2,0.9l4.6,14.8c0.5,1.6,1.3,2.9,2.4,3.8c1,0.9,2.1,1.3,3.3,1.3c2.6,0,4.5-1.7,5.7-5.1
				c0.8-2.4,1.3-3.8,1.4-4.1c0.1-0.3,0.4-1.6,1.1-4c1,4.2,1.7,6.9,2.1,8c0.5,1.6,1.3,2.9,2.3,3.7c1,0.9,2.1,1.3,3.3,1.3
				c2.6,0,4.5-1.7,5.8-5.1l5.3-14.7C109.7,23.2,109.7,22.8,109.7,22.5"/>
		</g>
	</g>
	<g>
		
			<image style="overflow:visible;opacity:0.8;" width="36" height="37" xlink:href="623A746F.png"  transform="matrix(1 0 0 1 105.065 14.7125)">
		</image>
		<g>
			<path class="st1" d="M132.4,32.5c0-3.7-0.9-6.7-2.7-9.1c-2-2.6-4.7-4-8.3-4c-3.7,0-6.6,1.1-8.7,3.3c-2.1,2.2-3.2,5.2-3.2,9
				c0,3.6,1.1,6.4,3.3,8.6c2.2,2.2,5,3.2,8.5,3.2c1,0,1.8-0.3,2.3-0.8c0.5-0.5,0.8-1.2,0.8-1.9c0-0.8-0.3-1.4-0.8-2
				c-0.6-0.6-1.4-0.9-2.3-0.9c-2.5,0-4.3-0.9-5.3-2.6h16.3V32.5z M115.4,29.8L115.4,29.8c0.5-3.1,2.6-4.7,6.1-4.7
				c1.5,0,2.7,0.5,3.6,1.5c0.6,0.7,1.1,1.8,1.4,3.2H115.4z"/>
		</g>
	</g>
	<g>
		
			<image style="overflow:visible;opacity:0.8;" width="36" height="37" xlink:href="623A746C.png"  transform="matrix(1 0 0 1 129.065 15.7125)">
		</image>
		<g>
			<path class="st1" d="M156.6,32.8c0-3.7-0.9-6.7-2.7-9.1c-2-2.6-4.7-4-8.3-4c-3.7,0-6.6,1.1-8.7,3.3c-2.1,2.2-3.2,5.2-3.2,9
				c0,3.6,1.1,6.4,3.3,8.6c2.2,2.2,5,3.2,8.5,3.2c1,0,1.8-0.3,2.3-0.8c0.5-0.5,0.8-1.2,0.8-1.9c0-0.8-0.3-1.4-0.8-2
				c-0.6-0.6-1.4-0.9-2.3-0.9c-2.5,0-4.3-0.9-5.3-2.6h16.3V32.8z M139.6,30.1L139.6,30.1c0.5-3.1,2.6-4.7,6.1-4.7
				c1.5,0,2.7,0.5,3.6,1.5c0.6,0.7,1.1,1.8,1.4,3.2H139.6z"/>
		</g>
	</g>
	<g>
		
			<image style="overflow:visible;opacity:0.8;" width="34" height="54" xlink:href="623A7464.png"  transform="matrix(1 0 0 1 154.065 -2.2875)">
		</image>
		<g>
			<path class="st1" d="M179.5,39.3l-7-11.4c0.2-0.4,0.8-1,1.7-1.9c0.6-0.6,0.9-1.2,0.9-1.9c0-0.8-0.3-1.4-0.9-2
				c-0.6-0.6-1.3-0.9-2-0.9c-0.7,0-1.4,0.3-2,0.9l-3.5,3.5c-0.9,0.9-1.7,1.9-2.3,3.1V5.3c0-0.9-0.3-1.6-0.9-2.1
				c-0.6-0.5-1.2-0.7-2-0.7c-0.8,0-1.4,0.3-2,0.8c-0.6,0.5-0.8,1.2-0.8,2.1v35.5c0,0.9,0.3,1.6,0.8,2.1c0.6,0.5,1.2,0.7,2,0.7
				c0.7,0,1.4-0.2,2-0.7c0.6-0.5,0.9-1.2,0.9-2.1v-5.3c1.7-1.6,3-2.8,3.8-3.7l6.3,10.4c0.6,0.9,1.3,1.3,2.3,1.3
				c0.8,0,1.5-0.3,2.1-0.8c0.6-0.6,0.9-1.2,0.9-2C179.9,40.3,179.8,39.8,179.5,39.3"/>
		</g>
	</g>
</g>
</svg>
