<?xml version="1.0" encoding="utf-8"?>
<!-- Generator: Adobe Illustrator 24.0.1, SVG Export Plug-In . SVG Version: 6.00 Build 0)  -->
<svg version="1.1" id="Livello_1" xmlns="http://www.w3.org/2000/svg" xmlns:xlink="http://www.w3.org/1999/xlink" x="0px" y="0px"
	 viewBox="0 0 200 72" style="enable-background:new 0 0 200 72;" xml:space="preserve">
<style type="text/css">
	.st0{fill:#1D1D1B;}
	.st1{fill:#CC1719;}
	.st2{fill:none;stroke:#FFFFFF;stroke-width:4.05;stroke-miterlimit:4.05;}
	.st3{fill:none;stroke:#1D1D1B;stroke-width:1.012;}
</style>
<g>
	<g>
		<rect y="70.6" class="st0" width="199.8" height="1"/>
	</g>
	<g>
		<g>
			<path class="st1" d="M23.1,65.2h-9.9l-0.3-5.5h-2.4L10,65.2H0.1l7.1-49.3h9L23.1,65.2z M12.7,57.2l-1-11.3h-0.1l-1,11.3H12.7z"/>
			<path class="st1" d="M46.7,54.1c0,3.1-1.1,5.7-3.3,7.9c-2.2,2.2-4.8,3.3-7.9,3.3c-3.1,0-5.7-1.1-7.9-3.3
				c-2.2-2.2-3.3-4.8-3.3-7.9V15.9h10v38.2c0,0.8,0.4,1.2,1.2,1.2s1.2-0.4,1.2-1.2V15.9h10V54.1z"/>
			<path class="st1" d="M68.3,25.8h-4.5v39.4h-10V25.8h-4.5v-10h18.9V25.8z"/>
			<path class="st1" d="M92.3,54.1c0,3.1-1.1,5.7-3.3,7.9c-2.2,2.2-4.8,3.3-7.9,3.3c-3.1,0-5.7-1.1-7.9-3.3
				c-2.2-2.2-3.3-4.8-3.3-7.9V27c0-3.1,1.1-5.7,3.3-7.9c2.2-2.2,4.8-3.3,7.9-3.3c3.1,0,5.7,1.1,7.9,3.3c2.2,2.2,3.3,4.8,3.3,7.9
				V54.1z M82.4,54.1V27c0-0.8-0.4-1.2-1.2-1.2c-0.8,0-1.2,0.4-1.2,1.2v27.1c0,0.8,0.4,1.2,1.2,1.2C82,55.2,82.4,54.9,82.4,54.1z"/>
		</g>
		<g>
			<path class="st0" d="M128.6,65.2h-10V52.5l-3.6,12.7H112l-3.6-12.7v12.7h-10V15.9h10.1l4.9,25.2l5.2-25.2h10V65.2z"/>
			<path class="st0" d="M154.8,54.1c0,3.1-1.1,5.7-3.3,7.9c-2.2,2.2-4.8,3.3-7.9,3.3c-3.1,0-5.7-1.1-7.9-3.3
				c-2.2-2.2-3.3-4.8-3.3-7.9V27c0-3.1,1.1-5.7,3.3-7.9c2.2-2.2,4.8-3.3,7.9-3.3c3.1,0,5.7,1.1,7.9,3.3c2.2,2.2,3.3,4.8,3.3,7.9
				V54.1z M144.8,54.1V27c0-0.8-0.4-1.2-1.2-1.2c-0.8,0-1.2,0.4-1.2,1.2v27.1c0,0.8,0.4,1.2,1.2,1.2
				C144.4,55.2,144.8,54.9,144.8,54.1z"/>
			<path class="st0" d="M176,25.8h-4.5v39.4h-10V25.8h-4.5v-10H176V25.8z"/>
			<path class="st0" d="M200,54.1c0,3.1-1.1,5.7-3.3,7.9c-2.2,2.2-4.8,3.3-7.9,3.3c-3.1,0-5.7-1.1-7.9-3.3c-2.2-2.2-3.3-4.8-3.3-7.9
				V27c0-3.1,1.1-5.7,3.3-7.9c2.2-2.2,4.8-3.3,7.9-3.3c3.1,0,5.7,1.1,7.9,3.3c2.2,2.2,3.3,4.8,3.3,7.9V54.1z M190,54.1V27
				c0-0.8-0.4-1.2-1.2-1.2s-1.2,0.4-1.2,1.2v27.1c0,0.8,0.4,1.2,1.2,1.2S190,54.9,190,54.1z"/>
		</g>
		<g>
			<path class="st0" d="M75.6,7.8c-0.8,1.3-1,1.9-1.8,3.8c-0.2,0.6-0.5,0.9-1.3,0.9c-0.3,0-0.7,0-1.3-0.1c0.4-0.9,0.7-1.8,0.9-2.7
				C72.8,7.5,73,6,73,5.1c0-0.4,0-0.8-0.2-1c0.7-0.3,1.3-0.5,1.7-0.5c0.4,0,0.9,0.2,0.9,0.8c0,0.7-0.3,1.7-0.6,2.9
				c1-1.9,2.7-3.7,4.1-3.7c0.7,0,1.2,0.5,1.2,1.2c0,0.7-0.2,1.9-0.5,3.1c-0.2,0.8-0.5,1.6-0.5,2.2c0,0.3,0,0.7,0.2,0.7
				c0.2,0,0.5-0.2,0.8-0.6c0.5-0.5,0.8-0.8,1-0.8c0.1,0,0.1,0,0.1,0.1c0,1.2-1.7,2.9-2.8,2.9c-0.9,0-1.4-0.5-1.4-1.5
				c0-0.5,0.2-1.1,0.3-1.8c0.4-1.8,0.6-3,0.6-3.2c0-0.3-0.1-0.4-0.2-0.4C77.1,5.6,76.3,6.6,75.6,7.8z"/>
			<path class="st0" d="M85.9,3.6c1.8,0,2.9,1.1,2.9,2.9c0,3-2.3,6.1-5.2,6.1c-1.8,0-2.9-1.1-2.9-3c0-1.6,0.5-3,1.6-4.1
				C83.3,4.3,84.5,3.6,85.9,3.6z M85.4,4.8c-1.4,0-2.4,3.1-2.4,4.9c0,0.9,0.3,1.6,1.1,1.6c1.4,0,2.3-3.1,2.3-4.9
				C86.5,5.5,86.2,4.8,85.4,4.8z"/>
			<path class="st0" d="M92.9,7.8c-0.8,1.3-1,1.9-1.8,3.8c-0.2,0.6-0.5,0.9-1.3,0.9c-0.3,0-0.7,0-1.3-0.1c0.4-0.9,0.7-1.8,0.9-2.7
				c0.6-2.1,0.9-3.6,0.9-4.5c0-0.4,0-0.8-0.2-1c0.7-0.3,1.3-0.5,1.7-0.5c0.4,0,0.9,0.2,0.9,0.8c0,0.7-0.3,1.7-0.6,2.9
				c1-1.9,2.7-3.7,4.1-3.7c0.7,0,1.2,0.5,1.2,1.2c0,0.7-0.2,1.9-0.5,3.1c-0.2,0.8-0.5,1.6-0.5,2.2c0,0.3,0,0.7,0.2,0.7
				c0.2,0,0.5-0.2,0.8-0.6c0.5-0.5,0.8-0.8,1-0.8c0.1,0,0.1,0,0.1,0.1c0,1.2-1.7,2.9-2.8,2.9c-0.9,0-1.4-0.5-1.4-1.5
				c0-0.5,0.2-1.1,0.3-1.8c0.4-1.8,0.6-3,0.6-3.2c0-0.3-0.1-0.4-0.2-0.4C94.4,5.6,93.6,6.6,92.9,7.8z"/>
			<path class="st0" d="M105.6,5.3c0,0.3,0.2,0.6,0.4,0.9c0.7,0.8,1.4,1.6,1.4,2.8c0,1.9-1.8,3.4-3.7,3.4c-1.1,0-2.4-0.7-2.4-2
				c0-0.5,0.4-0.9,0.6-1c0.4,1,1,1.9,2,1.9c0.8,0,1.2-0.4,1.2-1.3c0-0.8-0.7-1.3-1.3-2c-0.4-0.5-0.6-1.1-0.6-1.8c0-2.1,2.1-3,3.9-3
				c0.6,0,0.8,0.1,0.9,0.5c0,0.3-0.1,0.6-0.6,0.9c-0.3-0.3-0.6-0.5-0.9-0.5C105.9,4.3,105.6,4.7,105.6,5.3z"/>
			<path class="st0" d="M113.3,3.6c1.8,0,2.9,1.1,2.9,2.9c0,3-2.3,6.1-5.2,6.1c-1.8,0-2.9-1.1-2.9-3c0-1.6,0.5-3,1.6-4.1
				C110.7,4.3,111.9,3.6,113.3,3.6z M112.8,4.8c-1.4,0-2.4,3.1-2.4,4.9c0,0.9,0.3,1.6,1.1,1.6c1.4,0,2.3-3.1,2.3-4.9
				C113.8,5.5,113.6,4.8,112.8,4.8z"/>
			<path class="st0" d="M120,10.4c0.7-0.5,1.3-1,1.4-1c0.1,0,0,0.3-0.5,1.1c-0.7,1.2-2.3,2-3.1,2c-0.9,0-1.4-0.5-1.4-1.5
				c0-0.4,0-0.7,0.1-1.3c0-0.1,0-0.3,0.1-0.4c-0.6,0.4-0.8,0.6-0.9,0.6c-0.1,0,0.3-0.3,0.8-0.8c0,0,0,0,0.1-0.1
				c0.6-2.5,1.3-5.1,2.1-7.6c0.1-0.2,0.3-0.5,0.5-0.7c0.3-0.2,0.5-0.2,0.8-0.2c0.5,0,0.9,0.2,1.4,0.5c0.1,0.1,0.1,0.1,0.1,0.2
				c0,0,0,0.2,0,0.6c0,0.2,0,0.4,0,0.6c-0.1,0.7-0.4,1.5-0.7,2.3c-0.5,1.3-1.3,2.3-1.7,2.7l0,0.1c0,0.1-0.1,0.3-0.1,0.5
				c-0.1,0.5-0.4,1.8-0.4,2.2c0,0.3,0,0.7,0.2,0.7C119.3,10.8,119.7,10.6,120,10.4z M119.5,6.4c0.4-0.5,0.8-1.2,1.1-2
				c0.3-0.8,0.6-1.5,0.7-2.1c0-0.2,0-0.4,0-0.6c0-0.2-0.2-0.2-0.3-0.1c0,0.1-0.1,0.2-0.1,0.3c-0.3,0.7-0.5,1.4-0.7,2.2
				C119.9,4.8,119.7,5.6,119.5,6.4z"/>
			<path class="st0" d="M126.4,3.6c1.8,0,2.9,1.1,2.9,2.9c0,3-2.3,6.1-5.2,6.1c-1.8,0-2.9-1.1-2.9-3c0-1.6,0.5-3,1.6-4.1
				C123.8,4.3,125,3.6,126.4,3.6z M125.9,4.8c-1.4,0-2.4,3.1-2.4,4.9c0,0.9,0.3,1.6,1.1,1.6c1.4,0,2.3-3.1,2.3-4.9
				C127,5.5,126.7,4.8,125.9,4.8z"/>
		</g>
		<path class="st2" d="M92.3,48.1c-0.4,0.1-0.7,0.2-1,0.2c-1,0-1.5-0.8-1.5-2.1c0-1.5,0.8-3.3,2.2-4.8c1.3,1.6,2.9,2.8,4.2,3.6
			C95.2,46.3,94,47.5,92.3,48.1z M95.1,33c0.7-0.3,1.4-0.1,1.4,0.5c0,1.1-1,3-2.9,4.9c-0.4-0.5-0.6-1.1-0.6-2
			C93,34.8,93.9,33.4,95.1,33z M103.9,44.8c-1.6,0.6-4-1.1-4.6-1.4c1.2-1.7,2.4-4,2.7-5.8c0.1-0.5,0.2-1.1,0.2-1.5
			c0-0.8-0.3-1.3-1.5-0.9c-0.4,0.1-1.8,0.8-1.8,1.2c0,0.1,0.8-0.2,0.9,1.2c0,1.5-0.8,3.5-1.7,5.1c-1.4-0.9-2.7-2-3.8-3.2
			c2.3-2.1,4.5-5.1,4.2-6.9c0-0.5-0.3-0.9-0.7-1.1c-0.3-0.2-0.5-0.3-1-0.3c-0.3,0-0.7,0.1-1.2,0.2c-3.1,1-5.6,3.6-5.6,6.6
			c0,1.1,0.4,2,1.1,2.6c-3,2.5-4.8,5.2-4.8,7.8c0,1.8,0.8,2.7,2.3,2.7c0.6,0,1.4-0.2,2.3-0.5c2.5-0.9,4.6-2.7,6.4-4.8
			c1.2,0.9,3.5,1.4,4.4,1.1c0.9-0.4,2.3-0.8,2.8-2.3C104.8,44.1,104.2,44.7,103.9,44.8z"/>
		<g>
			<path class="st0" d="M104.7,44.5c-0.5,1.5-1.9,2-2.8,2.3c-0.8,0.3-3.2-0.2-4.4-1.1c-1.8,2.1-3.9,3.9-6.4,4.8
				c-0.9,0.3-1.7,0.5-2.3,0.5c-1.5,0-2.3-0.9-2.3-2.7c0-2.6,1.8-5.2,4.8-7.8c-0.7-0.6-1.1-1.5-1.1-2.6c0-3,2.6-5.6,5.6-6.6
				c0.5-0.2,0.8-0.2,1.2-0.2c0.4,0,0.7,0.1,1,0.3c0.4,0.2,0.7,0.6,0.7,1.1c0.3,1.9-1.8,4.9-4.2,6.9c1.1,1.2,2.4,2.3,3.8,3.2
				c0.9-1.6,1.7-3.7,1.7-5.1c-0.1-1.3-0.9-1.1-0.9-1.2c0-0.4,1.3-1,1.8-1.2c1.2-0.4,1.5,0.1,1.5,0.9c0,0.5-0.1,1.1-0.2,1.5
				c-0.3,1.9-1.5,4.1-2.7,5.8c0.7,0.4,3.1,2.1,4.6,1.4C104.2,44.7,104.8,44.1,104.7,44.5z M96.2,45c-1.3-0.8-2.9-2-4.2-3.6
				c-1.4,1.5-2.2,3.3-2.2,4.8c0,1.3,0.4,2.1,1.5,2.1c0.3,0,0.6-0.1,1-0.2C94,47.5,95.2,46.3,96.2,45z M93,36.4c0,0.8,0.2,1.5,0.6,2
				c1.9-1.8,3-3.8,2.9-4.9c0-0.7-0.7-0.8-1.4-0.5C93.9,33.4,93,34.8,93,36.4z"/>
		</g>
		<line class="st3" x1="131.5" y1="9.9" x2="199.8" y2="9.9"/>
		<line class="st3" x1="0" y1="10.2" x2="69.5" y2="10.2"/>
	</g>
</g>
</svg>
