<?xml version="1.0" encoding="utf-8"?>
<!-- Generator: Adobe Illustrator 24.0.1, SVG Export Plug-In . SVG Version: 6.00 Build 0)  -->
<svg version="1.1" id="Livello_1" xmlns="http://www.w3.org/2000/svg" xmlns:xlink="http://www.w3.org/1999/xlink" x="0px" y="0px"
	 viewBox="0 0 200 78" style="enable-background:new 0 0 200 78;" xml:space="preserve">
<style type="text/css">
	.st0{fill:#A02523;}
	.st1{fill:#C8AD43;}
	.st2{fill:#FFFFFF;}
	.st3{fill:none;stroke:#FFFFFF;stroke-width:1.191;stroke-miterlimit:4.577;}
	.st4{clip-path:url(#SVGID_2_);fill:#EC8046;}
	.st5{clip-path:url(#SVGID_2_);fill:#482011;}
	.st6{clip-path:url(#SVGID_2_);fill:#F9C194;}
	.st7{clip-path:url(#SVGID_2_);fill:#F4AE77;}
	.st8{fill:#F4AE77;}
	.st9{fill:#F9C194;}
	.st10{fill:#F7AE5C;}
	.st11{fill:#FFF4E8;}
	.st12{clip-path:url(#SVGID_4_);fill:#79B1D2;}
	.st13{clip-path:url(#SVGID_4_);fill:#D5D5D5;}
	.st14{fill:#E7E6E6;}
	.st15{fill:#EA9451;}
	.st16{fill:#F4A262;}
	.st17{fill:#E8A068;}
	.st18{fill:#F08776;}
	.st19{fill:#FBD0AD;}
	.st20{fill:#7F512B;}
	.st21{fill:#808080;}
	.st22{fill:#D5D5D5;}
	.st23{fill:#F6B076;}
	.st24{fill:#8A8E46;}
	.st25{fill:#A1A753;}
	.st26{fill:#D68056;}
	.st27{fill:#813712;}
	.st28{fill:#913D14;}
	.st29{fill:#B6501D;}
	.st30{fill:#C7241B;}
	.st31{fill:#8E1915;}
	.st32{fill:#A31F16;}
	.st33{fill:#B6201A;}
	.st34{fill:#AB1F17;}
	.st35{fill:#781613;}
	.st36{fill:#8C1A13;}
	.st37{fill:#CC271C;}
	.st38{fill:#9E1E17;}
	.st39{fill:#E3291F;}
	.st40{fill:#F7C6C8;}
	.st41{fill:#9D1D17;}
	.st42{fill:#8E1C14;}
	.st43{fill:#7B7D3D;}
	.st44{fill:#94994C;}
	.st45{fill:#9CA352;}
	.st46{fill:#851813;}
	.st47{fill:#FADDDD;}
	.st48{fill:#B41F1A;}
	.st49{fill:#F6BCBD;}
	.st50{fill:#B01F19;}
	.st51{fill:#E0271D;}
	.st52{fill:#6A1511;}
	.st53{fill:#CDCBCB;}
	.st54{fill:#75BEC2;}
	.st55{fill:#32829E;}
</style>
<g>
	<polygon class="st0" points="1.6,0.9 1.6,19.2 115.7,19.2 118.3,0.9 	"/>
	<g>
		<path class="st1" d="M1.7,21.8H5v2.6h0.2c0.6-1.2,2.2-3,4.3-3c3.1,0,4.9,1.3,4.9,5.7V70h-3.3V28.4c0-3.1-0.8-4-2.8-4
			c-1.5,0-3.3,1.7-3.3,5.3V70H1.7V21.8z"/>
		<path class="st1" d="M18.7,27.7c0-4.2,2.5-6.2,6.4-6.2s6.4,2,6.4,6.2v36.4c0,3.7-2.5,6.2-6.4,6.2s-6.4-2.5-6.4-6.2V27.7z M22,64.1
			c0,1.8,0.9,3.4,3,3.4c2.3,0,3-1.5,3-3.4V27.7c0-2-0.7-3.4-3-3.4c-2.1,0-3,1.3-3,3.4V64.1z"/>
		<path class="st1" d="M35.6,21.8h3.3v2.6h0.2c0.6-1.2,2.2-3,4.3-3c3.1,0,4.9,1.3,4.9,5.7V70H45V28.4c0-3.1-0.8-4-2.8-4
			c-1.5,0-3.3,1.7-3.3,5.3V70h-3.3V21.8z"/>
		<path class="st1" d="M52.6,21.8h3.3v2.6h0.2c0.6-1.2,2.2-3,4.3-3c3.1,0,4.9,1.3,4.9,5.7V70H62V28.4c0-3.1-0.8-4-2.8-4
			c-1.5,0-3.3,1.7-3.3,5.3V70h-3.3V21.8z"/>
		<path class="st1" d="M68.8,35.6v-9.2c0-3.7,2.6-4.9,6.4-4.9c3.6,0,6.1,1.2,6.1,4.9V70h-3.3v-2.4h-0.2c-0.6,1.4-1.7,2.8-4.3,2.8
			c-2.5,0-4.6-1-4.6-4.3V47.7c0-4.2,1.8-6.7,7.6-6.7h1.5V27.1c0-1.5-0.6-2.8-2.8-2.8c-2.4,0-3,1.2-3,2.8v8.4H68.8z M72.1,65.3
			c0,1.3,0.6,2.2,2.5,2.2c1.9,0,3.3-2.3,3.3-5.3V43.9H77c-3.1,0-4.9,0.8-4.9,4.4V65.3z"/>
	</g>
	<g>
		<path class="st1" d="M128,49.7h-9.1l-2,20.2h-3.3L121,0.8h5.2l7.6,69.2h-3.7L128,49.7z M127.7,46.9l-2.3-22.7
			c-0.7-6.9-1.7-13.9-1.8-20.9h-0.2c-0.7,6.9-1,14-1.8,20.9l-2.4,22.7H127.7z"/>
		<path class="st1" d="M135.3,0.8h5.5l6.3,44.7c0.7,5.5,1.8,13.3,3,21.7h0.2c-0.5-9.6-0.9-18.5-0.9-22.2V0.8h3.7V70h-5.5l-6.4-44.1
			c-0.6-3.7-1.6-13.1-2.6-22.2h-0.2c0.2,9,0.6,17.8,0.6,20.1V70h-3.7V0.8z"/>
		<path class="st1" d="M158.3,0.8h5.5l6.3,44.7c0.7,5.5,1.8,13.3,3,21.7h0.2c-0.5-9.6-0.9-18.5-0.9-22.2V0.8h3.7V70h-5.5l-6.4-44.1
			c-0.6-3.7-1.6-13.1-2.6-22.2h-0.2c0.2,9,0.6,17.8,0.6,20.1V70h-3.7V0.8z"/>
		<path class="st1" d="M192.9,49.7h-9.1l-2,20.2h-3.3l7.5-69.2h5.2l7.6,69.2H195L192.9,49.7z M192.6,46.9l-2.3-22.7
			c-0.7-6.9-1.7-13.9-1.8-20.9h-0.2c-0.7,6.9-1,14-1.8,20.9l-2.4,22.7H192.6z"/>
	</g>
	<g>
		<path class="st2" d="M6.4,7.5c0.2,0,0.3,0,0.4,0.1S6.8,7.8,6.8,8c0,0,0,0.1-0.1,0.2C6.4,9.5,6.3,11,6.3,12.8c0,1,0,1.7,0.1,2
			s0.2,0.5,0.4,0.5c0,0,0.1,0,0.2,0c0.1,0,0.2,0,0.2,0c0.1,0,0.2,0,0.2,0.1c0.1,0.1,0.1,0.2,0.1,0.2c0,0.2-0.1,0.3-0.3,0.5
			c-0.2,0.2-0.3,0.2-0.5,0.2c-0.5,0-0.8-0.4-1-1.2c-0.2-0.8-0.3-2.2-0.3-4c0-1.3,0.1-2.2,0.2-2.7C5.8,7.8,6,7.5,6.4,7.5z M5.5,4.4
			c0-0.2,0.1-0.4,0.3-0.6c0.2-0.2,0.4-0.2,0.7-0.2c0.3,0,0.5,0.1,0.7,0.2c0.2,0.2,0.3,0.4,0.3,0.6c0,0.2-0.1,0.4-0.3,0.5
			C6.9,5.1,6.7,5.2,6.4,5.2S5.9,5.1,5.7,4.9S5.5,4.6,5.5,4.4z"/>
		<path class="st2" d="M9.6,14.8c0.4-1.2,1-2.6,1.5-4.4c0.7-2.1,1.2-3.1,1.4-3.1c0.2,0,0.4,0,0.4,0.1c0.1,0.1,0.1,0.2,0.1,0.5
			c0,0.2,0,0.6,0,1.1s0,1.1,0,1.5c0,1.4,0.1,2.4,0.3,3.2c0.2,0.8,0.5,1.1,0.9,1.1c0.1,0,0.2,0,0.3-0.1c0.1,0,0.2-0.1,0.2-0.1
			c0.1,0,0.1,0,0.2,0.1c0,0.1,0.1,0.2,0.1,0.3c0,0.2-0.1,0.4-0.2,0.6S14.4,16,14.2,16c-0.6,0-1.1-0.4-1.4-1.1
			c-0.3-0.7-0.4-1.8-0.4-3.2c0-0.5,0-1.3,0.1-2.5c0-0.2,0-0.4,0-0.5c-0.6,1.6-1.2,3.2-1.8,5c-0.5,1.8-1,2.7-1.3,2.7
			c-0.3,0-0.5-0.3-0.6-1c-0.1-0.7-0.1-2.1-0.1-4.4c0-0.7,0-1.4,0.1-2.1c0-0.1,0-0.2,0-0.2c0-0.3,0-0.6-0.1-0.8
			C8.6,7.5,8.6,7.4,8.6,7.4c0-0.1,0.1-0.2,0.2-0.3s0.3-0.1,0.6-0.1c0.2,0,0.3,0,0.3,0.1c0.1,0.1,0.1,0.2,0.1,0.3c0,0,0,0.1,0,0.2
			c-0.2,0.9-0.3,2-0.3,3.2c0,1.1,0,1.9,0,2.5C9.5,13.9,9.6,14.4,9.6,14.8z"/>
	</g>
	<g>
		<path class="st3" d="M24.9,5.5c-0.3-0.4-0.8-0.6-1.3-0.6c-0.5,0-0.9,0.2-1.2,0.5c-0.3,0.3-0.7,0.9-1,1.6c-0.3,0.8-0.6,1.6-0.8,2.4
			c-0.2,0.8-0.3,1.6-0.3,2.3c0,1.5,0.3,2.6,1.1,3.5c0.7,0.9,1.6,1.3,2.8,1.3c1,0,1.9-0.3,2.7-0.8c0.8-0.6,1.2-1.1,1.2-1.7
			c0-0.2,0-0.3-0.1-0.4c-0.1-0.1-0.2-0.1-0.4-0.1c-0.1,0-0.2,0.1-0.3,0.2c-0.1,0.1-0.1,0.2-0.1,0.4c0,0.1,0,0.2,0,0.2
			c0,0,0,0.1,0,0.2c-0.3,0.5-0.7,0.8-1.2,1.1c-0.5,0.3-1.1,0.4-1.7,0.4c-1,0-1.8-0.4-2.4-1.1c-0.6-0.7-0.9-1.8-0.9-3.1
			c0-0.7,0.1-1.4,0.2-2.1C21.5,8.8,21.7,8,22,7.2c0.2-0.6,0.5-1.1,0.7-1.3c0.3-0.3,0.5-0.4,0.9-0.4c0.4,0,0.7,0.2,0.9,0.7
			c0.2,0.4,0.3,1.1,0.3,1.8c0,0.3,0,0.6-0.1,1c0,0.3-0.1,0.6-0.1,0.6c0,0.2,0,0.3,0.1,0.5c0.1,0.1,0.2,0.2,0.4,0.2
			c0.2,0,0.5-0.2,0.7-0.7c0.2-0.5,0.3-1,0.3-1.5c0-0.2,0-0.4-0.1-0.5c-0.1-0.1-0.2-0.2-0.4-0.2h-0.1C25.4,6.5,25.2,5.9,24.9,5.5z"/>
		<path class="st3" d="M33.5,15.1c0.2,0.5,0.4,0.8,0.8,0.8c0.2,0,0.3-0.1,0.5-0.2c0.1-0.1,0.2-0.2,0.2-0.4c0-0.1-0.1-0.2-0.2-0.2
			c-0.2-0.1-0.3-0.1-0.3-0.2c-0.1-0.1-0.2-0.3-0.3-0.6c-0.1-0.3-0.2-0.7-0.3-1.2c-0.3-1.5-0.4-3-0.5-4.6c-0.1-1.6-0.2-2.4-0.5-2.4
			c-0.1,0-0.2,0.1-0.3,0.1c-0.1,0.1-0.1,0.2-0.1,0.3c0,0,0,0.1,0,0.2c0.1,0.6,0.1,1.3,0.1,2c0,2-0.2,3.6-0.5,4.9
			c-0.4,1.2-0.8,1.9-1.4,1.9c-0.4,0-0.8-0.3-1-1c-0.2-0.7-0.3-1.7-0.3-3c0-0.7,0-1.5,0.1-2.4c0.1-0.8,0.2-1.7,0.3-2.6
			c0.1-0.1,0.1-0.1,0.2-0.2C30,6.2,30,6.2,30,6.1c0-0.1,0-0.2-0.1-0.3c-0.1-0.1-0.2-0.1-0.4-0.1c-0.2,0-0.3,0.1-0.4,0.2
			S29,6.2,28.9,6.5c-0.1,0.8-0.2,1.5-0.2,2.4c-0.1,0.8-0.1,1.7-0.1,2.5c0,1.7,0.2,3,0.5,3.8c0.3,0.8,0.8,1.2,1.4,1.2
			c0.6,0,1.1-0.3,1.5-1c0.4-0.7,0.7-1.7,1-3.1C33.2,13.6,33.3,14.6,33.5,15.1z"/>
		<path class="st3" d="M39.5,5.5c-0.3-0.4-0.8-0.6-1.3-0.6c-0.5,0-0.9,0.2-1.2,0.5c-0.3,0.3-0.7,0.9-1,1.6c-0.3,0.8-0.6,1.6-0.8,2.4
			c-0.2,0.8-0.3,1.6-0.3,2.3c0,1.5,0.3,2.6,1.1,3.5c0.7,0.9,1.6,1.3,2.8,1.3c1,0,1.9-0.3,2.7-0.8c0.8-0.6,1.2-1.1,1.2-1.7
			c0-0.2,0-0.3-0.1-0.4c-0.1-0.1-0.2-0.1-0.4-0.1c-0.1,0-0.2,0.1-0.3,0.2c-0.1,0.1-0.1,0.2-0.1,0.4c0,0.1,0,0.2,0,0.2
			c0,0,0,0.1,0,0.2c-0.3,0.5-0.7,0.8-1.2,1.1c-0.5,0.3-1.1,0.4-1.7,0.4c-1,0-1.8-0.4-2.4-1.1c-0.6-0.7-0.9-1.8-0.9-3.1
			c0-0.7,0.1-1.4,0.2-2.1c0.1-0.8,0.4-1.5,0.6-2.3c0.2-0.6,0.5-1.1,0.7-1.3c0.3-0.3,0.5-0.4,0.9-0.4c0.4,0,0.7,0.2,0.9,0.7
			c0.2,0.4,0.3,1.1,0.3,1.8c0,0.3,0,0.6-0.1,1c0,0.3-0.1,0.6-0.1,0.6c0,0.2,0,0.3,0.1,0.5c0.1,0.1,0.2,0.2,0.4,0.2
			c0.2,0,0.5-0.2,0.7-0.7c0.2-0.5,0.3-1,0.3-1.5c0-0.2,0-0.4-0.1-0.5c-0.1-0.1-0.2-0.2-0.4-0.2h-0.1C40,6.5,39.8,5.9,39.5,5.5z"/>
		<path class="st3" d="M43.7,4.9c0.2,0.2,0.4,0.2,0.7,0.2c0.3,0,0.5-0.1,0.7-0.2c0.2-0.1,0.3-0.3,0.3-0.5c0-0.3-0.1-0.5-0.3-0.6
			c-0.2-0.2-0.4-0.2-0.7-0.2c-0.3,0-0.5,0.1-0.7,0.2c-0.2,0.2-0.3,0.4-0.3,0.6C43.5,4.6,43.5,4.8,43.7,4.9z M43.6,8.4
			c-0.2,0.6-0.2,1.5-0.2,2.7c0,1.9,0.1,3.2,0.3,4c0.2,0.8,0.6,1.2,1,1.2c0.2,0,0.4-0.1,0.5-0.2c0.2-0.2,0.3-0.3,0.3-0.5
			c0-0.1,0-0.2-0.1-0.2c-0.1-0.1-0.1-0.1-0.2-0.1c-0.1,0-0.1,0-0.2,0c-0.1,0-0.2,0-0.2,0c-0.2,0-0.3-0.2-0.4-0.5
			c-0.1-0.3-0.1-1-0.1-2c0-1.8,0.2-3.3,0.5-4.6c0-0.1,0.1-0.2,0.1-0.2c0-0.2,0-0.3-0.1-0.3c-0.1-0.1-0.2-0.1-0.4-0.1
			C44,7.5,43.7,7.8,43.6,8.4z"/>
		<path class="st3" d="M47.5,13.3c0-0.6,0-1.5,0-2.6c0-1.2,0.1-2.3,0.3-3.2c0-0.1,0-0.2,0-0.2c0-0.2,0-0.3-0.1-0.3
			c-0.1-0.1-0.2-0.1-0.3-0.1c-0.2,0-0.4,0-0.6,0.1s-0.2,0.2-0.2,0.3c0,0,0,0.2,0.1,0.4c0.1,0.3,0.1,0.5,0.1,0.8c0,0,0,0.1,0,0.2
			c-0.1,0.7-0.1,1.4-0.1,2.1c0,2.3,0,3.7,0.1,4.4c0.1,0.7,0.3,1,0.6,1c0.3,0,0.8-0.9,1.3-2.7c0.5-1.8,1.1-3.5,1.8-5
			c0,0.1,0,0.3,0,0.5c0,1.2-0.1,2-0.1,2.5c0,1.4,0.1,2.5,0.4,3.2c0.3,0.7,0.8,1.1,1.4,1.1c0.2,0,0.5-0.1,0.6-0.2
			c0.2-0.1,0.2-0.3,0.2-0.6c0-0.1,0-0.2-0.1-0.3c0-0.1-0.1-0.1-0.2-0.1c0,0-0.1,0-0.2,0.1c-0.1,0-0.2,0.1-0.3,0.1
			c-0.4,0-0.7-0.4-0.9-1.1c-0.2-0.8-0.3-1.8-0.3-3.2c0-0.4,0-0.9,0-1.5c0-0.6,0-1,0-1.1c0-0.3,0-0.4-0.1-0.5
			c-0.1-0.1-0.2-0.1-0.4-0.1c-0.3,0-0.8,1-1.4,3.1c-0.6,1.7-1.1,3.2-1.5,4.4C47.6,14.4,47.5,13.9,47.5,13.3z"/>
		<path class="st3" d="M59.8,7.3c0,0.1,0,0.2,0,0.3c0,0.2,0,0.5,0.1,1c0,0.1,0,0.1,0,0.1c0,2-0.4,3.7-1.1,4.9
			c-0.7,1.3-1.5,1.9-2.5,1.9c-0.8,0-1.4-0.4-1.9-1.1c-0.5-0.7-0.7-1.7-0.7-2.9c0-1.6,0.4-3,1.2-4.1c0.8-1.1,1.7-1.7,2.8-1.7
			c0.5,0,0.9,0.1,1.2,0.3c0.4,0.2,0.7,0.5,0.9,0.9C59.9,7.1,59.8,7.2,59.8,7.3z M60.7,7.7c0-0.1,0-0.2,0-0.3c0-0.6-0.3-1.1-0.9-1.6
			c-0.6-0.5-1.3-0.7-2.1-0.7c-1.3,0-2.5,0.7-3.5,2c-1,1.3-1.5,2.9-1.5,4.7c0,1.4,0.3,2.5,0.9,3.3c0.6,0.8,1.4,1.2,2.4,1.2
			c0.9,0,1.6-0.3,2.2-1c0.6-0.6,1.1-1.7,1.5-3.1c0.1,1.4,0.3,2.3,0.5,2.8c0.2,0.4,0.5,0.6,1,0.6c0.2,0,0.4,0,0.5-0.1
			c0.1-0.1,0.2-0.2,0.2-0.4c0-0.1,0-0.2-0.1-0.2c-0.1-0.1-0.2-0.1-0.3-0.1h-0.1c-0.4,0-0.6-0.5-0.8-1.5c-0.2-1-0.3-2.6-0.3-4.7V8
			C60.7,7.9,60.7,7.8,60.7,7.7z"/>
	</g>
	<g>
		<path class="st2" d="M25.5,7.3L25.5,7.3c0.3,0,0.4,0.1,0.5,0.2c0.1,0.1,0.1,0.3,0.1,0.5c0,0.5-0.1,1-0.3,1.5
			c-0.2,0.5-0.4,0.7-0.7,0.7c-0.2,0-0.3-0.1-0.4-0.2c-0.1-0.1-0.1-0.3-0.1-0.5c0-0.1,0-0.3,0.1-0.6c0-0.3,0.1-0.7,0.1-1
			c0-0.8-0.1-1.4-0.3-1.8c-0.2-0.4-0.5-0.7-0.9-0.7c-0.3,0-0.6,0.1-0.9,0.4S22.2,6.6,22,7.2c-0.3,0.8-0.5,1.5-0.6,2.3
			s-0.2,1.5-0.2,2.1c0,1.3,0.3,2.3,0.9,3.1c0.6,0.7,1.4,1.1,2.4,1.1c0.6,0,1.2-0.1,1.7-0.4c0.5-0.3,0.9-0.6,1.2-1.1
			c0-0.1,0-0.1,0-0.2c0,0,0-0.1,0-0.2c0-0.2,0-0.3,0.1-0.4s0.2-0.2,0.3-0.2c0.2,0,0.3,0,0.4,0.1c0.1,0.1,0.1,0.2,0.1,0.4
			c0,0.5-0.4,1.1-1.2,1.7c-0.8,0.6-1.7,0.8-2.7,0.8c-1.2,0-2.1-0.4-2.8-1.3c-0.7-0.9-1.1-2-1.1-3.5c0-0.7,0.1-1.5,0.3-2.3
			c0.2-0.8,0.4-1.6,0.8-2.4c0.3-0.7,0.6-1.3,1-1.6c0.3-0.3,0.7-0.5,1.2-0.5c0.5,0,1,0.2,1.3,0.6C25.2,5.9,25.4,6.5,25.5,7.3z"/>
		<path class="st2" d="M33,12.2c-0.2,1.4-0.6,2.5-1,3.1c-0.4,0.7-0.9,1-1.5,1c-0.6,0-1.1-0.4-1.4-1.2c-0.3-0.8-0.5-2.1-0.5-3.8
			c0-0.8,0-1.7,0.1-2.5s0.1-1.6,0.2-2.4c0.1-0.3,0.1-0.5,0.2-0.6c0.1-0.1,0.2-0.2,0.4-0.2c0.1,0,0.3,0,0.4,0.1C30,5.8,30,5.9,30,6.1
			c0,0.1,0,0.2-0.1,0.2c0,0.1-0.1,0.1-0.2,0.2c-0.1,0.9-0.2,1.7-0.3,2.6c-0.1,0.8-0.1,1.6-0.1,2.4c0,1.3,0.1,2.3,0.3,3
			c0.2,0.7,0.6,1,1,1c0.6,0,1-0.6,1.4-1.9c0.4-1.2,0.5-2.9,0.5-4.9c0-0.7,0-1.4-0.1-2c0-0.1,0-0.2,0-0.2c0-0.1,0-0.2,0.1-0.3
			s0.2-0.1,0.3-0.1c0.3,0,0.5,0.8,0.5,2.4c0.1,1.6,0.2,3.1,0.5,4.6c0.1,0.5,0.2,0.9,0.3,1.2s0.2,0.5,0.3,0.6
			c0.1,0.1,0.2,0.1,0.3,0.2s0.2,0.1,0.2,0.2c0,0.1-0.1,0.2-0.2,0.4c-0.1,0.1-0.3,0.2-0.5,0.2c-0.3,0-0.6-0.3-0.8-0.8
			S33.2,13.6,33,12.2z"/>
		<path class="st2" d="M40.1,7.3L40.1,7.3c0.3,0,0.4,0.1,0.5,0.2c0.1,0.1,0.1,0.3,0.1,0.5c0,0.5-0.1,1-0.3,1.5
			c-0.2,0.5-0.4,0.7-0.7,0.7c-0.2,0-0.3-0.1-0.4-0.2c-0.1-0.1-0.1-0.3-0.1-0.5c0-0.1,0-0.3,0.1-0.6c0-0.3,0.1-0.7,0.1-1
			c0-0.8-0.1-1.4-0.3-1.8c-0.2-0.4-0.5-0.7-0.9-0.7c-0.3,0-0.6,0.1-0.9,0.4s-0.5,0.7-0.7,1.3C36.4,8,36.2,8.8,36,9.5
			s-0.2,1.5-0.2,2.1c0,1.3,0.3,2.3,0.9,3.1c0.6,0.7,1.4,1.1,2.4,1.1c0.6,0,1.2-0.1,1.7-0.4c0.5-0.3,0.9-0.6,1.2-1.1
			c0-0.1,0-0.1,0-0.2c0,0,0-0.1,0-0.2c0-0.2,0-0.3,0.1-0.4s0.2-0.2,0.3-0.2c0.2,0,0.3,0,0.4,0.1c0.1,0.1,0.1,0.2,0.1,0.4
			c0,0.5-0.4,1.1-1.2,1.7c-0.8,0.6-1.7,0.8-2.7,0.8c-1.2,0-2.1-0.4-2.8-1.3c-0.7-0.9-1.1-2-1.1-3.5c0-0.7,0.1-1.5,0.3-2.3
			c0.2-0.8,0.4-1.6,0.8-2.4c0.3-0.7,0.6-1.3,1-1.6c0.3-0.3,0.7-0.5,1.2-0.5c0.5,0,1,0.2,1.3,0.6C39.9,5.9,40.1,6.5,40.1,7.3z"/>
		<path class="st2" d="M44.4,7.5c0.2,0,0.3,0,0.4,0.1s0.1,0.2,0.1,0.3c0,0,0,0.1-0.1,0.2c-0.4,1.3-0.5,2.8-0.5,4.6c0,1,0,1.7,0.1,2
			s0.2,0.5,0.4,0.5c0,0,0.1,0,0.2,0c0.1,0,0.2,0,0.2,0c0.1,0,0.2,0,0.2,0.1c0.1,0.1,0.1,0.2,0.1,0.2c0,0.2-0.1,0.3-0.3,0.5
			c-0.2,0.2-0.3,0.2-0.5,0.2c-0.5,0-0.8-0.4-1-1.2c-0.2-0.8-0.3-2.2-0.3-4c0-1.3,0.1-2.2,0.2-2.7C43.8,7.8,44,7.5,44.4,7.5z
			 M43.5,4.4c0-0.2,0.1-0.4,0.3-0.6c0.2-0.2,0.4-0.2,0.7-0.2c0.3,0,0.5,0.1,0.7,0.2c0.2,0.2,0.3,0.4,0.3,0.6c0,0.2-0.1,0.4-0.3,0.5
			c-0.2,0.1-0.4,0.2-0.7,0.2s-0.5-0.1-0.7-0.2S43.5,4.6,43.5,4.4z"/>
		<path class="st2" d="M47.7,14.8c0.4-1.2,1-2.6,1.5-4.4c0.7-2.1,1.2-3.1,1.4-3.1c0.2,0,0.4,0,0.4,0.1c0.1,0.1,0.1,0.2,0.1,0.5
			c0,0.2,0,0.6,0,1.1s0,1.1,0,1.5c0,1.4,0.1,2.4,0.3,3.2c0.2,0.8,0.5,1.1,0.9,1.1c0.1,0,0.2,0,0.3-0.1c0.1,0,0.2-0.1,0.2-0.1
			c0.1,0,0.1,0,0.2,0.1c0,0.1,0.1,0.2,0.1,0.3c0,0.2-0.1,0.4-0.2,0.6S52.5,16,52.2,16c-0.6,0-1.1-0.4-1.4-1.1
			c-0.3-0.7-0.4-1.8-0.4-3.2c0-0.5,0-1.3,0.1-2.5c0-0.2,0-0.4,0-0.5c-0.6,1.6-1.2,3.2-1.8,5c-0.5,1.8-1,2.7-1.3,2.7
			c-0.3,0-0.5-0.3-0.6-1c-0.1-0.7-0.1-2.1-0.1-4.4c0-0.7,0-1.4,0.1-2.1c0-0.1,0-0.2,0-0.2c0-0.3,0-0.6-0.1-0.8
			c-0.1-0.3-0.1-0.4-0.1-0.4c0-0.1,0.1-0.2,0.2-0.3s0.3-0.1,0.6-0.1c0.2,0,0.3,0,0.3,0.1c0.1,0.1,0.1,0.2,0.1,0.3c0,0,0,0.1,0,0.2
			c-0.2,0.9-0.3,2-0.3,3.2c0,1.1,0,1.9,0,2.5C47.6,13.9,47.6,14.4,47.7,14.8z"/>
		<path class="st2" d="M60.7,8v0.7c0,2.1,0.1,3.6,0.3,4.7c0.2,1,0.4,1.5,0.8,1.5h0.1c0.1,0,0.2,0,0.3,0.1c0.1,0.1,0.1,0.2,0.1,0.2
			c0,0.2-0.1,0.3-0.2,0.4c-0.1,0.1-0.3,0.1-0.5,0.1c-0.4,0-0.8-0.2-1-0.6s-0.4-1.4-0.5-2.8c-0.4,1.4-0.9,2.4-1.5,3.1
			c-0.6,0.6-1.4,1-2.2,1c-1,0-1.8-0.4-2.4-1.2c-0.6-0.8-0.9-1.9-0.9-3.3c0-1.8,0.5-3.4,1.5-4.7c1-1.3,2.2-2,3.5-2
			c0.8,0,1.5,0.2,2.1,0.7c0.6,0.5,0.9,1,0.9,1.6c0,0.1,0,0.2,0,0.3C60.8,7.8,60.7,7.9,60.7,8z M59.9,6.9C59.7,6.5,59.4,6.2,59,6
			c-0.4-0.2-0.8-0.3-1.2-0.3c-1,0-2,0.6-2.8,1.7s-1.2,2.5-1.2,4.1c0,1.2,0.3,2.2,0.7,2.9s1.1,1.1,1.9,1.1c1,0,1.9-0.6,2.5-1.9
			c0.7-1.3,1-2.9,1.1-4.9c0,0,0-0.1,0-0.1c-0.1-0.5-0.1-0.9-0.1-1c0-0.1,0-0.2,0-0.3C59.9,7.2,59.9,7.1,59.9,6.9z"/>
	</g>
	<g>
		<path class="st2" d="M72.7,7.3L72.7,7.3c0.3,0,0.4,0.1,0.5,0.2c0.1,0.1,0.1,0.3,0.1,0.5c0,0.5-0.1,1-0.3,1.5
			c-0.2,0.5-0.4,0.7-0.7,0.7c-0.2,0-0.3-0.1-0.4-0.2c-0.1-0.1-0.1-0.3-0.1-0.5c0-0.1,0-0.3,0.1-0.6C72,8.6,72,8.3,72,8
			c0-0.8-0.1-1.4-0.3-1.8c-0.2-0.4-0.5-0.7-0.9-0.7c-0.3,0-0.6,0.1-0.9,0.4s-0.5,0.7-0.7,1.3C69,8,68.7,8.8,68.6,9.5
			s-0.2,1.5-0.2,2.1c0,1.3,0.3,2.3,0.9,3.1c0.6,0.7,1.4,1.1,2.4,1.1c0.6,0,1.2-0.1,1.7-0.4c0.5-0.3,0.9-0.6,1.2-1.1
			c0-0.1,0-0.1,0-0.2c0,0,0-0.1,0-0.2c0-0.2,0-0.3,0.1-0.4s0.2-0.2,0.3-0.2c0.2,0,0.3,0,0.4,0.1c0.1,0.1,0.1,0.2,0.1,0.4
			c0,0.5-0.4,1.1-1.2,1.7c-0.8,0.6-1.7,0.8-2.7,0.8c-1.2,0-2.1-0.4-2.8-1.3c-0.7-0.9-1.1-2-1.1-3.5c0-0.7,0.1-1.5,0.3-2.3
			c0.2-0.8,0.4-1.6,0.8-2.4c0.3-0.7,0.6-1.3,1-1.6c0.3-0.3,0.7-0.5,1.2-0.5c0.5,0,1,0.2,1.3,0.6C72.4,5.9,72.6,6.5,72.7,7.3z"/>
		<path class="st2" d="M82.4,8c0.3,0.3,0.6,0.7,0.8,1.3c0.2,0.6,0.3,1.3,0.3,2c0,1.5-0.4,2.7-1.3,3.6c-0.9,1-1.9,1.4-3.3,1.4
			c-1.2,0-2.1-0.4-2.8-1.2c-0.7-0.8-1-1.9-1-3.3c0-1.5,0.4-2.7,1.3-3.8c0.9-1.1,1.9-1.6,3.1-1.6c0.6,0,1.2,0.1,1.7,0.4
			C81.7,7.1,82.1,7.5,82.4,8z M81.7,8.2c-0.3-0.4-0.7-0.7-1-0.8s-0.7-0.3-1.2-0.3c-0.9,0-1.8,0.5-2.5,1.4c-0.7,0.9-1.1,2.1-1.1,3.4
			c0,1.1,0.3,2,0.8,2.7c0.6,0.7,1.3,1,2.2,1c1.1,0,2-0.4,2.6-1.2c0.7-0.8,1-1.8,1-3c0-0.3,0-0.5-0.1-0.9c-0.1-0.3-0.1-0.6-0.3-1
			c-0.2-0.2-0.3-0.4-0.4-0.6S81.7,8.4,81.7,8.2z"/>
		<path class="st2" d="M85.3,14.8c0.4-1.2,1-2.6,1.5-4.4c0.7-2.1,1.2-3.1,1.4-3.1c0.2,0,0.4,0,0.4,0.1c0.1,0.1,0.1,0.2,0.1,0.5
			c0,0.2,0,0.6,0,1.1s0,1.1,0,1.5c0,1.4,0.1,2.4,0.3,3.2c0.2,0.8,0.5,1.1,0.9,1.1c0.1,0,0.2,0,0.3-0.1c0.1,0,0.2-0.1,0.2-0.1
			c0.1,0,0.1,0,0.2,0.1c0,0.1,0.1,0.2,0.1,0.3c0,0.2-0.1,0.4-0.2,0.6S90.1,16,89.9,16c-0.6,0-1.1-0.4-1.4-1.1
			c-0.3-0.7-0.4-1.8-0.4-3.2c0-0.5,0-1.3,0.1-2.5c0-0.2,0-0.4,0-0.5c-0.6,1.6-1.2,3.2-1.8,5c-0.5,1.8-1,2.7-1.3,2.7
			c-0.3,0-0.5-0.3-0.6-1c-0.1-0.7-0.1-2.1-0.1-4.4c0-0.7,0-1.4,0.1-2.1c0-0.1,0-0.2,0-0.2c0-0.3,0-0.6-0.1-0.8
			c-0.1-0.3-0.1-0.4-0.1-0.4c0-0.1,0.1-0.2,0.2-0.3s0.3-0.1,0.6-0.1c0.2,0,0.3,0,0.3,0.1c0.1,0.1,0.1,0.2,0.1,0.3c0,0,0,0.1,0,0.2
			c-0.2,0.9-0.3,2-0.3,3.2c0,1.1,0,1.9,0,2.5C85.2,13.9,85.3,14.4,85.3,14.8z"/>
	</g>
	<g>
		<defs>
			<rect id="SVGID_1_" x="79.8" y="13.6" width="38.5" height="61.8"/>
		</defs>
		<clipPath id="SVGID_2_">
			<use xlink:href="#SVGID_1_"  style="overflow:visible;"/>
		</clipPath>
		<path class="st4" d="M92.2,131.5c-1.7-0.4-2.1-1.7-2.2-2.8c-0.2,0.7-0.4,1.5-0.6,2.1c-0.2,0.6-0.2,1.6,0.5,2.2
			c0.9,0.7,4.5,1.1,5.7,0.3c1-0.6,0.7-2.7,0.4-4.2C95.9,131,94.9,132.1,92.2,131.5"/>
		<path class="st5" d="M89.9,133c0.9,0.7,4.5,1.1,5.7,0.3c0.5-0.3,0.7-0.9,0.7-1.7c0,0.9-0.1,1.8-0.7,2.1c-1.2,0.8-4.8,0.4-5.7-0.3
			c-0.5-0.4-0.6-1.1-0.6-1.7C89.4,132.2,89.6,132.7,89.9,133"/>
		<path class="st6" d="M91.6,50.7l-0.5,0.8l-1.6,4.1l-4.4,11.5L84.8,68c-1.2,1.8-2.5,2-3.7,1.3c-2.1-1.3-1.2-4.8-0.7-6.3
			c1.3-3.9,6.1-15.3,6.1-15.3C90.3,46.8,91.6,50.7,91.6,50.7"/>
		<path class="st7" d="M89.6,55.7l-4.4,11.5c-1.7-0.3-4.5-0.7-4.5-0.7s0.8-3.6,2.6-1.2c0.4-0.2,4.9-10.4,4.9-10.4L89.6,55.7z"/>
		<path class="st6" d="M106.4,50.7l0.5,0.8l1.6,4.1l4.4,11.5l0.3,0.9c1.2,1.8,2.5,2,3.7,1.3c2.1-1.3,1.2-4.8,0.7-6.3
			c-1.3-3.9-6.1-15.3-6.1-15.3C107.8,46.8,106.4,50.7,106.4,50.7"/>
	</g>
	<g>
		<path class="st8" d="M108.5,55.7l4.4,11.5c1.7-0.3,4.4-0.3,4.4-0.3s-0.4-3.9-2.6-1.5c-0.4-0.2-4.9-10.4-4.9-10.4L108.5,55.7z"/>
		<path class="st9" d="M103.8,45.1c-3.1,0.2-6.2,0.2-9.3,0c0.2-2.5,0.2-4.9,0-7.4c3.1-0.2,6.2-0.2,9.3,0
			C103.6,40.1,103.6,42.6,103.8,45.1"/>
		<path class="st8" d="M102.9,37.6l-4-0.1c-1.4,0-2.9,0.1-4.3,0.1c0.1,0.6,0.1,0.8,0.1,1.4c1.7,1.2,5,2.2,9,1.3
			c0-0.9,0.1-1.8,0.2-2.7C103.5,37.7,103.2,37.6,102.9,37.6"/>
		<path class="st10" d="M111.2,75.5c-0.7-2.4-2.9-7.7-2.9-7.7c-0.2-2.5-0.6-4.9,0.1-9.1c0,0,2.3,3.9,2.3,3.9c2.5-2.3,6.4-3,6.4-3
			s-3.9-10.4-5-12.3c-3.2-5.4-8.5-5.9-8.5-5.9s-1.6,2.2-4.4,2.4c-3,0.2-4.4-2.4-4.4-2.4s-5.3,0.5-8.5,5.9c-1.2,1.9-5,12.3-5,12.3
			s3.9,0.7,6.4,3c0,0,2.3-3.9,2.3-3.9c0.7,4.3,0.3,6.6,0.1,9.1c0,0-2.1,5.3-2.9,7.7"/>
		<path class="st11" d="M81.1,59.8c0,0,3.9,0.7,6.4,3c0,0,0.5-0.9,1.6-1.7c-1.7-1.4-5.9-3.1-7.3-3.6C81.6,58.7,81.1,59.8,81.1,59.8"
			/>
		<path class="st11" d="M117.3,59.8c0,0-3.9,0.7-6.4,3c0,0-0.5-0.9-1.6-1.7c1.7-1.4,5.9-3.1,7.3-3.6
			C116.9,58.7,117.3,59.8,117.3,59.8"/>
	</g>
	<g>
		<defs>
			<rect id="SVGID_3_" x="79.8" y="13.6" width="38.5" height="61.8"/>
		</defs>
		<clipPath id="SVGID_4_">
			<use xlink:href="#SVGID_3_"  style="overflow:visible;"/>
		</clipPath>
		<path class="st12" d="M107.5,68.2l0.8-10.2c0,0,0.7-4.8-2.6-9.2l-1.6-6.9c-0.2-0.2-0.4,0.1-0.5-0.1l1.6,7
			c-1.2,0.4-4.1,1.2-6.2,1.2c-2,0-5-0.6-6.2-1l1.6-7.4c-0.2,0.2-0.2-0.1-0.5,0.1l-1.6,7.2c0,0,0,0,0,0c-2.9,3.5-2.6,9.1-2.6,9.1
			l0.8,9.7"/>
		<path class="st13" d="M104.5,16.8c0,1.8-2.4,3.2-5.3,3.2c-2.9,0-5.3-1.5-5.3-3.2c0-2,2.4-3.2,5.3-3.2
			C102.2,13.6,104.5,14.6,104.5,16.8"/>
	</g>
	<g>
		<path class="st14" d="M99.3,15.2C99.3,15.2,99.3,15.2,99.3,15.2C99.2,15.2,99.2,15.2,99.3,15.2c-5.8,0-10.7,3.5-9.5,13.5
			c1,8.8,5.6,9.5,9.1,9.5c0.1,0,0.3,0,0.4,0c0.1,0,0.3,0,0.4,0c3.5,0,7.6-0.9,9-9.5C110.4,18.8,105.1,15.2,99.3,15.2"/>
		<path class="st8" d="M93.6,31.8c0.4,1.3,0.5,2.2-0.3,2.5c-0.8,0.3-2.1-0.4-2.7-1.5c-0.9-1.7-0.5-3,0.4-3.2
			C91.7,29.3,93.1,30.6,93.6,31.8"/>
		<path class="st15" d="M91.5,31.1C91.5,31.1,91.5,31.1,91.5,31.1C91.5,31.1,91.5,31.1,91.5,31.1c-0.1-0.1-0.1-0.1-0.2-0.2
			c-0.1-0.1-0.1-0.1-0.2-0.2c-0.1-0.1-0.2-0.1-0.3-0.1c0,0-0.1,0-0.1,0c0,0-0.1,0.1-0.1,0.1c0,0,0,0,0,0.1c0,0,0,0,0,0.1
			c0,0,0,0.1-0.1,0.1c0,0,0,0.1,0,0.1c0,0,0,0.1,0,0.1c0,0.1,0,0.1,0,0.1s0,0,0-0.1c0,0,0-0.1,0-0.1c0,0,0-0.1,0-0.1
			c0,0,0-0.1,0-0.2c0,0,0-0.1,0-0.1c0,0,0-0.1,0-0.1c0-0.1,0.1-0.1,0.1-0.2c0.1,0,0.1-0.1,0.2-0.1c0.2,0,0.3,0,0.4,0
			c0.1,0,0.2,0.1,0.3,0.1c0.1,0,0.2,0.1,0.2,0.1c0,0,0,0,0.1,0c0,0,0,0,0,0l0,0c0.1,0.1,0.1,0.2,0,0.3
			C91.8,31.2,91.7,31.3,91.5,31.1C91.6,31.2,91.6,31.2,91.5,31.1"/>
		<path class="st8" d="M105,31.9c-0.4,1.3-0.5,2.2,0.3,2.5c0.8,0.3,2-0.4,2.6-1.5c0.9-1.7,0.5-2.9-0.3-3.2
			C106.8,29.4,105.4,30.6,105,31.9"/>
		<path class="st15" d="M106.3,30.9C106.3,30.9,106.3,30.9,106.3,30.9C106.3,30.8,106.3,30.8,106.3,30.9c0.1-0.1,0.2-0.1,0.3-0.2
			c0.1,0,0.2-0.1,0.3-0.1c0.1,0,0.3-0.1,0.4,0c0.1,0,0.1,0.1,0.2,0.1c0.1,0,0.1,0.1,0.1,0.2c0,0,0,0.1,0,0.1c0,0,0,0.1,0,0.1
			c0,0.1,0,0.1,0,0.2c0,0,0,0.1,0,0.1c0,0,0,0.1,0,0.1c0,0.1,0,0.1,0,0.1s0,0,0-0.1c0,0,0-0.1,0-0.1c0,0,0-0.1,0-0.1
			c0,0,0-0.1-0.1-0.1c0,0,0,0,0-0.1c0,0,0,0,0-0.1c0,0-0.1-0.1-0.1-0.1c0,0-0.1,0-0.1,0c-0.1,0-0.2,0-0.3,0.1
			c-0.1,0-0.2,0.1-0.2,0.2c-0.1,0.1-0.1,0.1-0.1,0.1c0,0,0,0,0,0c0,0,0,0,0,0c-0.1,0.1-0.2,0.1-0.3,0
			C106.1,31.2,106.1,31,106.3,30.9C106.2,30.9,106.2,30.9,106.3,30.9L106.3,30.9z"/>
		<path class="st9" d="M107.1,25.6c-0.2-6.8-7.6-7-7.9-7c-0.3,0-7.7,0.1-7.9,7c-0.1,2.5-0.4,8.3,1.5,11.1c0.4,0.6,0.8,1.4,1.9,1.6
			c0.6,0.9,2.7,2,4.1,2c1.2,0,3.2-0.6,4-1.4c1.5-0.2,2.2-1.3,2.6-2.2C106.6,34.4,107.2,28.1,107.1,25.6"/>
		<path class="st8" d="M106.8,26.7c-7.6-0.6-10.4-3.3-11.2-5.6c0,2.3-0.8,5.9-4.2,8.6l0.1,0.1c3.4-2.7,4.1-5.6,4.1-7.9
			c0.8,2.3,3.7,5,11.2,5.6c0,0,0.1,1.4,0.1,2.5C107,28.9,106.8,26.7,106.8,26.7"/>
		<path class="st16" d="M98.2,33.6c0,0,1.8,0.2,2.5,0C100.1,34.4,98.5,34.1,98.2,33.6"/>
		<path class="st17" d="M96.2,26.2c0,0,0.1,0,0.3,0c0.2,0,0.4-0.1,0.7-0.1c0.3,0,0.6-0.1,1-0.1c0.2,0,0.4,0,0.5,0c0.2,0,0.4,0,0.6,0
			c0.2,0,0.4,0,0.6,0c0.2,0,0.4,0,0.5,0c0.1,0,0.2,0,0.3,0c0.1,0,0.2,0,0.3,0c0.2,0,0.3,0,0.5,0c0.1,0,0.3,0,0.4,0.1
			c0.1,0,0.2,0,0.3,0.1c0.2,0,0.3,0,0.3,0s-0.1,0-0.3,0c-0.1,0-0.2,0-0.3,0c-0.1,0-0.2,0-0.4,0c-0.1,0-0.3,0-0.5,0
			c-0.2,0-0.3,0-0.5,0c-0.2,0-0.4,0-0.5,0c-0.2,0-0.4,0-0.6,0c-0.2,0-0.4,0-0.6,0c-0.2,0-0.4,0-0.5,0c-0.2,0-0.3,0-0.5,0
			c-0.2,0-0.3,0-0.5,0c-0.3,0-0.5,0-0.7,0.1C96.3,26.2,96.2,26.2,96.2,26.2"/>
		<path class="st17" d="M97.5,25.5c0,0,0,0,0.1,0c0.1,0,0.2,0,0.3,0c0.1,0,0.3,0,0.4,0c0.2,0,0.3,0,0.5,0c0.2,0,0.3,0,0.5,0
			c0.1,0,0.2,0,0.2,0c0.1,0,0.1,0,0.2,0c0.1,0,0.2,0,0.3,0c0.1,0,0.1,0,0.1,0s0,0-0.1,0c-0.1,0-0.2,0-0.3,0c-0.1,0-0.3,0-0.4,0
			c-0.2,0-0.3,0-0.5,0c-0.1,0-0.2,0-0.3,0c-0.1,0-0.2,0-0.2,0c-0.1,0-0.2,0-0.2,0c-0.1,0-0.1,0-0.2,0c-0.1,0-0.2,0-0.3,0
			C97.6,25.5,97.5,25.5,97.5,25.5"/>
		<path class="st14" d="M101.4,28.4C101.4,28.4,101.4,28.4,101.4,28.4c0,0,0.1,0,0.1,0c0.1,0,0.2,0,0.3,0c0.1,0,0.1,0,0.2,0
			c0.1,0,0.1,0,0.2,0c0.1,0,0.2,0,0.2,0c0.1,0,0.2,0,0.3,0c0.1,0,0.2,0,0.3,0c0.1,0,0.2,0,0.2,0c0.1,0,0.2,0,0.2,0.1
			c0.1,0,0.1,0,0.2,0.1c0.1,0,0.1,0.1,0.2,0.1c0,0,0.1,0.1,0.1,0.1c0.1,0,0.1,0.1,0.1,0.1c0,0,0,0.1,0,0.1c0,0,0,0,0,0l0,0
			c0,0,0,0-0.1,0c0,0-0.1,0-0.1,0c0,0-0.1,0-0.2,0c-0.1,0-0.1,0-0.2,0c-0.1,0-0.1,0-0.2,0c-0.1,0-0.2,0-0.2,0c-0.1,0-0.2,0-0.2,0
			c-0.1,0-0.2,0-0.2,0c-0.1,0-0.2,0-0.2,0c-0.1,0-0.3,0-0.4,0c-0.1,0-0.2,0-0.3,0c0,0-0.1,0-0.1,0c0,0,0,0,0,0l0,0
			c-0.1,0-0.2-0.1-0.2-0.2C101.2,28.5,101.3,28.4,101.4,28.4L101.4,28.4z"/>
		<path class="st14" d="M97.1,28.5C97.1,28.5,97.1,28.5,97.1,28.5c0,0-0.1,0-0.1,0c-0.1,0-0.2,0-0.3-0.1c-0.1,0-0.1,0-0.2,0
			c-0.1,0-0.1,0-0.2,0c-0.1,0-0.2,0-0.2,0c-0.1,0-0.2,0-0.3,0c-0.1,0-0.2,0-0.3,0c-0.1,0-0.2,0-0.2,0c-0.1,0-0.2,0-0.2,0
			c-0.1,0-0.1,0-0.2,0.1c-0.1,0-0.1,0-0.2,0.1c0,0-0.1,0-0.1,0.1c-0.1,0-0.1,0.1-0.1,0.1c0,0,0,0.1,0,0.1c0,0,0,0,0,0l0,0
			c0,0,0,0,0.1,0c0,0,0.1,0,0.1,0c0,0,0.1,0,0.2,0c0.1,0,0.1,0,0.2,0c0.1,0,0.1,0,0.2,0c0.1,0,0.2,0,0.2,0c0.1,0,0.2,0,0.2,0
			c0.1,0,0.2,0,0.2,0c0.1,0,0.2,0,0.2,0c0.1,0,0.3,0,0.4,0.1c0.1,0,0.2,0,0.3,0.1c0,0,0.1,0,0.1,0c0,0,0,0,0,0l0,0
			c0.1,0,0.2,0,0.2-0.1C97.2,28.6,97.2,28.5,97.1,28.5L97.1,28.5z"/>
		<path class="st18" d="M96.4,35.6C96.4,35.6,96.4,35.6,96.4,35.6c0.1,0.1,0.2,0.1,0.2,0.1c0.1,0,0.2,0.1,0.3,0.1
			c0.1,0,0.2,0.1,0.4,0.1c0.1,0,0.3,0.1,0.4,0.1c0.2,0,0.3,0.1,0.5,0.1c0.2,0,0.3,0.1,0.5,0.1c0.1,0,0.2,0,0.3,0c0.1,0,0.2,0,0.3,0
			c0.1,0,0.2,0,0.3,0l0.1,0c0,0,0.1,0,0.1,0c0.1,0,0.2,0,0.3,0c0.1,0,0.2,0,0.3,0c0.1,0,0.2,0,0.2-0.1c0,0,0.1,0,0.1,0
			c0,0,0.1,0,0.1,0c0.1,0,0.2,0,0.2-0.1c0.1,0,0.1,0,0.2-0.1c0.1-0.1,0.3-0.1,0.4-0.1c0.1,0,0.2-0.1,0.3-0.1c0.1,0,0.1-0.1,0.2-0.1
			c0,0,0.1,0,0.1,0s0,0,0,0.1c0,0-0.1,0.1-0.1,0.1c-0.1,0.1-0.1,0.1-0.2,0.2c-0.1,0.1-0.2,0.2-0.3,0.2c-0.1,0.1-0.3,0.2-0.4,0.2
			c-0.1,0-0.2,0.1-0.2,0.1c-0.1,0-0.2,0.1-0.3,0.1c-0.1,0-0.2,0.1-0.3,0.1c0,0-0.1,0-0.1,0c0,0-0.1,0-0.1,0c0,0-0.1,0-0.1,0l-0.2,0
			c-0.1,0-0.2,0-0.3,0c-0.1,0-0.2,0-0.3,0c-0.1,0-0.2,0-0.3,0c0,0-0.1,0-0.1,0c0,0-0.1,0-0.1,0c-0.1,0-0.2-0.1-0.3-0.1
			c-0.2-0.1-0.3-0.1-0.5-0.2c-0.2-0.1-0.3-0.2-0.4-0.2c-0.3-0.2-0.4-0.3-0.6-0.4C96.4,35.7,96.4,35.6,96.4,35.6"/>
		<path class="st8" d="M98,37.3c0,0,0,0,0.1,0c0,0,0.1,0,0.1,0c0,0,0.1,0,0.2,0c0.1,0,0.1,0,0.2,0c0.1,0,0.1,0,0.2,0
			c0.1,0,0.1,0,0.2,0c0.1,0,0.1,0,0.2,0c0.1,0,0.1,0,0.2,0c0.1,0,0.1,0,0.2,0c0.1,0,0.1,0,0.2,0c0.1,0,0.1,0,0.2,0
			c0.1,0,0.1,0,0.2,0c0,0,0.1,0,0.1,0c0.1,0,0.1,0,0.1,0s0,0-0.1,0.1c0,0-0.1,0-0.1,0.1c0,0-0.1,0-0.1,0.1c-0.1,0-0.1,0-0.2,0.1
			c-0.1,0-0.1,0-0.2,0c-0.1,0-0.1,0-0.2,0c-0.1,0-0.2,0-0.2,0h-0.1c0,0-0.1,0-0.1,0c-0.1,0-0.2,0-0.2,0c-0.1,0-0.1,0-0.2,0
			c-0.1,0-0.1,0-0.2-0.1c-0.1,0-0.1,0-0.2-0.1C98.2,37.4,98.1,37.4,98,37.3C98,37.3,98,37.3,98,37.3"/>
		<path class="st19" d="M98.3,30.7c0,1.4-1.2,2.5-2.7,2.5s-2.7-1.1-2.7-2.5c0-1.4,1.1-1.9,2.6-1.9C97,28.8,98.3,29.4,98.3,30.7"/>
		<path class="st19" d="M100.2,30.7c0,1.4,1.2,2.5,2.7,2.5c1.5,0,2.7-1.1,2.7-2.5c0-1.4-1.1-1.9-2.6-1.9
			C101.5,28.8,100.2,29.4,100.2,30.7"/>
		<path class="st20" d="M96.9,30.7c0,0.6-0.4,1.1-0.9,1.1c-0.5,0-0.9-0.5-0.9-1.1c0-0.6,0.4-1.1,0.9-1.1
			C96.5,29.6,96.9,30.1,96.9,30.7"/>
		<path class="st2" d="M95.8,30.7c0,0.1-0.1,0.3-0.2,0.3c-0.1,0-0.2-0.1-0.2-0.3c0-0.1,0.1-0.3,0.2-0.3
			C95.8,30.5,95.8,30.6,95.8,30.7"/>
		<path class="st20" d="M103.6,30.7c0,0.6-0.4,1.1-0.9,1.1c-0.5,0-0.9-0.5-0.9-1.1c0-0.6,0.4-1.1,0.9-1.1
			C103.2,29.6,103.6,30.1,103.6,30.7"/>
		<path class="st2" d="M102.5,30.7c0,0.1-0.1,0.3-0.2,0.3c-0.1,0-0.2-0.1-0.2-0.3c0-0.1,0.1-0.3,0.2-0.3
			C102.4,30.5,102.5,30.6,102.5,30.7"/>
		<path class="st21" d="M107.1,29.6l-0.2-0.4l-1.2,0.7c-0.4-0.8-1.4-1.3-2.8-1.3c-1.7,0-2.7,0.7-2.8,1.8c-0.6-0.4-1.3-0.3-1.7-0.1
			c-0.2-1.1-1.3-1.8-2.9-1.8c-1.4,0-2.4,0.5-2.7,1.4l-1.4-0.8l-0.2,0.4l1.5,0.9c0,0.1,0,0.2,0,0.3c0,1.5,1.3,2.7,2.9,2.7
			c1.5,0,2.8-1.1,2.9-2.6c0.2-0.1,1-0.5,1.7,0.1c0.1,1.4,1.4,2.4,2.9,2.4c1.6,0,2.9-1.2,2.9-2.7c0-0.1,0-0.3,0-0.4L107.1,29.6z
			 M95.6,33c-1.4,0-2.5-1-2.5-2.2c0-1.4,1.3-1.7,2.4-1.7c0.8,0,2.5,0.2,2.5,1.7C98.1,31.9,97,33,95.6,33 M103,33
			c-1.4,0-2.5-1-2.5-2.2c0-1.4,1.3-1.7,2.4-1.7c0.8,0,2.6,0.2,2.6,1.7C105.5,31.9,104.4,33,103,33"/>
		<path class="st14" d="M94.9,18.5c0,0-1.7,0.5-3.2,2.2c-2.3,2.6-2.1,6.7-0.4,9.2c3.4-2.7,4.2-6.4,4.2-8.7c0.8,2.3,3.7,5,11.2,5.6
			c0,0,0.2,2.1,0.1,3.3C108.9,27.8,107.1,14.8,94.9,18.5"/>
		<path class="st22" d="M96.6,20c0.1-0.1,0.2,0,0.5,0.3c0.2,0.3,0.6,0.7,1.3,1.4c0.5,0.5,1.1,1,1.8,1.5c0.7,0.5,1.5,0.9,2.3,1.2
			c0.2,0.1,0.4,0.2,0.6,0.2c0.2,0.1,0.4,0.1,0.5,0.2c0.2,0.1,0.3,0.1,0.5,0.2c0.2,0,0.3,0.1,0.4,0.1c0.1,0,0.3,0.1,0.4,0.1
			c0.1,0,0.2,0,0.3,0.1c0.1,0,0.2,0.1,0.2,0.1s-0.1,0-0.2,0c-0.1,0-0.2,0-0.3,0c-0.1,0-0.2,0-0.4-0.1c-0.1,0-0.3,0-0.4-0.1
			c-0.2,0-0.3-0.1-0.5-0.1c-0.2,0-0.4-0.1-0.6-0.1c-0.2,0-0.4-0.1-0.6-0.2c-0.8-0.2-1.7-0.6-2.5-1.1c-0.8-0.5-1.5-1-2-1.5
			c-0.1-0.1-0.2-0.2-0.3-0.3c-0.1-0.1-0.1-0.2-0.2-0.2c-0.1-0.2-0.3-0.3-0.4-0.4c-0.1-0.1-0.2-0.3-0.2-0.4c-0.1-0.1-0.1-0.2-0.2-0.3
			C96.5,20.2,96.5,20.1,96.6,20"/>
		<path class="st22" d="M97.3,20.1c0-0.1,0.2,0,0.4,0.1c0.1,0.1,0.3,0.2,0.4,0.3c0.2,0.1,0.4,0.3,0.7,0.4c0,0,0.1,0.1,0.2,0.1
			c0.1,0,0.1,0.1,0.2,0.1c0.1,0.1,0.2,0.1,0.4,0.2c0.2,0.2,0.5,0.3,0.8,0.4c0.3,0.1,0.6,0.3,0.9,0.4c0.3,0.1,0.6,0.2,0.9,0.3
			c0.3,0.1,0.6,0.2,0.8,0.2c0.1,0,0.2,0.1,0.4,0.1c0.1,0,0.2,0,0.3,0.1c0.4,0.1,0.6,0.1,0.6,0.1s-0.2,0-0.6-0.1c-0.1,0-0.2,0-0.3,0
			c-0.1,0-0.2,0-0.4-0.1c-0.3,0-0.5-0.1-0.8-0.2c-0.3-0.1-0.6-0.1-0.9-0.3c-0.3-0.1-0.6-0.2-0.9-0.3c-0.3-0.1-0.6-0.2-0.9-0.4
			c-0.1-0.1-0.3-0.1-0.4-0.2c-0.1,0-0.1-0.1-0.2-0.1c-0.1,0-0.1-0.1-0.2-0.1c-0.2-0.1-0.3-0.2-0.4-0.3c-0.1-0.1-0.2-0.2-0.3-0.2
			c-0.2-0.1-0.3-0.3-0.4-0.4C97.3,20.3,97.3,20.2,97.3,20.1"/>
		<path class="st22" d="M94.9,21.5c0.1,0,0.1,0.1,0.1,0.4c0,0.1,0,0.3-0.1,0.6c0,0.2-0.1,0.5-0.2,0.8c0,0.1,0,0.1-0.1,0.2
			c0,0.1,0,0.1-0.1,0.2c0,0.1-0.1,0.3-0.2,0.4c-0.1,0.3-0.2,0.6-0.4,0.9c-0.1,0.3-0.3,0.6-0.5,0.9c-0.2,0.3-0.3,0.6-0.5,0.8
			c-0.2,0.3-0.4,0.5-0.5,0.7c-0.1,0.1-0.2,0.2-0.2,0.3c-0.1,0.1-0.1,0.2-0.2,0.3c-0.3,0.3-0.4,0.5-0.4,0.5s0.1-0.2,0.4-0.5
			c0.1-0.1,0.1-0.2,0.2-0.3c0.1-0.1,0.1-0.2,0.2-0.3c0.1-0.2,0.3-0.5,0.4-0.8c0.1-0.3,0.3-0.6,0.4-0.9c0.1-0.3,0.3-0.6,0.4-0.9
			c0.1-0.3,0.2-0.6,0.3-0.9c0-0.1,0.1-0.3,0.1-0.4c0-0.1,0-0.1,0.1-0.2c0-0.1,0-0.1,0-0.2c0-0.2,0.1-0.3,0.1-0.5
			c0-0.1,0.1-0.3,0.1-0.4c0.1-0.2,0.1-0.4,0.1-0.5C94.8,21.5,94.9,21.4,94.9,21.5"/>
		<path class="st23" d="M99.3,17.8c4.7,0,8.6,3.8,9.1,8.6c0-0.3,0-0.6,0-0.9c0-5.3-4.1-9.6-9.1-9.6c-5,0-9.1,4.3-9.1,9.6
			c0,0.3,0,0.6,0,0.9C90.7,21.6,94.6,17.8,99.3,17.8"/>
		<path class="st11" d="M99.2,43.5c-2.1,0-3.9-1.1-4.6-2.6l-3.1,1.2c1.3,2.5,4.1,4.2,7.4,4.3c0.1,0,0.2-1.9,0.3-1.9
			c0.1,0,0.2,1.9,0.3,1.9c3.3-0.1,6.1-1.8,7.4-4.3l-3.1-1.2C103.1,42.5,101.3,43.5,99.2,43.5"/>
		<path class="st24" d="M86.7,65.5c0,0-1.1,0.3-2.7-0.4c-1.5-0.7-2.1-1.8-2.1-1.8s1.2-0.3,2.7,0.4C86.1,64.4,86.7,65.5,86.7,65.5"/>
		<path class="st25" d="M81.8,63.2C81.8,63.2,81.8,63.3,81.8,63.2l4.8,2.3c0,0,0.1,0,0.1,0s0,0,0-0.1L81.8,63.2
			C81.8,63.2,81.8,63.2,81.8,63.2"/>
		<path class="st26" d="M115.4,56.4c0.3-1.1-0.9-1.2-1.4-0.8c-0.5,0.4-0.7,0.9-0.5,1.5l-3,2.4l1,1.3l3.2-2.6c0.4,0.1,0.9,0,1.2-0.2
			C116.4,57.5,116.5,56.3,115.4,56.4"/>
		<path class="st26" d="M107.4,53.8c0.3-1-0.8-1.1-1.3-0.7c-0.4,0.3-0.6,0.8-0.4,1.3l-2.7,2.2l0.9,1.2l2.9-2.3
			c0.4,0.1,0.8,0,1.1-0.2C108.4,54.8,108.5,53.7,107.4,53.8"/>
		<path class="st27" d="M93.9,63.7h8.5c0.1-0.1,0.2-0.1,0.3-0.2c2.4-1.4,4.2-5.6,3-7.7c-1.2-2.1-5.9-1.4-8.2,0
			c-2.6,1.6-5,5.5-3.7,7.6C93.8,63.6,93.9,63.6,93.9,63.7"/>
		<path class="st28" d="M99,55.8c-7.8,0-14,4.9-14,11H113C113,60.7,106.7,55.8,99,55.8"/>
		<path class="st27" d="M113.3,67.1c0-1.4-0.3-2.7-0.9-3.9c-0.4,1.5-1.3,3-2.4,3.9H113.3z"/>
		<path class="st28" d="M101.3,66.7h8.5c0.1-0.1,0.2-0.1,0.3-0.2c2.4-1.4,4.2-5.6,3-7.7c-1.2-2.1-5.9-1.4-8.2,0
			c-2.6,1.6-5,5.5-3.7,7.6C101.2,66.6,101.3,66.7,101.3,66.7"/>
		<path class="st29" d="M103.3,56.9c-0.9-0.6-3.8-0.9-6.6-0.6c-4.3,0.4-8.1,2.5-10.1,6.1C89.2,60,95.6,56.4,103.3,56.9"/>
		<path class="st27" d="M105.1,58.9c1.1-0.7,1.6-0.6,2.2-1c-1.4,0.1-2.6,0.5-3.4,1c-1.5,0.9-3.5,1.8-4.8,3.5c-0.5,0.7-3.9-0.4-4,0.5
			c-0.2,1.4-2.9,3.6-4,4.1c-0.1,0,6.4-0.2,6.5-0.1l4.1,0c-0.1-0.1-0.1-0.2-0.2-0.2C100.1,64.4,102.4,60.5,105.1,58.9"/>
		<path class="st29" d="M111.1,58.2c-1.3-0.8-6.5,0-7.6,3.2C105.4,59.1,109.2,58.2,111.1,58.2"/>
		<path class="st27" d="M90.4,66.8c0-0.1-0.1-0.2-0.1-0.2c-0.5-0.7-1.2-1.4-2.1-1.4c0-0.9-1-1.2-1.8-1c0-0.2-0.3-0.9-0.6-1.3
			c-0.6,1.2-0.9,2.6-0.9,3.9H90.4z"/>
		<path class="st24" d="M86.7,65.9c0,0-1.1-0.2-2.2-1.7c-1.1-1.4-1.1-2.6-1.1-2.6s1.2,0.3,2.2,1.7C86.7,64.6,86.7,65.9,86.7,65.9"/>
		<path class="st25" d="M83.4,61.5C83.4,61.5,83.4,61.6,83.4,61.5l3.3,4.3c0,0,0.1,0,0.1,0s0,0,0-0.1L83.4,61.5
			C83.4,61.5,83.4,61.5,83.4,61.5"/>
		<path class="st24" d="M87.6,64.1c0,0-0.6,1-2.3,1.6c-1.6,0.5-2.8,0.1-2.8,0.1s0.7-1,2.3-1.6C86.4,63.7,87.6,64.1,87.6,64.1"/>
		<path class="st25" d="M82.5,65.8C82.5,65.8,82.5,65.8,82.5,65.8l5-1.7c0,0,0-0.1,0-0.1s0,0-0.1,0L82.5,65.8
			C82.5,65.8,82.5,65.8,82.5,65.8"/>
		<path class="st30" d="M84.4,66.1c0,0.4-0.3,0.8-0.8,0.8c-0.4,0-0.8-0.4-0.8-0.8s0.3-0.8,0.8-0.8C84,65.3,84.4,65.6,84.4,66.1"/>
		<path class="st2" d="M83.1,65.7c0-0.2,0.2-0.3,0.3-0.2C83.2,65.5,83.1,65.6,83.1,65.7"/>
		<path class="st31" d="M83.9,66.4c0,0.1-0.1,0.2-0.2,0.2c-0.1,0-0.2-0.1-0.2-0.2c0-0.1,0.1-0.2,0.2-0.2
			C83.8,66.2,83.9,66.3,83.9,66.4"/>
		<path class="st32" d="M85.7,66.3c0.1,0.4-0.2,0.8-0.7,0.9c-0.4,0.1-0.8-0.3-0.9-0.7c-0.1-0.4,0.2-0.8,0.7-0.9
			C85.2,65.5,85.6,65.9,85.7,66.3"/>
		<path class="st31" d="M84.8,66.2c0,0.1-0.1,0.2-0.1,0.2c-0.1,0-0.2-0.1-0.2-0.1c0-0.1,0.1-0.2,0.1-0.2
			C84.7,66,84.8,66.1,84.8,66.2"/>
		<path class="st33" d="M85.1,65c0.1,0.4-0.2,0.8-0.7,0.9c-0.4,0.1-0.8-0.3-0.9-0.7c-0.1-0.4,0.2-0.8,0.7-0.9
			C84.7,64.2,85.1,64.5,85.1,65"/>
		<path class="st2" d="M83.8,65.1c-0.1-0.5,0.4-0.8,0.6-0.7C84.1,64.5,83.8,64.5,83.8,65.1"/>
		<path class="st31" d="M84.3,65.2c0,0.1-0.1,0.2-0.1,0.2c-0.1,0-0.2-0.1-0.2-0.1c0-0.1,0.1-0.2,0.1-0.2
			C84.2,65.1,84.3,65.1,84.3,65.2"/>
		<path class="st33" d="M86.9,66.2c-0.1,0.4-0.5,0.7-0.9,0.6c-0.4-0.1-0.7-0.5-0.6-0.9c0.1-0.4,0.5-0.7,0.9-0.6
			C86.7,65.3,87,65.8,86.9,66.2"/>
		<path class="st2" d="M85.7,65.7c0.1-0.3,0.5-0.3,0.7-0.1C86.2,65.5,85.9,65.5,85.7,65.7"/>
		<path class="st30" d="M86.4,65.4c-0.1,0.4-0.5,0.7-0.9,0.6c-0.4-0.1-0.7-0.5-0.6-0.9c0.1-0.4,0.5-0.7,0.9-0.6
			C86.2,64.5,86.5,64.9,86.4,65.4"/>
		<path class="st31" d="M85.6,65.6c0,0.1-0.1,0.2-0.2,0.1c-0.1,0-0.1-0.1-0.1-0.2c0-0.1,0.1-0.2,0.2-0.1
			C85.5,65.4,85.6,65.5,85.6,65.6"/>
		<path class="st34" d="M87.7,65.3c-0.1,0.4-0.5,0.7-0.9,0.6c-0.4-0.1-0.7-0.5-0.6-0.9c0.1-0.4,0.5-0.7,0.9-0.6
			C87.5,64.5,87.7,64.9,87.7,65.3"/>
		<path class="st2" d="M86.4,64.8c0.1-0.4,0.5-0.4,0.7-0.2C86.8,64.6,86.6,64.6,86.4,64.8"/>
		<path class="st35" d="M87.4,64.8c0,0.1-0.1,0.2-0.2,0.1c-0.1,0-0.1-0.1-0.1-0.2c0-0.1,0.1-0.2,0.2-0.1
			C87.4,64.6,87.5,64.7,87.4,64.8"/>
		<path class="st36" d="M89.4,66.5c-0.1,0.4-0.5,0.7-0.9,0.6c-0.4-0.1-0.7-0.5-0.6-0.9c0.1-0.4,0.5-0.7,0.9-0.6
			C89.2,65.7,89.4,66.1,89.4,66.5"/>
		<path class="st2" d="M88.2,66c0.1-0.3,0.5-0.3,0.7-0.1C88.6,65.8,88.4,65.8,88.2,66"/>
		<path class="st31" d="M88.7,66.4c0,0.1-0.1,0.2-0.2,0.1c-0.1,0-0.1-0.1-0.1-0.2c0-0.1,0.1-0.2,0.2-0.1
			C88.7,66.2,88.8,66.3,88.7,66.4"/>
		<path class="st37" d="M86,64.3c-0.1,0.4-0.5,0.7-0.9,0.6s-0.7-0.5-0.6-0.9c0.1-0.4,0.5-0.7,0.9-0.6C85.8,63.5,86.1,63.9,86,64.3"
			/>
		<path class="st2" d="M84.7,64c-0.1-0.3,0.2-0.5,0.5-0.4C84.9,63.7,84.8,63.8,84.7,64"/>
		<path class="st31" d="M85.7,64.3c0,0.1-0.1,0.2-0.2,0.1c-0.1,0-0.1-0.1-0.1-0.2c0-0.1,0.1-0.2,0.2-0.1
			C85.7,64.1,85.7,64.2,85.7,64.3"/>
		<path class="st30" d="M88.1,66.1c0,0.4-0.4,0.8-0.8,0.7c-0.4,0-0.7-0.4-0.7-0.9c0-0.4,0.4-0.8,0.8-0.7
			C87.8,65.3,88.1,65.7,88.1,66.1"/>
		<path class="st2" d="M86.8,65.7c0.1-0.4,0.5-0.4,0.7-0.2C87.3,65.5,87,65.5,86.8,65.7"/>
		<path class="st31" d="M87.7,66c0,0.1-0.1,0.2-0.2,0.2c-0.1,0-0.2-0.1-0.1-0.2c0-0.1,0.1-0.2,0.2-0.2C87.6,65.9,87.7,65.9,87.7,66"
			/>
		<path class="st38" d="M100.8,65.3c-0.1,0.4-0.5,0.7-0.9,0.6c-0.4-0.1-0.7-0.5-0.6-0.9c0.1-0.4,0.5-0.7,0.9-0.6
			C100.6,64.4,100.9,64.8,100.8,65.3"/>
		<path class="st31" d="M100.2,65.1c0,0.1-0.1,0.2-0.2,0.1c-0.1,0-0.1-0.1-0.1-0.2c0-0.1,0.1-0.2,0.2-0.1
			C100.2,65,100.2,65,100.2,65.1"/>
		<path class="st39" d="M101.3,65.1c-0.1,0.4-0.5,0.7-0.9,0.6c-0.4-0.1-0.7-0.5-0.6-0.9c0.1-0.4,0.5-0.7,0.9-0.6
			C101.1,64.2,101.3,64.7,101.3,65.1"/>
		<path class="st40" d="M100,64.6c0.1-0.4,0.5-0.4,0.7-0.3C100.4,64.3,100.2,64.4,100,64.6"/>
		<path class="st31" d="M101.1,64.8c0,0.1-0.1,0.2-0.2,0.1c-0.1,0-0.1-0.1-0.1-0.2c0-0.1,0.1-0.2,0.2-0.1
			C101,64.6,101.1,64.7,101.1,64.8"/>
		<path class="st30" d="M104.8,66.6c-0.1,0.4-0.5,0.7-0.9,0.6c-0.4-0.1-0.7-0.5-0.6-0.9c0.1-0.4,0.5-0.7,0.9-0.6
			C104.7,65.8,104.9,66.2,104.8,66.6"/>
		<path class="st2" d="M103.6,66.2c0-0.2,0.2-0.3,0.4-0.3C103.8,65.9,103.7,66,103.6,66.2"/>
		<path class="st31" d="M104,66.5c0,0.1-0.1,0.2-0.2,0.1c-0.1,0-0.1-0.1-0.1-0.2c0-0.1,0.1-0.2,0.2-0.1
			C103.9,66.3,104,66.4,104,66.5"/>
		<path class="st41" d="M102.3,66.4c-0.1,0.4-0.6,0.6-1,0.5c-0.4-0.2-0.6-0.6-0.5-1c0.1-0.4,0.6-0.6,1-0.5
			C102.3,65.5,102.5,65.9,102.3,66.4"/>
		<path class="st42" d="M101.5,65.8c0,0.1-0.1,0.1-0.2,0.1c-0.1,0-0.1-0.1-0.1-0.2c0-0.1,0.1-0.1,0.2-0.1
			C101.5,65.6,101.5,65.7,101.5,65.8"/>
		<path class="st30" d="M103.3,66.3c-0.1,0.4-0.6,0.6-1,0.5c-0.4-0.2-0.6-0.6-0.5-1c0.1-0.4,0.6-0.6,1-0.5
			C103.2,65.4,103.4,65.9,103.3,66.3"/>
		<path class="st2" d="M102,65.7c0-0.3,0.3-0.4,0.4-0.3C102.2,65.4,102.1,65.5,102,65.7"/>
		<path class="st31" d="M102.9,66.1c0,0.1-0.1,0.1-0.2,0.1c-0.1,0-0.1-0.1-0.1-0.2c0-0.1,0.1-0.1,0.2-0.1
			C102.8,66,102.9,66.1,102.9,66.1"/>
		<path class="st30" d="M101,66.6c-0.2,0.4-0.7,0.5-1.1,0.2c-0.4-0.2-0.5-0.7-0.2-1.1c0.2-0.4,0.7-0.5,1.1-0.2
			C101.1,65.7,101.2,66.2,101,66.6"/>
		<path class="st40" d="M99.8,66c0-0.4,0.4-0.5,0.6-0.4C100.1,65.6,99.9,65.7,99.8,66"/>
		<path class="st31" d="M100.3,66.4c0,0.1-0.1,0.1-0.2,0.1c-0.1,0-0.1-0.2,0-0.2c0-0.1,0.1-0.1,0.2-0.1
			C100.4,66.2,100.4,66.3,100.3,66.4"/>
		<path class="st43" d="M98.2,65.2c0,0-0.7,0.9-2.3,1c-1.5,0.1-2.4-0.7-2.4-0.7s0.8-0.9,2.3-1C97.3,64.3,98.2,65.2,98.2,65.2"/>
		<path class="st44" d="M93.6,65.4C93.6,65.4,93.6,65.4,93.6,65.4l4.6-0.2c0,0,0,0,0,0s0,0,0,0L93.6,65.4
			C93.6,65.4,93.6,65.4,93.6,65.4"/>
		<path class="st24" d="M99.4,66.3c0,0-1.1,0-2.6-1.1c-1.3-1.1-1.7-2.3-1.7-2.3s1.2,0,2.6,1.1C99.1,65,99.4,66.3,99.4,66.3"/>
		<path class="st25" d="M95.2,62.9C95.2,62.9,95.2,62.9,95.2,62.9l4.2,3.4c0,0,0.1,0,0.1,0s0,0,0-0.1L95.2,62.9
			C95.2,62.9,95.2,62.9,95.2,62.9"/>
		<path class="st24" d="M108,67.9c0,0-1.1,0-2.5-1.2c-1.3-1.1-1.6-2.4-1.6-2.4s1.2,0.1,2.5,1.2C107.7,66.7,108,67.9,108,67.9"/>
		<path class="st25" d="M103.9,64.3C103.9,64.3,103.9,64.4,103.9,64.3l4,3.6c0,0,0.1,0,0.1,0s0,0,0-0.1L103.9,64.3
			C103.9,64.3,103.9,64.3,103.9,64.3"/>
		<path class="st24" d="M105.7,67.8c0,0,0.4-1.1,2-2c1.5-0.9,2.7-0.7,2.7-0.7s-0.5,1.1-2,2C106.9,68,105.7,67.8,105.7,67.8"/>
		<path class="st25" d="M110.3,65.1C110.3,65.1,110.3,65.1,110.3,65.1l-4.6,2.7c0,0,0,0.1,0,0.1s0,0,0.1,0L110.3,65.1
			C110.3,65.1,110.3,65.1,110.3,65.1"/>
		<path class="st24" d="M110.4,67.2c0,0,0.3-1.2,1.9-2.1c1.5-0.9,2.7-0.6,2.7-0.6s-0.4,1.3-1.9,2.1
			C111.7,67.5,110.4,67.2,110.4,67.2"/>
		<path class="st25" d="M115,64.5C115,64.5,115,64.5,115,64.5l-4.6,2.6c0,0,0,0.1,0,0.1s0,0,0.1,0L115,64.5
			C115,64.5,115,64.5,115,64.5"/>
		<path class="st45" d="M98.5,66.1c0,0-0.5-1.2,0.2-2.6c0.7-1.3,2-1.5,2-1.5s0.5,1.3-0.2,2.6C99.8,65.9,98.5,66.1,98.5,66.1"/>
		<path class="st44" d="M100.7,62C100.7,62,100.7,62,100.7,62l-2.2,4.1c0,0,0,0.1,0,0.1s0,0,0.1,0L100.7,62
			C100.7,62,100.7,62,100.7,62"/>
		<path class="st46" d="M99.8,66.3c0.1,0.4-0.2,0.8-0.7,0.9c-0.4,0.1-0.8-0.3-0.9-0.7c-0.1-0.4,0.2-0.8,0.7-0.9
			C99.4,65.5,99.8,65.9,99.8,66.3"/>
		<path class="st30" d="M99.9,65.4c-0.1,0.4-0.5,0.7-0.9,0.6c-0.4-0.1-0.7-0.5-0.6-0.9c0.1-0.4,0.5-0.7,0.9-0.6
			C99.7,64.5,100,64.9,99.9,65.4"/>
		<path class="st47" d="M98.7,64.8c0.1-0.3,0.5-0.3,0.7-0.1C99.1,64.6,98.9,64.7,98.7,64.8"/>
		<path class="st31" d="M99.4,65.8c0,0.1-0.1,0.2-0.2,0.1c-0.1,0-0.1-0.1-0.1-0.2c0-0.1,0.1-0.2,0.2-0.1
			C99.4,65.7,99.5,65.7,99.4,65.8"/>
		<path class="st48" d="M98.7,65.9c0.1,0.4-0.2,0.8-0.7,0.9c-0.4,0.1-0.8-0.3-0.9-0.7c-0.1-0.4,0.2-0.8,0.7-0.9
			C98.3,65.1,98.7,65.4,98.7,65.9"/>
		<path class="st2" d="M97.6,65.5c0-0.3,0.3-0.4,0.5-0.3C97.8,65.3,97.7,65.4,97.6,65.5"/>
		<path class="st31" d="M98.1,65.9c0,0.1-0.1,0.2-0.1,0.2c-0.1,0-0.2-0.1-0.2-0.1c0-0.1,0.1-0.2,0.1-0.2
			C98,65.8,98.1,65.8,98.1,65.9"/>
		<path class="st30" d="M97.8,66.1c0.1,0.4-0.2,0.8-0.7,0.9c-0.4,0.1-0.8-0.3-0.9-0.7c-0.1-0.4,0.2-0.8,0.7-0.9
			C97.3,65.3,97.7,65.6,97.8,66.1"/>
		<path class="st31" d="M97.5,66.3c0,0.1-0.1,0.2-0.1,0.2c-0.1,0-0.2-0.1-0.2-0.1c0-0.1,0.1-0.2,0.1-0.2
			C97.4,66.2,97.4,66.2,97.5,66.3"/>
		<path class="st34" d="M96.5,66.1c0.1,0.4-0.2,0.8-0.7,0.9c-0.4,0.1-0.8-0.3-0.9-0.7c-0.1-0.4,0.2-0.8,0.7-0.9
			C96,65.4,96.4,65.7,96.5,66.1"/>
		<path class="st2" d="M95.2,66c0-0.4,0.4-0.5,0.6-0.4C95.6,65.7,95.3,65.8,95.2,66"/>
		<path class="st31" d="M96.1,65.9c0,0.1-0.1,0.2-0.1,0.2c-0.1,0-0.2-0.1-0.2-0.1c0-0.1,0.1-0.2,0.1-0.2
			C96.1,65.8,96.1,65.9,96.1,65.9"/>
		<path class="st30" d="M95.2,66.6c0.1,0.4-0.2,0.8-0.7,0.9c-0.4,0.1-0.8-0.3-0.9-0.7c-0.1-0.4,0.2-0.8,0.7-0.9
			C94.7,65.8,95.1,66.1,95.2,66.6"/>
		<path class="st31" d="M94.1,66.5c0,0.1-0.1,0.2-0.1,0.2c-0.1,0-0.2-0.1-0.2-0.1c0-0.1,0.1-0.2,0.1-0.2
			C94.1,66.4,94.1,66.4,94.1,66.5"/>
		<path class="st30" d="M93.7,66.3c0.2,0.4,0.1,0.9-0.3,1.1c-0.4,0.2-0.8,0.1-1-0.3c-0.2-0.4-0.1-0.9,0.3-1.1
			C93.1,65.8,93.5,66,93.7,66.3"/>
		<path class="st31" d="M92.8,66.7c0,0.1,0,0.2-0.1,0.2s-0.2,0-0.2-0.1c0-0.1,0-0.2,0.1-0.2C92.6,66.6,92.7,66.6,92.8,66.7"/>
		<path class="st30" d="M114.3,66c0.1,0.4-0.1,0.9-0.5,1c-0.4,0.1-0.8-0.1-1-0.5c-0.1-0.4,0.1-0.9,0.5-1
			C113.7,65.3,114.1,65.5,114.3,66"/>
		<path class="st31" d="M113.7,66.1c0,0.1,0,0.2-0.1,0.2c-0.1,0-0.2,0-0.2-0.1c0-0.1,0-0.2,0.1-0.2C113.6,66,113.6,66.1,113.7,66.1"
			/>
		<path class="st30" d="M112.2,66.1c0.1,0.4-0.2,0.8-0.7,0.9c-0.4,0.1-0.8-0.3-0.9-0.7c-0.1-0.4,0.2-0.8,0.7-0.9
			C111.8,65.4,112.2,65.7,112.2,66.1"/>
		<path class="st49" d="M110.9,65.9c0-0.3,0.3-0.4,0.5-0.3C111.2,65.7,111,65.7,110.9,65.9"/>
		<path class="st50" d="M111.8,66c0,0.1-0.1,0.2-0.1,0.2c-0.1,0-0.2-0.1-0.2-0.1c0-0.1,0.1-0.2,0.1-0.2
			C111.7,65.8,111.8,65.9,111.8,66"/>
		<path class="st34" d="M111.2,66.4c0,0.4-0.3,0.8-0.7,0.8c-0.4,0-0.8-0.3-0.8-0.7c0-0.4,0.3-0.8,0.7-0.8
			C110.8,65.7,111.2,66,111.2,66.4"/>
		<path class="st49" d="M109.9,66.1c0-0.2,0.3-0.3,0.4-0.2C110.1,65.9,110,66,109.9,66.1"/>
		<path class="st35" d="M110.3,66.5c0,0.1-0.1,0.2-0.2,0.2c-0.1,0-0.2-0.1-0.2-0.2c0-0.1,0.1-0.2,0.2-0.2
			C110.2,66.3,110.3,66.4,110.3,66.5"/>
		<path class="st51" d="M113.5,65.2c0,0.4-0.3,0.8-0.7,0.9c-0.4,0-0.8-0.3-0.8-0.7c0-0.4,0.3-0.8,0.7-0.9
			C113.1,64.4,113.5,64.7,113.5,65.2"/>
		<path class="st49" d="M112.2,64.9c0-0.3,0.4-0.4,0.6-0.3C112.6,64.6,112.4,64.7,112.2,64.9"/>
		<path class="st31" d="M113.2,65.2c0,0.1-0.1,0.2-0.1,0.2c-0.1,0-0.2-0.1-0.2-0.2c0-0.1,0.1-0.2,0.1-0.2
			C113.1,65.1,113.2,65.2,113.2,65.2"/>
		<path class="st38" d="M113.2,66c0,0.4-0.3,0.8-0.7,0.8c-0.4,0-0.8-0.3-0.8-0.7c0-0.4,0.3-0.8,0.7-0.8
			C112.8,65.2,113.1,65.6,113.2,66"/>
		<path class="st52" d="M112.9,66.2c0,0.1-0.1,0.2-0.2,0.2c-0.1,0-0.2-0.1-0.2-0.2c0-0.1,0.1-0.2,0.2-0.2
			C112.8,66,112.8,66.1,112.9,66.2"/>
		<path class="st53" d="M99.2,68.7H99h-0.1H86.8c0,0,0.5,1.4,1.8,1.8c3.9,1.1,17.7,1,21,0c1.7-0.5,1.7-1.8,1.7-1.8H99.2z"/>
		<path class="st2" d="M99.2,66.1H99h-0.2H82.7c0,0,0.6,1.9,2.4,2.3c5.2,1.4,23.6,1.4,28,0c2.3-0.7,2.3-2.4,2.3-2.4H99.2z"/>
		<path class="st54" d="M115.2,65c-1.5,0.1-1.6,1.4-1.6,1.4s-0.7,0.1-1.4,0.2c-0.5,0.5-1.2,0.9-1.6,1.1c-0.8,0.4-0.6,1.2,0.4,1.2
			c1,0,1.1-0.3,1.1-0.3s-3.1,0.6-4.6,0.9c-1.5,0.3-1.3,1.8,2,2.3c1.4,0.1,2.4,0.2,3.8,0c2-0.9,2.8-1.4,3.9-2.8
			C117.9,66.9,116.7,64.9,115.2,65"/>
		<path class="st55" d="M113.6,66.4c0,0,0.8-0.2,1.2,0.2C115,65.6,114.1,65.8,113.6,66.4"/>
		<path class="st55" d="M111,68.9c0,0,1.9-0.4,2.2-0.6c0.3-0.2,0-0.3,0-0.3L111,68.9z"/>
		<path class="st54" d="M82.6,65c1.5,0.1,1.6,1.4,1.6,1.4s0.7,0.1,1.4,0.2c0.5,0.5,1.2,0.9,1.6,1.1c0.8,0.4,0.6,1.2-0.4,1.2
			c-1,0-1.1-0.3-1.1-0.3s3.1,0.6,4.6,0.9c1.5,0.3,1.3,1.8-1.9,2.3c-1.4,0.1-2.4,0.2-3.8,0c-2-0.9-2.8-1.4-3.9-2.8
			C79.9,66.9,81.2,64.9,82.6,65"/>
		<path class="st55" d="M84.2,66.4c0,0-0.8-0.2-1.2,0.2C82.8,65.6,83.7,65.8,84.2,66.4"/>
		<path class="st55" d="M86.9,68.9c0,0-1.9-0.4-2.2-0.6c-0.3-0.2,0-0.3,0-0.3L86.9,68.9z"/>
	</g>
	<g>
		<rect x="1.3" y="73.5" class="st0" width="197.3" height="3.7"/>
	</g>
</g>
</svg>
